<svg xmlns="http://www.w3.org/2000/svg" xmlns:xlink="http://www.w3.org/1999/xlink" viewBox="0 0 966 1169"><defs><style>.cls-1{fill:#b57e6f;}.cls-2{isolation:isolate;}.cls-16,.cls-20,.cls-21,.cls-3{fill:#fff;}.cls-16,.cls-24,.cls-3,.cls-4,.cls-5{stroke:#f1b104;}.cls-10,.cls-22,.cls-23,.cls-3,.cls-4,.cls-5{stroke-linecap:round;stroke-linejoin:round;}.cls-10,.cls-16,.cls-24,.cls-26,.cls-3,.cls-4,.cls-5{stroke-width:3px;}.cls-4,.cls-6{fill:#ffe6aa;}.cls-10,.cls-22,.cls-23,.cls-24,.cls-26,.cls-5{fill:none;}.cls-7{fill:#ebf4f7;}.cls-8{fill:#f1b104;}.cls-9{fill:#3a193f;}.cls-10,.cls-22{stroke:#3a193f;}.cls-11{clip-path:url(#clip-path);}.cls-12{clip-path:url(#clip-path-2);}.cls-13{fill:#41465a;}.cls-14{clip-path:url(#clip-path-3);}.cls-15{fill:#e3e3e3;mix-blend-mode:multiply;}.cls-16,.cls-24,.cls-26{stroke-miterlimit:10;}.cls-17{fill:#f0512f;}.cls-18{fill:#f26b4e;}.cls-19{fill:#c6efff;}.cls-20{opacity:0.85;}.cls-22,.cls-23{stroke-width:2px;}.cls-23{stroke:#9e2923;}.cls-25{fill:#aea61f;}.cls-26{stroke:#9f9300;}</style><clipPath id="clip-path"><path class="cls-1" d="M631.39,181s-3,41.6,25.14,54.19c0,0-33.47,27.06-69.85,4.48,0,0,22.69-4.46,13-54.62Z"/></clipPath><clipPath id="clip-path-2"><path id="LEG" class="cls-1" d="M640.68,799.38c0-.08,0-.16,0-.25-9-51.77-50.67-285.39,33-297.45,15.59-2.25,66.58,16,61.32,111.74-4.23,77-27.72,133.4-31.64,180.1v0c-.09,38.41,16.18,57.8,20.55,90.86,6.07,46-7.4,122.21-17,158.24h0c-.36,3.62-.36,16.39,3.92,22.66s6.42,6.65,5.64,13.68H667.24a12.37,12.37,0,0,1,8.38-10.64c8-2.66,17.77-21.35,15.75-29.32v0c-12-45.79-32.55-143.26-35.22-158Z"/></clipPath><clipPath id="clip-path-3"><path id="LEG-2" data-name="LEG" class="cls-1" d="M586.46,796.09c-4,38.22,10.25,59.09,11.24,92.4,1.31,44.1-18.91,112.52-32.8,148.61l0,.08c-1.83,4.79-1.47,14.43.55,19.57,3.5,9,6.43,22.25-5.87,22.25H492s-1.56-8.74,16.35-11.21c17.28-2.38,39.63-12.22,39.47-29.09-6.7-45.45-16.05-145.05-17.23-160.16-1.36-17.55-5.56-64-6.8-78.86a.13.13,0,0,1,0-.06c-4.95-45.88-30.92-290.73,50.35-297.76,15.71-1.36,65.52,19.7,54.58,115-8.3,72.35-32.65,125.37-41,170.11a0,0,0,0,0,0,0C587.31,790.28,586.75,793.37,586.46,796.09Z"/></clipPath></defs><g class="cls-2"><g id="Layer_1" data-name="Layer 1"><g id="FRIDGE"><rect class="cls-3" x="88.86" y="234.68" width="373.55" height="844.76" rx="23.81"/><line class="cls-3" x1="438.23" y1="455.5" x2="114.16" y2="455.5"/><path class="cls-4" d="M210.58,614.69l-72.44,2.47a7.83,7.83,0,0,1-8.09-7.82h0a7.83,7.83,0,0,1,8.09-7.83L210.58,604a5.36,5.36,0,0,1,5.17,5.36h0A5.36,5.36,0,0,1,210.58,614.69Z"/><rect class="cls-5" x="167.14" y="297.6" width="48.61" height="48.61"/><rect class="cls-6" x="171.81" y="301.82" width="39.28" height="33.16"/><rect class="cls-7" x="256.61" y="297.6" width="67.03" height="97.86"/><rect class="cls-8" x="266.64" y="320.14" width="5.62" height="2.93"/><rect class="cls-8" x="277.52" y="320.14" width="36.09" height="2.93"/><rect class="cls-8" x="266.64" y="328.81" width="5.62" height="2.93"/><rect class="cls-8" x="277.52" y="328.81" width="36.09" height="2.93"/><rect class="cls-8" x="266.64" y="337.48" width="5.62" height="2.93"/><rect class="cls-8" x="277.52" y="337.48" width="36.09" height="2.93"/><rect class="cls-8" x="266.64" y="346.14" width="5.62" height="2.93"/><rect class="cls-8" x="277.52" y="346.14" width="36.09" height="2.93"/><rect class="cls-8" x="266.64" y="363.47" width="5.62" height="2.93"/><rect class="cls-8" x="277.52" y="363.47" width="36.09" height="2.93"/><rect class="cls-8" x="266.64" y="354.81" width="5.62" height="2.93"/><rect class="cls-8" x="277.52" y="354.81" width="36.09" height="2.93"/><rect class="cls-8" x="286.81" y="294.09" width="4.66" height="7.73"/></g><circle class="cls-9" cx="651.06" cy="103.03" r="27.81"/><g id="HAIR"><path class="cls-9" d="M562.68,131.46c5.53-5.66,30.47-21.27,44.36-25.86,11.79-3.89,37.37-6.07,47.71,17.17s.35,43.27,15.76,57.13,96.25,24.36,61.76,113.36c-15.77,40.71-181.77-9-187.5-53.61-3.72-29,37.44-41,32.44-50C570.8,178.19,541.13,153.52,562.68,131.46Z"/><path class="cls-10" d="M541,240.27c-6.51-31.9,34.28-40.41,32.88-51.29-1.53-12-30.74-36.72-8.82-57.07"/></g><g id="NECK"><path class="cls-1" d="M631.39,181s-3,41.6,25.14,54.19c0,0-33.47,27.06-69.85,4.48,0,0,22.69-4.46,13-54.62Z"/><g class="cls-11"><ellipse class="cls-9" cx="613" cy="192.5" rx="30" ry="26.5"/></g></g><path id="FACE" class="cls-1" d="M636.6,176.45C637.31,182,626,204,600.24,207c-7.13.83-21.24-13-23.24-27-1.61-11.29-3.59-24-3.81-28-.33-6.06,3.37-20.48,19.18-24.2h0c5.61-1,16.58-.77,21.19,14.21,5.6,18.21,18.14,18.78,24.12,17.77C638.8,158.46,637,173.2,636.6,176.45Z"/><path class="cls-10" d="M584.87,127s16.8-6,23.11,14.53c6.24,20.33,17.94,16,25.84,14.39"/><g id="LEGS"><g id="RIGHT_LEG" data-name="RIGHT LEG"><path id="LEG-3" data-name="LEG" class="cls-1" d="M640.68,799.38c0-.08,0-.16,0-.25-9-51.77-50.67-285.39,33-297.45,15.59-2.25,66.58,16,61.32,111.74-4.23,77-27.72,133.4-31.64,180.1v0c-.09,38.41,16.18,57.8,20.55,90.86,6.07,46-7.4,122.21-17,158.24h0c-.36,3.62-.36,16.39,3.92,22.66s6.42,6.65,5.64,13.68H667.24a12.37,12.37,0,0,1,8.38-10.64c8-2.66,17.77-21.35,15.75-29.32v0c-12-45.79-32.55-143.26-35.22-158Z"/><g class="cls-12"><rect class="cls-13" x="627" y="420" width="165" height="536.86"/></g><path id="SHOES" class="cls-8" d="M711.47,1065.93c4.2,4.17,5.83,7.31,5,13.07H667.24s-2.17-8.56,11.51-14.31C683.5,1062.69,706.93,1061.4,711.47,1065.93Z"/></g><g id="LEFT_LEG" data-name="LEFT LEG"><path id="LEG-4" data-name="LEG" class="cls-1" d="M586.46,796.09c-4,38.22,10.25,59.09,11.24,92.4,1.31,44.1-18.91,112.52-32.8,148.61l0,.08c-1.83,4.79-1.47,14.43.55,19.57,3.5,9,6.43,22.25-5.87,22.25H492s-1.56-8.74,16.35-11.21c17.28-2.38,39.63-12.22,39.47-29.09-6.7-45.45-16.05-145.05-17.23-160.16-1.36-17.55-5.56-64-6.8-78.86a.13.13,0,0,1,0-.06c-4.95-45.88-30.92-290.73,50.35-297.76,15.71-1.36,65.52,19.7,54.58,115-8.3,72.35-32.65,125.37-41,170.11a0,0,0,0,0,0,0C587.31,790.28,586.75,793.37,586.46,796.09Z"/><g class="cls-14"><rect class="cls-13" x="478" y="420" width="165" height="536.86"/></g><path id="SHOES-2" data-name="SHOES" class="cls-8" d="M565.42,1056.75S575.59,1079,560.8,1079H492s-2.77-8.41,15.09-11.21c2.49-.39,9.59-1.72,9.59-1.72s-2.2,6.22,13.51,5.54S553,1057.85,565.42,1056.75Z"/></g></g><g id="DRESS"><path id="DRESS-2" data-name="DRESS" class="cls-8" d="M569.15,432.78c-.84-25.79-6.21-51.06-9.33-53.12-9.66-6.39-15.58-18.74-14.81-35.4-29.83-4.44-47.92-25.59-47.92-25.59s22.2-38.86,34.27-52.77c11.25-13,32.22-20.52,46.87-24.48l8.45-1.8c33.79,21,66.16-1.38,70.49-4.66l21.72,8.5c10.13,4.09,23,10.07,31,19.26,12.07,13.91,34.27,52.77,34.27,52.77s-24.5,25.16-57.53,27.93C678.88,375,672.4,424.8,674.85,433"/></g><g id="APRON"><path id="SHADOW" class="cls-15" d="M591.52,239.73l3.41-3.74c-.24,1.12-12.12,70.75-11.71,86h52.27c8.41-25.77,22.23-88.3,22.23-88.3s5.57-.46,4.66,8.76c-2.63,27-10.45,70-10.45,79.54h.12s11.68,70.69,39.12,130.39,32.07,251.82-.44,260.74c-69.68,19.12-141,8.87-162.14-4.39-15.23-9.53-13.15-161.85,37.34-241.7,16.92-26.76-6.8-68.29-8.22-85.32-2-24.17,15.34-59.72,15.34-59.72Z"/><path id="APRON-2" data-name="APRON" class="cls-7" d="M686.16,439.86c27.45,59.7,24.87,249.48-7.32,259.49-68.92,21.44-137.27,14.74-157.77-1.88-14-11.32-12.52-163.1,38-243,16.92-26.76-6.8-68.29-8.22-85.33C548.8,345,566.16,322,566.16,322c0-9.56,13.81-77.9,21.6-82.9s7.8-3.75,7.8-3.75S579.05,306.62,579.47,322h52.26c8.41-25.77,23.48-88.3,23.48-88.3s7.42-3,7.17,6.25C661.7,265.18,645,312.44,645,322h.12a701.33,701.33,0,0,0,33.92,101.79c.68-7.39,3-23.79,9.85-15.2,4.66,5.83-2,14.69-6.52,19.58,6.73,2.17,21,7.94,25.06,18.92l-6.24,4.63-16.3-14.56Z"/></g><g id="HANDS"><rect id="CUTTING_BOARD" data-name="CUTTING BOARD" class="cls-16" x="506.23" y="608.12" width="192.96" height="11.88" rx="5.01"/><g id="RIGHT_HAND" data-name="RIGHT HAND"><path id="HAND" class="cls-1" d="M685.43,579.17c-14.79,6.7,34.62-120.53,42.74-134.19-10-21.91-27.77-65.84-41.25-101.6,17.45-1.54,32.49-9.31,42.76-16.25,0,0,33.73,73.24,33.51,120.37C763.19,462.49,711.67,567.28,685.43,579.17Z"/><path id="SHADOW-2" data-name="SHADOW" class="cls-9" d="M733.06,335.54c-7.49,7.79-25.19,15.75-41,21.38q-3.15-6.93-5.84-13.47l.73-.07c17.45-1.54,32.49-9.31,42.76-16.25C730.79,329.81,731.91,332.61,733.06,335.54Z"/><path id="ARM" class="cls-1" d="M692.59,572.11c-.05-2.73-21.9-7.42-29.55-7.27s-19.57,5.39-21.43,6.73-7.53,9.24-7.53,9.24,1.89,3.85,7.31-.15,16.74-3.13,18.77-1.06c4.58,4.65-8.25-.17-10.37,1.49S648,584.2,648,584.2s12.76,2.72,14.85,3.07,11.34-2,16.27-4S692.68,576.13,692.59,572.11Z"/><g id="TOMATO"><ellipse class="cls-17" cx="653.17" cy="591.41" rx="17.71" ry="16.17"/><ellipse class="cls-18" cx="649.89" cy="592.61" rx="13.89" ry="14.23"/><path class="cls-17" d="M651.77,587.92c0,1-1.88,3.67-1.88,3.67S648,588.9,648,587.92a1.88,1.88,0,0,1,3.76,0Z"/><path class="cls-17" d="M648,597.31c0-1,1.88-3.67,1.88-3.67s1.88,2.68,1.88,3.67a1.88,1.88,0,0,1-3.76,0Z"/><path class="cls-17" d="M645,590.82c1,0,3.85,1.79,3.85,1.79S646,594.4,645,594.4a1.79,1.79,0,1,1,0-3.58Z"/><path class="cls-17" d="M654.82,594.4c-1,0-3.85-1.79-3.85-1.79s2.81-1.79,3.85-1.79a1.79,1.79,0,1,1,0,3.58Z"/><ellipse class="cls-17" cx="633.98" cy="593.51" rx="16.21" ry="13.2" transform="translate(-215.81 414.52) rotate(-31.22)"/><ellipse class="cls-18" cx="632.56" cy="594.1" rx="14.47" ry="11.87" transform="translate(-227.96 481.92) rotate(-35.78)"/><path class="cls-17" d="M635.21,589.87c-.17.89-2.46,3.3-2.46,3.3s-1.34-2.41-1.16-3.3a2.2,2.2,0,0,1,2.13-1.62A1.37,1.37,0,0,1,635.21,589.87Z"/><path class="cls-17" d="M629.91,598.33c.18-.89,2.47-3.31,2.47-3.31s1.33,2.42,1.16,3.31a2.2,2.2,0,0,1-2.14,1.61A1.36,1.36,0,0,1,629.91,598.33Z"/><path class="cls-17" d="M628.13,592.49c1,0,3.39,1.61,3.39,1.61s-3,1.61-4,1.61a1.38,1.38,0,0,1-1.5-1.61A2.21,2.21,0,0,1,628.13,592.49Z"/><path class="cls-17" d="M637,595.71c-1,0-3.4-1.61-3.4-1.61s3-1.61,4-1.61a1.36,1.36,0,0,1,1.49,1.61A2.2,2.2,0,0,1,637,595.71Z"/></g></g><g id="LEFT_HAND" data-name="LEFT HAND"><path class="cls-1" d="M470.27,427.17c-1.51,5.23.23,13.09,6.9,22.57,23.42,33.28,82.38,102.54,101,104.52,9.08,1-40.52-91.88-77.26-123.76,7.46-11.07,25.64-51,44.06-86.38-17.56-1.81-31.35-11.82-40.18-18.4C504.76,325.72,478.73,381.51,470.27,427.17Z"/><path class="cls-9" d="M539.65,354.14c-15.21-5.16-30-14.46-37-23,.54-1,1.65-4.34,2.19-5.34,8.83,6.56,22.5,15.4,40.11,18.34Z"/><rect class="cls-13" x="550.9" y="556.86" width="51.84" height="11.15" rx="3.27" transform="translate(226.06 -162.84) rotate(19.91)"/><path class="cls-19" d="M669,593.38,602,569.09l-4.65,12.85S641,603.83,669,593.38Z"/><path class="cls-1" d="M573.47,541.66c4.86-.29,26.52,10,27.43,12.69S614,571.76,614,571.76s-3.16,3.23-8.42-2.13c-6.12-6.22-8.69-6-8.69-6s-2.1,4.42-5.32,4.1-2.11,3.92-7.24,4.23c-3,.19-4.7,2.1-7.25.69s-10.41-19.4-9.2-25.43C568.94,542.14,570.59,541.83,573.47,541.66Z"/></g><g id="TOMATO-2" data-name="TOMATO"><rect class="cls-17" x="572.98" y="601.12" width="29.91" height="4.68" rx="1.97"/><ellipse class="cls-17" cx="623.3" cy="596.1" rx="14.8" ry="11.02" transform="translate(-159.71 234.53) rotate(-18.94)"/><ellipse class="cls-18" cx="621.98" cy="596.58" rx="13.12" ry="9.98" transform="translate(-175.55 269.92) rotate(-21.53)"/><path class="cls-17" d="M624.46,593.13c-.17.73-2.31,2.7-2.31,2.7s-1.24-2-1.08-2.7a2,2,0,0,1,2-1.31C624,591.82,624.62,592.41,624.46,593.13Z"/><path class="cls-17" d="M619.5,600c.17-.73,2.31-2.7,2.31-2.7s1.25,2,1.08,2.7a2,2,0,0,1-2,1.31C620,601.35,619.34,600.76,619.5,600Z"/><path class="cls-17" d="M617.84,595.27a10.72,10.72,0,0,1,3.17,1.31,16.9,16.9,0,0,1-3.77,1.32c-.94,0-1.56-.59-1.4-1.32A2,2,0,0,1,617.84,595.27Z"/><path class="cls-17" d="M626.13,597.9a10.65,10.65,0,0,1-3.18-1.32,17,17,0,0,1,3.77-1.31c.94,0,1.56.59,1.4,1.31A2,2,0,0,1,626.13,597.9Z"/></g></g><g id="TABLE"><rect class="cls-16" x="246.16" y="620" width="619.22" height="24.3" rx="10.25"/><rect class="cls-16" x="812.86" y="644.3" width="23.43" height="448.83"/><rect class="cls-16" x="275.26" y="644.3" width="23.42" height="448.83"/><polygon class="cls-8" points="275.26 644.3 298.68 644.3 298.68 654.32 275.26 651.82 275.26 644.3"/><polygon class="cls-8" points="836.29 644.3 836.29 654.95 812.86 651.82 812.86 644.3 836.29 644.3"/></g><g id="BOWL"><path class="cls-20" d="M483.81,557a60.32,60.32,0,0,1-60.23,60.41h0a60.33,60.33,0,0,1-60.41-60.24Z"/><path class="cls-21" d="M483.81,557a60.32,60.32,0,0,1-60.23,60.41h0a60.33,60.33,0,0,1-60.41-60.24Z"/><path class="cls-21" d="M461.35,598.05a53.16,53.16,0,0,1-67.12,6.68c1.82-3.33,19.78,4.92,34.22-6.45C454,578.14,460.66,595.89,461.35,598.05Z"/></g><path class="cls-10" d="M576,155.87s2.23-4.45,10-2.23"/><path class="cls-10" d="M601.56,165.88s8-.76,12.24-4.45"/><path class="cls-22" d="M597.11,189.24s4.45,1.12,10-4.45"/><polyline class="cls-23" points="592.66 165.88 590.43 175.89 594.21 180.41"/><circle class="cls-1" cx="634.12" cy="160.82" r="11.12" transform="translate(192.61 643.56) rotate(-61.79)"/><path class="cls-10" d="M578.2,168.11s3.14,1.59,9.36-.88"/><path class="cls-10" d="M598.22,153.64s4.45-5.91,15.58-1.84"/><g id="JUG"><path class="cls-21" d="M483.46,578.54c0,18.07-10,33.48-24.09,39.51H433.06C419,612,409,596.61,409,578.54c0-15.92,7.77-29.78,19.25-37a7.34,7.34,0,0,0,3.47-6.22h0a7.33,7.33,0,0,0-3.4-6.19l-3.7-2.36a1.26,1.26,0,0,1,.69-2.32h34.36a2.33,2.33,0,0,1,2.32,2.67l-1.21,8.2a7.33,7.33,0,0,0,3.46,6.22C475.68,548.76,483.46,562.62,483.46,578.54Z"/><path class="cls-24" d="M478.39,578.75c0,18.46-10.19,34.21-24.52,40.37H427.1c-14.33-6.15-24.52-21.91-24.52-40.37,0-16.27,7.91-30.43,19.6-37.78a7.51,7.51,0,0,0,3.52-6.36h0a7.51,7.51,0,0,0-3.45-6.32l-3.77-2.41a1.29,1.29,0,0,1,.7-2.38h35a2.38,2.38,0,0,1,2.36,2.73l-1.24,8.38A7.52,7.52,0,0,0,458.8,541C470.48,548.32,478.39,562.49,478.39,578.75Z"/><path class="cls-24" d="M465.8,547H472a20.18,20.18,0,0,1,20.18,20.18V576a15.48,15.48,0,0,1-15.48,15.47h0"/></g><path class="cls-25" d="M172.11,149.61a101.83,101.83,0,0,1,20-18.72c28.44-20.11,32.59-38.39,23-50.84s-20.24-8.41-27-1.93S166.27,104.7,172.11,149.61Z"/><path class="cls-25" d="M196.86,150.78s15.33-16.74,44.65-6.88,11.17,38.38-8.81,37.87S221,152.87,196.86,150.78Z"/><path class="cls-25" d="M160.71,140.79S154.6,108.33,132,101.06s-38.4,9.86-31.14,24.92S148.14,122.13,160.71,140.79Z"/><path class="cls-26" d="M170.17,189.06s-8.57-51.67,28.28-88"/><path class="cls-26" d="M169.4,180.21s26.71-56.31,64.86-17.91"/><path class="cls-26" d="M169.4,175.54s2.84-48-42.31-58.65"/><path class="cls-8" d="M143.2,189.06h59.16a0,0,0,0,1,0,0v18.13a24.94,24.94,0,0,1-24.94,24.94h-9.28a24.94,24.94,0,0,1-24.94-24.94V189.06A0,0,0,0,1,143.2,189.06Z"/></g></g></svg>