<svg id="Layer_1" data-name="Layer 1" xmlns="http://www.w3.org/2000/svg" viewBox="0 0 2044 1169"><defs><style>.cls-1{fill:#d6eaf2;}.cls-10,.cls-12,.cls-2,.cls-4,.cls-5,.cls-6{fill:none;}.cls-2{stroke:#f1b104;stroke-miterlimit:10;}.cls-10,.cls-12,.cls-2,.cls-4,.cls-5,.cls-6,.cls-7{stroke-width:3px;}.cls-3{fill:#99c9e5;}.cls-4{stroke:#fff;}.cls-10,.cls-12,.cls-4,.cls-5,.cls-6,.cls-7{stroke-linecap:round;stroke-linejoin:round;}.cls-5{stroke:#99c9e5;}.cls-6,.cls-7{stroke:#cde8ec;}.cls-7{fill:#fff;}.cls-8{fill:#ffba00;}.cls-9{fill:#f9c543;}.cls-10{stroke:#d3a000;}.cls-11{fill:#aea61f;}.cls-12{stroke:#9f9300;}</style></defs><path id="HILL" class="cls-1" d="M204.1,846.22C301.74,538.49,743.4,401.75,876.36,478.7s120,193.06,285.64,180.66,208-204.64,392.35-151.65,249.8,335.51,249.8,335.51"/><g id="TREE"><line class="cls-2" x1="402.2" y1="153.03" x2="402.2" y2="839.51"/><path class="cls-2" d="M557.73,230.5v4a44.65,44.65,0,0,1-44.65,44.65H485.75a22,22,0,0,0-22,22"/><path class="cls-2" d="M513.08,279.18h87.8A41.64,41.64,0,0,0,634.59,262"/><path class="cls-2" d="M362.29,153v94.13A95.92,95.92,0,0,0,390.38,315h0a40.35,40.35,0,0,1,11.82,28.54"/><path class="cls-2" d="M463.93,230.5v62.33a118.37,118.37,0,0,1-37.87,86.79l-1.37,1.27a70.28,70.28,0,0,0-22.49,51.53"/><path class="cls-2" d="M308.72,196.52V369.93a185.91,185.91,0,0,0,61.06,137.75h0a98.69,98.69,0,0,1,32.42,73.14"/><path class="cls-2" d="M216.41,152.45c0,42.68,27.17,69.15,60.69,69.15h31.62"/><path class="cls-2" d="M280.82,334.38v44.56a32,32,0,0,0,32,32h.47"/><path class="cls-2" d="M286.19,396.69H242.05a66.89,66.89,0,0,1-66.89-66.89"/><path class="cls-2" d="M495.44,486.93v21.83a122.12,122.12,0,0,1-35.77,86.35L424.74,630a77,77,0,0,0-22.54,54.41"/><path class="cls-2" d="M531.31,479.86a34.37,34.37,0,0,1-34.37,34.37h-1.63"/><path class="cls-3" d="M512,480.31H587.7s15.65-11.46,2.37-24.53c-8.61-8.47-22.55-3.13-22.55-3.13s14.83-48.67-31.46-53.72S480.85,432.47,488,449.09s-91-22.78-102.69,24c-.89,3.56,31.16,8,61.73,3.26,0,0,9.79,30.57,44.26,24.78C515.49,497.11,512,480.31,512,480.31Z"/><path class="cls-3" d="M186.76,331.91H99s-1.78-44.42,122.87-28.4c0,0,3.52-44.06,70.29-41.83s65.93,71.51,63.26,73.14-61,0-61,0-6.8,33.82-61.71,33.82C196.83,368.64,186.76,331.91,186.76,331.91Z"/><path class="cls-3" d="M595.41,231H444.07c-13.63,0-24.13-12.49-21.27-25.82,1.56-7.29,6.88-14,19.92-16.92,28-6.23,44.07,3.49,44.07,3.49s-25.39-68.89,60.1-68.93c79.24,0,70.64,52.12,69.45,60.54C614.41,197,671,169.07,703,204.68s-24.82,69.75-57.77,61.59S595.41,231,595.41,231Z"/><path class="cls-3" d="M356.59,154H478.18s11.25-20-12.12-29.75-74.49,1.18-74.49,1.18S395,52.12,326.15,57.28c-62.48,4.68-58.69,55.44-58.69,55.44S205.6,97,154.67,135.66c-8.73,6.64-4.67,16.55,6.3,16.55,14.42,0,66.27.55,66.27.55s14.65,51,80.15,44.58C353.44,192.84,356.59,154,356.59,154Z"/><circle class="cls-4" cx="507.32" cy="152.81" r="5.5"/><circle class="cls-5" cx="252.33" cy="95.65" r="5.33"/><circle class="cls-5" cx="155.38" cy="346.19" r="7.73"/><circle class="cls-5" cx="470.05" cy="433.38" r="5.5"/><circle class="cls-4" cx="301.13" cy="90.32" r="10.66"/><circle class="cls-4" cx="627.41" cy="207.14" r="10.61"/><circle class="cls-4" cx="333.23" cy="312.46" r="8"/><circle class="cls-4" cx="470.05" cy="482.17" r="8"/><circle class="cls-4" cx="328.9" cy="76.6" r="3.73"/><circle class="cls-4" cx="604.97" cy="179.89" r="3.85"/><circle class="cls-4" cx="308.72" cy="315.12" r="3.85"/><circle class="cls-4" cx="137.35" cy="320.46" r="3.85"/></g><g id="WAY"><path id="WAY-2" data-name="WAY" class="cls-1" d="M658,845.38c34,0,339.67,9.15,284.48,86s-753.52,65-753.52,65v62.23H1884l-21-28.74S1362.38,998,1443.51,911.26c53.07-56.73-297.22-67-388.51-67S658,845.38,658,845.38Z"/><ellipse class="cls-6" cx="707.9" cy="883.59" rx="48.83" ry="8.26"/><ellipse class="cls-6" cx="792.29" cy="907.92" rx="18.58" ry="4.76"/><line class="cls-7" x1="1514.64" y1="858.37" x2="1871.83" y2="858.37"/></g><g id="CLOUDS_SUN" data-name="CLOUDS &amp; SUN"><circle class="cls-8" cx="1386.35" cy="171.76" r="76.1"/><path class="cls-7" d="M1490.08,405.13c-50.8-10.67-54.59,22.83-54.59,22.83h373.12c4.59-51.17-60.15-40.87-60.15-40.87s7.54-36.69-49.68-49.19-87.48,22-82.72,50.3c0,0-26.83-36.28-71.6-22.13-34.42,10.88.9,34.2-6.34,42.46C1530.67,417,1515.88,410.55,1490.08,405.13Z"/><path class="cls-7" d="M917.34,365.23H616.12s3.49-30.2,48.21-20.16c60.1,13.49,86.24,4.36,83-15-4.2-25,22.51-55.44,73-44.4s43.87,43.43,43.87,43.43S921.39,320,917.34,365.23Z"/><line class="cls-7" x1="668.31" y1="383.17" x2="816.74" y2="383.17"/><path class="cls-7" d="M1110.93,195.15h277.36s-3.46-30-47.86-20c-59.68,13.39-63.91,0-60.68-19.2,4.17-24.8-22.36-59.39-72.52-48.44S1168,176.7,1168,176.7,1119,165.17,1110.93,195.15Z"/><line class="cls-7" x1="1244.05" y1="209.57" x2="1392.48" y2="209.57"/></g><g id="PLANTS"><path class="cls-9" d="M2021.54,843.24s-1-88.3-94.25-84.13c0,0-30.29-194.72-202.71-214.5-209.72-24.06-250.76,208-250.76,208S1275,693.22,1249.49,843.24Z"/><path class="cls-10" d="M2021.54,843.24s-1-88.3-94.25-84.13c0,0-30.29-194.72-202.71-214.5-209.72-24.06-250.76,208-250.76,208S1275,693.22,1249.49,843.24Z"/><path class="cls-10" d="M1706.83,543.16s-66.89,178-10.1,300.08"/><path class="cls-10" d="M1750,549s-18.1,137.95-75,206.29"/><path class="cls-10" d="M1662.19,545.19s-17.49,75.07,15.69,120.22"/><path class="cls-10" d="M1801.92,568.7s-31.79,83.81-81,99.3"/><path class="cls-10" d="M1873,632.11s-151.31,70-169.36,211.13"/><path class="cls-10" d="M1827.26,585.15s-23.91,30.82-13.8,84.48"/><path class="cls-10" d="M1732.81,758.76c35-52.45,152.65-38,165-86.09"/><path class="cls-10" d="M1918.23,723.07s-35.27,12.86-84.6-11.5"/><path class="cls-10" d="M1927.29,759.11c-15.08.81-76.11,23.1-83,84.13"/><path class="cls-10" d="M1961.39,762.33s-33.26,18.82-28,80.91"/><path class="cls-10" d="M1985,772.77s-8.12,48.2-52.14,59.34"/><path class="cls-10" d="M1918.23,760.84s1,35.24,17.18,44.27"/><path class="cls-10" d="M1862.66,798s48.79-7.28,62.44,45.26"/><path class="cls-10" d="M1853.29,812.72s26.33,6.81,44.48-7.61"/><path class="cls-10" d="M2005.34,793s-36.34,9.37-34.75,50.23c0,0,3.72-24.41,22.29-24.94s18,24.94,18,24.94"/><path class="cls-10" d="M1673.87,721.7c0-52.07-98.15-89.59-88.32-147.93"/><path class="cls-10" d="M1521.7,637.91S1550,664.1,1612,635.58"/><path class="cls-10" d="M1616.91,557.44s30.75,4.74,44.48,69.95"/><path class="cls-10" d="M1501.61,672.67s76.23,35.23,60.31,170.57"/><path class="cls-10" d="M1577.31,647.73s24.59,86.16-15.3,127.57"/><path class="cls-10" d="M1491.47,695.22s7.89,22.4,46.6,12.5"/><path class="cls-10" d="M1590.58,843.24s-9.55-54.13,36.09-54.13,47.2,54.13,47.2,54.13"/><path class="cls-10" d="M1584.81,711.57c15.33,2.17,82.88,21.53,97.4,89.61"/><path class="cls-10" d="M1473.82,752.66c17.65,6.1,63.16,37.51,69.53,90.58"/><path class="cls-10" d="M1478.6,843.24s-16.58-54.64-3.25-97.79"/><path class="cls-10" d="M1405.34,741.5s35.57,16.82,23.37,101.74"/><path class="cls-10" d="M1448.93,746.9s3.45,42.86-17.67,55.54"/><path class="cls-10" d="M1769.44,843.24c.53-14.86,15.17-81.82,128.33-74.08"/><path class="cls-10" d="M1341.13,746.9s28.21,47.84,79.12,11.06"/><path class="cls-10" d="M1366.08,843.24s-17.52-17.51-48.3-14.33-34.5,14.33-34.5,14.33"/><path class="cls-10" d="M1418.3,843.24s-8.17-38.92-49.57-33.52-42.46,33.52-42.46,33.52"/><path class="cls-9" d="M162.65,1058.58H589.37c2.12-74.66-87-69.71-87-69.71s-1.44-95.41-129.5-117.47C319.41,862.2,141.42,871.27,162.65,1058.58Z"/><path class="cls-10" d="M162.65,1058.58H589.37c2.12-74.66-87-69.71-87-69.71s-1.44-95.41-129.5-117.47C319.41,862.2,141.42,871.27,162.65,1058.58Z"/><path class="cls-10" d="M359.76,869.78s-43,87.42-4.8,188.8"/><path class="cls-10" d="M325.23,869.53s-6.92,48.51,15.38,73.93"/><path class="cls-10" d="M402.92,878.55S384.81,950.41,339.63,987"/><path class="cls-10" d="M437.55,893.24s-35.38,44.17-60.31,47.43"/><path class="cls-10" d="M262.86,881.58s10.87,87.62,77.75,116.92"/><path class="cls-10" d="M179.33,948.45s48.6-45.9,107.87,0"/><path class="cls-10" d="M348.81,1040.09c0-61.36,126.54-67.42,127.11-115.22"/><path class="cls-10" d="M452.34,902.72S433,920.5,448.13,959.29"/><path class="cls-10" d="M502.33,988.87c-11,.71-68.29,23-69.35,69.71"/><path class="cls-10" d="M521.08,1058.58c-4.78-8-39.53-81.56-131.49-69.71"/><path class="cls-10" d="M531.94,991.55s.46,36.26-29.61,39.17"/><path class="cls-10" d="M425.55,988.87s-10.49,18.81,12,48.77"/><path class="cls-10" d="M377.24,1058.58s0-18.93,17-18.49,18.14,18.49,18.14,18.49"/><path class="cls-10" d="M324.22,1058.58s-17-62.85-78.06-60.08-66.83,60.08-66.83,60.08"/><path class="cls-10" d="M309.31,1058.58s-8-28.86-39.8-30.09-31.85,30.09-31.85,30.09"/><path class="cls-10" d="M249,929.78s-12.92,43.61,15.74,70"/><path class="cls-10" d="M226.55,928.32s-8.28,57.41-63.07,67.56"/><path class="cls-10" d="M290.05,874.18s11.69,32.32-18.82,40.88"/><path class="cls-10" d="M578.88,1019.15s-24.36,1.74-15.34,39.43"/><path class="cls-3" d="M287.2,846.44s57.32-16.27,100.49-55.9c36.89-33.87,66.52-75,113.22-74.31s52.37,48.83,52.37,48.83,21.93-40.33,83.5-24.77,25.48,63.86,53.78,65.38,111.81-42.73,111.81,40.77Z"/><path class="cls-4" d="M557.61,848.36c95.62-87.52,80.61-168.73,80.61-168.73-103,52.07-85.94,167.16-85.94,167.16"/><path class="cls-4" d="M563,846.79s14.23-64.72-46.27-84.89,31.89,84.89,31.89,84.89"/><circle class="cls-5" cx="703.5" cy="777.57" r="7.73"/><path class="cls-2" d="M191.67,622.21s-7.49,131.84,2.47,188.59"/><path class="cls-2" d="M213.31,638.92s-1.47,24.74-23,30.4"/><path class="cls-2" d="M152,666.21S162.21,715,189,737"/><path class="cls-2" d="M134.35,672.22s9.31,14.07,23.76,14.82"/><path class="cls-2" d="M175.37,637.61s4.47,15.66,14.86,17.85"/><circle class="cls-9" cx="191.84" cy="602.99" r="20.28"/><circle class="cls-9" cx="213.7" cy="635.97" r="6.66"/><circle class="cls-9" cx="174.3" cy="635.27" r="5.88"/><circle class="cls-9" cx="133.28" cy="670.99" r="5.33"/><circle class="cls-9" cx="151.51" cy="654.65" r="12.44"/><path class="cls-11" d="M148.5,846.79s-72.62-19.95-57.67-53.43c8.84-19.81,63.68,34.32,63.68,34.32s-50.24-53-42.1-150.35c0,0,60.26,42.79,81.73,112.14,0,0,12-101.55,54.85-136.93,0,0,10.26,23.35-2.83,99.78,0,0,43.16-48.83,70.76-61.92,0,0-17.34,71.12-41.75,104.38,0,0,28.66-14.51,41.75,7.78s-29.72,42.82-29.72,42.82Z"/><path class="cls-12" d="M114,680.53s47.23,131.59,77.66,164.85"/><path class="cls-12" d="M248.45,655.21S215.83,825.66,204.1,845.69"/><path class="cls-12" d="M313.72,694.13s-66.86,121.45-101.18,151"/><path class="cls-12" d="M314.67,799.27s-43,38.73-73.82,46.05"/><path class="cls-12" d="M91.89,793.36s36.79,42.28,74,51.83"/><line class="cls-12" x1="148.5" y1="845.19" x2="287.2" y2="845.19"/><path class="cls-11" d="M1915.71,1047.79s72.62-20,57.67-53.43c-8.84-19.81-63.69,34.32-63.69,34.32s50.25-53,42.11-150.35c0,0-60.27,42.79-81.73,112.14,0,0-12-101.55-54.85-136.93,0,0-10.26,23.35,2.83,99.78,0,0-43.16-48.83-70.76-61.92,0,0,17.34,71.12,41.75,104.38,0,0-28.66-14.51-41.75,7.78s29.72,42.82,29.72,42.82Z"/><path class="cls-12" d="M1950.2,881.53s-47.23,131.59-77.66,164.85"/><path class="cls-12" d="M1815.76,856.21s32.61,170.45,44.34,190.48"/><path class="cls-12" d="M1750.49,895.13s66.86,121.45,101.18,151"/><path class="cls-12" d="M1749.54,1000.27s43,38.73,73.82,46"/><path class="cls-12" d="M1972.32,994.36s-36.8,42.28-74,51.83"/><line class="cls-12" x1="1915.71" y1="1046.19" x2="1777.01" y2="1046.19"/><path class="cls-3" d="M1413.67,1058.58s2-85.12,76.93-85.45c53.08-.24,67.91,24.93,67.91,24.93s-52-87,44.08-106.67,118.29,97.21,161.42,108.8c43.44,11.68,147.09-32.55,120.4,58.39Z"/><path class="cls-4" d="M1657.19,1061.57c-85.27-46.66-74.57-128.91-74.57-128.91,85.59,26.46,78.18,126.81,78.18,126.81"/><path class="cls-4" d="M1653,1061.38s-13.71-48.12,34.53-70.09c43.52-19.82-24.06,67.52-24.06,67.52"/><circle class="cls-5" cx="1518.86" cy="948.45" r="9.06"/><circle class="cls-5" cx="1913.29" cy="1009.45" r="7.73"/><circle class="cls-4" cx="1459.82" cy="1009.45" r="10.61"/></g></svg>