<svg xmlns="http://www.w3.org/2000/svg" viewBox="0 0 1525 1169"><defs><style>.cls-1{isolation:isolate;}.cls-2{fill:#fff4de;}.cls-15,.cls-3,.cls-8{fill:none;}.cls-10,.cls-3,.cls-6{stroke:#f1b104;}.cls-10,.cls-15,.cls-3,.cls-6,.cls-8{stroke-linecap:round;stroke-linejoin:round;stroke-width:3px;}.cls-4,.cls-6{fill:#ffe6aa;}.cls-10,.cls-5{fill:#fff;}.cls-7{fill:#c6efff;}.cls-8{stroke:#f4b404;}.cls-9{fill:#f1b104;}.cls-11{fill:#ebf4f7;}.cls-12{mix-blend-mode:multiply;}.cls-13{fill:#e4f7ff;}.cls-14{fill:#aea61f;}.cls-15{stroke:#9f9300;}.cls-16{fill:#948900;}.cls-17{fill:#b0a81f;}</style></defs><g class="cls-1"><g id="Layer_1" data-name="Layer 1"><g id="KITCHEN_FURNITURE" data-name="KITCHEN FURNITURE"><g id="BOTTOM"><g id="FURNITURE"><rect class="cls-2" x="261.69" y="737.59" width="882.54" height="324.3"/><rect class="cls-3" x="286.78" y="761.87" width="154.27" height="277.55"/><circle class="cls-3" cx="424.32" cy="895.81" r="7.17"/><circle class="cls-3" cx="467.34" cy="895.81" r="7.17"/><rect class="cls-3" x="453.39" y="761.87" width="154.27" height="277.55"/><rect class="cls-3" x="969.02" y="761.87" width="154.27" height="277.55"/><circle class="cls-3" cx="985.4" cy="895.81" r="7.17"/><g id="COOKSTOVE"><rect class="cls-3" x="689.51" y="761.43" width="234.6" height="57.63"/><rect class="cls-3" x="689.51" y="828.82" width="234.6" height="210.6"/><rect class="cls-4" x="721.83" y="880.28" width="179.53" height="133.49"/><rect class="cls-3" x="717.05" y="875.5" width="179.53" height="133.49"/><rect class="cls-3" x="718.14" y="845.19" width="176.63" height="9.92" rx="1.62"/><line class="cls-3" x1="803.57" y1="875.5" x2="717.82" y2="961.25"/><line class="cls-3" x1="823.07" y1="875.5" x2="717.05" y2="981.52"/><line class="cls-3" x1="861.78" y1="875.5" x2="728.29" y2="1008.99"/><circle class="cls-3" cx="885.03" cy="789.47" r="11.55"/><line class="cls-3" x1="885.03" y1="782.45" x2="885.03" y2="777.92"/><line class="cls-3" x1="885.03" y1="801.02" x2="885.03" y2="796.49"/><line class="cls-3" x1="878.01" y1="788.99" x2="873.48" y2="788.99"/><line class="cls-3" x1="896.58" y1="788.99" x2="892.05" y2="788.99"/><polyline class="cls-3" points="885.03 785.42 885.03 789.47 888.61 789.47"/><circle class="cls-5" cx="774.11" cy="792.78" r="6.42"/><circle class="cls-5" cx="798.48" cy="792.78" r="6.42"/><circle class="cls-5" cx="822.86" cy="792.78" r="6.42"/><circle class="cls-5" cx="847.23" cy="792.78" r="6.42"/><circle class="cls-3" cx="771.72" cy="790.87" r="6.42"/><circle class="cls-3" cx="796.09" cy="790.87" r="6.42"/><circle class="cls-3" cx="820.47" cy="790.87" r="6.42"/><circle class="cls-3" cx="844.84" cy="790.87" r="6.42"/></g></g><g id="OVEN_MITT" data-name="OVEN MITT"><path class="cls-3" d="M763.77,586.67a6.36,6.36,0,0,1,3.48-1.69l21.37-2.73,5-4.57,26.58,28.77-28.12,26c-9.53,8.8-23.23,10-30.72,2.45-3.95-4-5.43-9.59-4.64-15.3a26.54,26.54,0,0,1,8.49-15.66l4.52-4.17c1.19-1.1,1.09-2.84-.19-3.33l-5.86-2.27a3.07,3.07,0,0,1-1-.74C761.09,591.78,761.5,588.77,763.77,586.67Z"/><rect class="cls-6" x="787.15" y="587.57" width="43.33" height="5.34" rx="1.86" transform="translate(924.06 1584.86) rotate(-132.73)"/><path class="cls-3" d="M799,565.59c-.08,1.66-3.32,6.74-3.32,6.74s-2.78-5.34-2.7-7a3,3,0,0,1,6,.27Z"/><line class="cls-3" x1="760.72" y1="561.94" x2="842.99" y2="561.94"/></g><g id="CUTTING_BOARD" data-name="CUTTING BOARD"><path class="cls-4" d="M919.12,629.4h-6.58a8.94,8.94,0,0,1-9-8.85v-1.92a8.76,8.76,0,0,1,.67-3.36,8.33,8.33,0,0,1,.76-1.41,8.81,8.81,0,0,0,.67-3.37v-1.25a8.94,8.94,0,0,0-9-8.86h-1.28a8.94,8.94,0,0,0-9,8.86v1.25a8.81,8.81,0,0,0,.67,3.37,8.33,8.33,0,0,1,.76,1.41,8.76,8.76,0,0,1,.67,3.36v1.92c0,4.88-4,10.28-9,10.28h-6.59c-6.22,0-11.27,3.53-11.27,9.65V716a11.18,11.18,0,0,0,11.27,11.08h46.31A11.18,11.18,0,0,0,930.4,716V640.48A11.18,11.18,0,0,0,919.12,629.4ZM896,612.79a2.5,2.5,0,1,1,2.54-2.49A2.52,2.52,0,0,1,896,612.79Z"/><path class="cls-3" d="M915.78,627.68h-6.59a9,9,0,0,1-9-9v-1.94a9.06,9.06,0,0,1,.67-3.42,8.23,8.23,0,0,1,.76-1.44,9.11,9.11,0,0,0,.67-3.43v-1.27a9,9,0,0,0-9-9H892a9,9,0,0,0-9,9v1.27a9.11,9.11,0,0,0,.67,3.43,8.23,8.23,0,0,1,.76,1.44,9.06,9.06,0,0,1,.67,3.42v1.94a9,9,0,0,1-9,9h-6.59a11.26,11.26,0,0,0-11.27,11.26v76.9a11.27,11.27,0,0,0,11.27,11.27h46.31a11.27,11.27,0,0,0,11.27-11.27v-76.9A11.26,11.26,0,0,0,915.78,627.68Zm-23.16-16.91a2.54,2.54,0,1,1,2.54-2.54A2.54,2.54,0,0,1,892.62,610.77Z"/></g></g><g id="TOP"><g id="FURNITURE-2" data-name="FURNITURE"><rect class="cls-2" x="261.69" y="218.09" width="882.54" height="324.3"/><line class="cls-3" x1="261.69" y1="542.39" x2="1145.48" y2="542.39"/><line class="cls-3" x1="628.47" y1="217.98" x2="628.47" y2="542.38"/><line class="cls-3" x1="948.11" y1="217.98" x2="948.11" y2="542.38"/><rect class="cls-3" x="628.47" y="367.19" width="319.65" height="16.43"/><rect class="cls-3" x="628.47" y="217.98" width="319.65" height="16.43"/><rect class="cls-3" x="628.47" y="525.96" width="319.65" height="16.43"/><rect class="cls-3" x="286.78" y="241.47" width="154.27" height="277.55"/><circle class="cls-3" cx="424.32" cy="375.41" r="7.17"/><circle class="cls-3" cx="467.34" cy="375.41" r="7.17"/><rect class="cls-3" x="453.39" y="241.47" width="154.27" height="277.55"/><line class="cls-3" x1="261.69" y1="217.98" x2="1145.22" y2="217.98"/><rect class="cls-3" x="969.02" y="241.47" width="154.27" height="277.55"/><circle class="cls-3" cx="985.4" cy="375.41" r="7.17"/></g><g id="TABLEWARE"><g id="JUG"><path class="cls-5" d="M909.67,326.39c0,18.07-10,33.48-24.09,39.51H859.27c-14.08-6-24.09-21.44-24.09-39.51,0-15.92,7.77-29.78,19.25-37a7.35,7.35,0,0,0,3.46-6.22h0A7.32,7.32,0,0,0,854.5,277l-3.7-2.36a1.26,1.26,0,0,1,.69-2.32h34.36a2.33,2.33,0,0,1,2.32,2.67l-1.21,8.2a7.35,7.35,0,0,0,3.46,6.22C901.89,296.61,909.67,310.47,909.67,326.39Z"/><path class="cls-3" d="M904.59,326.6c0,18.46-10.18,34.21-24.51,40.37H853.31c-14.33-6.15-24.52-21.91-24.52-40.37,0-16.27,7.91-30.43,19.6-37.78a7.54,7.54,0,0,0,3.52-6.36h0a7.49,7.49,0,0,0-3.46-6.32l-3.76-2.42a1.29,1.29,0,0,1,.7-2.37h35a2.39,2.39,0,0,1,2.36,2.73l-1.24,8.38a7.52,7.52,0,0,0,3.53,6.36C896.69,296.17,904.59,310.34,904.59,326.6Z"/><path class="cls-3" d="M892,294.84h6.2A20.17,20.17,0,0,1,918.39,315v8.82a15.47,15.47,0,0,1-15.47,15.47h0"/></g><g id="DISHES"><circle class="cls-5" cx="717.84" cy="471.57" r="53.86"/><circle class="cls-3" cx="712.01" cy="470.12" r="55.31"/><circle class="cls-3" cx="712.01" cy="470.12" r="30.82"/><path class="cls-7" d="M809.94,485.72h81.89a6.38,6.38,0,0,1-6.37,6.38H816.32a6.38,6.38,0,0,1-6.38-6.38Z"/><path class="cls-7" d="M802.4,499.89h97a7.55,7.55,0,0,1-7.55,7.55H810a7.55,7.55,0,0,1-7.55-7.55Z"/><path class="cls-4" d="M792.08,516.27H909.7a9.16,9.16,0,0,1-9.16,9.15H801.23a9.15,9.15,0,0,1-9.15-9.15Z"/><path class="cls-4" d="M809.34,485.31h83.1a6.47,6.47,0,0,1-6.47,6.47H815.81a6.47,6.47,0,0,1-6.47-6.47Z"/><path class="cls-8" d="M798.64,479.12h104.5a1.11,1.11,0,0,1,.38,2.15l-11.08,4h-83.1l-11.08-4A1.11,1.11,0,0,1,798.64,479.12Z"/><path class="cls-4" d="M801.69,499.18h98.4a7.66,7.66,0,0,1-7.66,7.66H809.35a7.66,7.66,0,0,1-7.66-7.66Z"/><path class="cls-8" d="M789,491.85H912.76a1.31,1.31,0,0,1,.45,2.54l-13.12,4.79h-98.4l-13.13-4.79A1.31,1.31,0,0,1,789,491.85Z"/><path class="cls-8" d="M775.84,506.91h150.1a1.59,1.59,0,0,1,.55,3.08l-15.92,5.8H791.21L775.29,510A1.59,1.59,0,0,1,775.84,506.91Z"/><path class="cls-8" d="M791.21,515.79H910.57a9.29,9.29,0,0,1-9.29,9.29H800.5a9.29,9.29,0,0,1-9.29-9.29Z"/></g><g id="CUPS"><path class="cls-3" d="M680.84,326.23l-.05,32.25a8.79,8.79,0,0,1-9,8.49l-12.22,0a8.79,8.79,0,0,1-9-8.51l0-32.25Z"/><path class="cls-3" d="M680.83,332.73h0c5.68,0,10.28,4.35,10.27,9.7v6.5c0,5.35-4.62,9.68-10.3,9.67h0"/><path class="cls-3" d="M793.63,326.23l0,32.25a8.79,8.79,0,0,1-9.05,8.49l-12.23,0a8.78,8.78,0,0,1-9-8.51l0-32.25Z"/><path class="cls-3" d="M793.62,332.73h0c5.69,0,10.29,4.35,10.28,9.7v6.5c0,5.35-4.62,9.68-10.3,9.67h0"/><path class="cls-5" d="M737.54,326.23l0,32.25a8.79,8.79,0,0,1-9,8.49l-12.22,0a8.79,8.79,0,0,1-9-8.51l0-32.25Z"/><path class="cls-3" d="M737.54,326.23l0,32.25a8.79,8.79,0,0,1-9,8.49l-12.22,0a8.79,8.79,0,0,1-9-8.51l0-32.25Z"/><path class="cls-3" d="M737.53,332.73h0c5.68,0,10.28,4.35,10.27,9.7v6.5c0,5.35-4.62,9.68-10.3,9.67h0"/><circle class="cls-9" cx="713.77" cy="332.81" r="2.24"/><circle class="cls-9" cx="730.91" cy="332.81" r="2.24"/><circle class="cls-9" cx="722.34" cy="332.81" r="2.24"/><circle class="cls-9" cx="708.83" cy="339.69" r="2.24"/><circle class="cls-9" cx="726.84" cy="339.69" r="2.24"/><circle class="cls-9" cx="735.85" cy="339.69" r="2.24"/><circle class="cls-9" cx="717.84" cy="339.69" r="2.24"/><circle class="cls-9" cx="713.77" cy="346.58" r="2.24"/><circle class="cls-9" cx="730.91" cy="346.58" r="2.24"/><circle class="cls-9" cx="722.34" cy="346.58" r="2.24"/><circle class="cls-9" cx="708.83" cy="353.46" r="2.24"/><circle class="cls-9" cx="726.84" cy="353.46" r="2.24"/><circle class="cls-9" cx="735.85" cy="353.46" r="2.24"/><circle class="cls-9" cx="717.84" cy="353.46" r="2.24"/><circle class="cls-9" cx="713.77" cy="360.35" r="2.24"/><circle class="cls-9" cx="730.91" cy="360.35" r="2.24"/><circle class="cls-9" cx="722.34" cy="360.35" r="2.24"/></g></g></g></g><g id="FRIDGE"><rect class="cls-10" x="1145.93" y="372.41" width="304.88" height="689.47" rx="19.44"/><line class="cls-10" x1="1431.08" y1="552.64" x2="1166.58" y2="552.64"/><path class="cls-6" d="M1245.28,682.57l-59.12,2a6.39,6.39,0,0,1-6.61-6.39h0a6.4,6.4,0,0,1,6.61-6.39l59.12,2a4.38,4.38,0,0,1,4.22,4.37h0A4.37,4.37,0,0,1,1245.28,682.57Z"/><rect class="cls-3" x="1209.82" y="423.77" width="39.68" height="39.68"/><rect class="cls-4" x="1213.63" y="427.21" width="32.06" height="27.06"/><rect class="cls-11" x="1282.85" y="423.77" width="54.71" height="79.87"/><rect class="cls-9" x="1291.03" y="442.17" width="4.59" height="2.39"/><rect class="cls-9" x="1299.91" y="442.17" width="29.45" height="2.39"/><rect class="cls-9" x="1291.03" y="449.24" width="4.59" height="2.39"/><rect class="cls-9" x="1299.91" y="449.24" width="29.45" height="2.39"/><rect class="cls-9" x="1291.03" y="456.32" width="4.59" height="2.39"/><rect class="cls-9" x="1299.91" y="456.32" width="29.45" height="2.39"/><rect class="cls-9" x="1291.03" y="463.39" width="4.59" height="2.39"/><rect class="cls-9" x="1299.91" y="463.39" width="29.45" height="2.39"/><rect class="cls-9" x="1291.03" y="477.54" width="4.59" height="2.39"/><rect class="cls-9" x="1299.91" y="477.54" width="29.45" height="2.39"/><rect class="cls-9" x="1291.03" y="470.46" width="4.59" height="2.39"/><rect class="cls-9" x="1299.91" y="470.46" width="29.45" height="2.39"/><rect class="cls-9" x="1307.5" y="420.9" width="3.81" height="6.31"/></g><g id="PLANTS"><g class="cls-12"><path class="cls-13" d="M1340.05,324c-19.18-.5-12.34-26.64-33.08-30.6-17,5.48-28,26.82-29.23,29.24a76.68,76.68,0,0,0,.74,8.5l-1,.16h32.2V349.5c0,13.72-11.12,22-24.83,22h-9.51c-13.71,0-24.83-8.24-24.83-22V331.26h26a103,103,0,0,1-.77-17.46,70.59,70.59,0,0,0-4.17-21.12,54.3,54.3,0,0,0-7.42-13.78c-15.43-11.52-49.3,3-55.93-10.73-7.27-15.05,8.56-32.17,31.14-24.91,18.47,6,25.93,28.77,28,36.86a57.63,57.63,0,0,1,6,11.94,68.91,68.91,0,0,1,3.09,11.27c.1-.85.21-1.71.34-2.59a113.25,113.25,0,0,1,2.26-11.61c-4.91-43,9.68-62.45,16.29-68.81s17.38-10.53,27,1.92,5.45,30.74-23,50.85A104.11,104.11,0,0,0,1280.93,290c-1,3.89-1.64,7.58-2.12,10.94a120.69,120.69,0,0,0-1.1,12.6c.1,2.52,0,4.07,0,4.24h-.09c0,.28,0,.57,0,.84a85.5,85.5,0,0,1,7.43-11c6.34-7.89,13.29-13.28,20.36-15.84,4.16-3.61,18.89-14,43.42-5.73C1378.18,296,1360,324.48,1340.05,324Z"/></g><path class="cls-14" d="M1273.59,288.68a101.83,101.83,0,0,1,20-18.72c28.44-20.11,32.59-38.39,23-50.84s-20.24-8.41-27-1.93S1267.75,243.77,1273.59,288.68Z"/><path class="cls-14" d="M1298.34,289.85s15.33-16.74,44.65-6.88,11.17,38.38-8.81,37.87S1322.46,291.94,1298.34,289.85Z"/><path class="cls-14" d="M1262.19,279.86s-6.11-32.46-28.69-39.73S1195.1,250,1202.36,265,1249.62,261.2,1262.19,279.86Z"/><path class="cls-15" d="M1271.65,328.13s-8.57-51.67,28.28-88"/><path class="cls-15" d="M1270.88,319.28s26.72-56.31,64.86-17.91"/><path class="cls-15" d="M1270.88,314.61s2.84-48-42.31-58.65"/><path class="cls-9" d="M1244.68,328.13h59.16a0,0,0,0,1,0,0v18.13a24.94,24.94,0,0,1-24.94,24.94h-9.28a24.94,24.94,0,0,1-24.94-24.94V328.13a0,0,0,0,1,0,0Z"/><path class="cls-16" d="M163.74,962.13S166.2,794.54,244.4,695.2c0,0-40.33,56.48-53.29,266.93Z"/><path class="cls-16" d="M179.74,962.13s17.56-179.28-76.33-246.35c0,0,76.91,70.07,43.89,246.35Z"/><path class="cls-16" d="M169.48,959.62s-.59-160-85.73-198.06c0,0,85.14,61.9,57.69,198.06Z"/><path class="cls-17" d="M155.09,962.13s-20-178.9,44.24-241.48c0,0-35.59,70.86-19.59,241.48Z"/><path class="cls-17" d="M176.3,962.13s0-140.27,80.62-166.52c0,0-65.33,71.33-55.61,166.52Z"/><path class="cls-17" d="M136.47,962.13S148,887.5,89.29,854.05c0,0,68.55,15.09,65.8,108.08Z"/><rect class="cls-10" x="118.6" y="961.26" width="100.58" height="100.58" rx="13.5"/></g><g id="LAMP"><rect class="cls-3" x="593.57" y="130.73" width="306.77" height="7.61" rx="3.21"/><line class="cls-3" x1="629.78" y1="138.37" x2="629.78" y2="152.39"/><circle class="cls-4" cx="629.78" cy="174.73" r="17.89"/><path class="cls-3" d="M609.47,162a25.55,25.55,0,0,1,40.61,0"/><line class="cls-3" x1="746.63" y1="138.16" x2="746.63" y2="152.17"/><circle class="cls-4" cx="746.63" cy="174.52" r="17.89"/><path class="cls-3" d="M726.32,161.77a25.55,25.55,0,0,1,40.61,0"/><line class="cls-3" x1="864.06" y1="138.16" x2="864.06" y2="152.17"/><circle class="cls-4" cx="864.06" cy="174.52" r="17.89"/><path class="cls-3" d="M843.75,161.77a25.55,25.55,0,0,1,40.61,0"/></g></g></g></svg>