<svg id="Layer_1" data-name="Layer 1" xmlns="http://www.w3.org/2000/svg" viewBox="0 0 1060 1169"><defs><style>.cls-1{fill:#41465a;}.cls-2{fill:#e4f7ff;}.cls-15,.cls-3,.cls-6,.cls-8{fill:#fff;}.cls-12,.cls-16,.cls-3,.cls-8{stroke:#f1b104;}.cls-19,.cls-20,.cls-3{stroke-linejoin:round;}.cls-12,.cls-14,.cls-16,.cls-19,.cls-20,.cls-3,.cls-5,.cls-8{stroke-width:3px;}.cls-12,.cls-4{fill:#ffe6aa;}.cls-14,.cls-16,.cls-19,.cls-20,.cls-5{fill:none;}.cls-5{stroke:#948900;}.cls-12,.cls-14,.cls-16,.cls-5,.cls-8{stroke-miterlimit:10;}.cls-7{fill:#b0a81f;}.cls-9{fill:#3a193f;}.cls-10{fill:#f1b104;}.cls-11{fill:#ffb3a4;}.cls-13{fill:#d6eaf2;}.cls-14,.cls-20{stroke:#41465a;}.cls-15{opacity:0.85;}.cls-17{fill:#2b303f;}.cls-18{fill:#6db1ba;}.cls-19{stroke:#e2564b;}.cls-19,.cls-20{stroke-linecap:round;}.cls-21{fill:#fff4de;}.cls-22{fill:#242854;}</style></defs><circle class="cls-1" cx="765.54" cy="445.89" r="17.84"/><circle class="cls-1" cx="712.54" cy="439.89" r="17.84"/><g id="PICTURE"><rect class="cls-2" x="758.46" y="149.06" width="140.21" height="140.21"/><rect class="cls-3" x="752.25" y="142.85" width="140.21" height="140.21"/><rect class="cls-4" x="774.58" y="165.18" width="95.55" height="95.55"/><path class="cls-5" d="M822.86,191.59s2.62-8.69-3.49-11.34"/><path class="cls-6" d="M835.81,205.25a23.87,23.87,0,0,0,3.61,9.16,20.53,20.53,0,1,1-34.31.26,25.44,25.44,0,0,0,3.79-9.42l.12-.71c.15-.86.24-1.72.32-2.59a11.79,11.79,0,0,1,11.75-10.73h2.52A11.81,11.81,0,0,1,835.37,202c.07.87.16,1.73.31,2.59Z"/><path class="cls-7" d="M824,191.13s-.64-8,10.82-11.57C834.8,179.56,836.39,193.89,824,191.13Z"/></g><g id="CHAIR"><path class="cls-8" d="M689.1,778.29l-33.37,311.83a3.49,3.49,0,0,0,3.47,3.87h0a3.5,3.5,0,0,0,3.43-2.83l54.25-312.87Z"/><path class="cls-8" d="M817.06,778.29l33.37,305.82A3.5,3.5,0,0,1,847,1088h0a3.5,3.5,0,0,1-3.44-2.83L789.28,778.29Z"/><rect class="cls-8" x="662.08" y="759.14" width="179.35" height="19.14" rx="8.07"/></g><g id="GIRL"><g id="LEGS"><path id="LEFT_LEG" data-name="LEFT LEG" class="cls-9" d="M850.89,753.79c-1,6.85-45.41,3.15-141.7,4.29a2.74,2.74,0,0,1-.56.06c-18,0-32.55-27.32-33-98.41s25.62-74.82,34.73-74.43c26.9,1.12,28.79,40,28.79,75a209.94,209.94,0,0,1-5.82,49c18.38,7,21-2.59,53.06,5C821.12,722.59,851.66,748.34,850.89,753.79Z"/><g id="RIGHT_LEG" data-name="RIGHT LEG"><path id="SHOES" class="cls-10" d="M891.68,746.91c3.79,1.75,9.63-.28,13-.33,8-.13,9.63,4.42,9.63,4.42L895.4,793.13s-7.19-2.06-5.78-14.54c1.47-13,2.11-18.64-5-20.76S885.42,744,891.68,746.91Z"/><path id="LEG" class="cls-11" d="M884.58,757.65c-20.32,1.1-61.7-.35-126.7.43a2.76,2.76,0,0,1-.57.06c-28.9,0-32.55-27.32-33-98.41s25.61-74.82,34.72-74.43c26.9,1.12,28.79,40,28.79,75a209.66,209.66,0,0,1-6.32,51c15.83,4.81,21.52-4.59,53.57,3,34.71,8.23,54.85,27.24,57.27,34.62C893.07,751.12,894.36,757.13,884.58,757.65Z"/><path id="SHADOW" class="cls-9" d="M787.84,660.34a210,210,0,0,1-4.53,43.29,340.47,340.47,0,0,1-57.79.29c-.79-12.31-1.08-27-1.19-44.19-.44-71.09,25.61-74.81,34.72-74.43C786,586.42,787.84,625.31,787.84,660.34Z"/></g></g><g id="LEFT_HAND" data-name="LEFT HAND"><path id="HAND" class="cls-11" d="M660.89,547.41c26.48-18.53,55.63-49,58.34-60.86,3.28-14.36-5.76-30.57-16.79-21.19-16.09,13.69-41.09,38.3-52.4,52.87-16.58-16.31-52.35-49.12-63.25-42.3-4.62,2.89,45,64.56,54.4,72.49C646.61,553,656.09,550.76,660.89,547.41Z"/><g id="PACK"><rect class="cls-12" x="535.44" y="539.45" width="82.52" height="11.93" transform="translate(-214.65 483.51) rotate(-38.93)"/><path class="cls-10" d="M612.54,524.13l-4.24,3.43,0,0a6,6,0,0,1-7.46-9.31l4.24-3.43Z"/><polygon class="cls-8" points="512.32 531.55 540.85 566.7 605.04 514.85 576.51 479.7 512.32 531.55"/><circle class="cls-4" cx="605.45" cy="525.1" r="1.26"/><circle class="cls-4" cx="613.8" cy="531.98" r="1.26"/><circle class="cls-4" cx="619.09" cy="548.98" r="1.26"/><circle class="cls-4" cx="612.79" cy="553.4" r="1.26"/><circle class="cls-4" cx="620.35" cy="563.44" r="1.26"/><circle class="cls-4" cx="623.55" cy="557.83" r="1.26"/><circle class="cls-4" cx="610.26" cy="544.23" r="1.26"/><circle class="cls-4" cx="609" cy="534.51" r="1.26"/><circle class="cls-4" cx="613.44" cy="536.04" r="0.9"/><circle class="cls-4" cx="610.86" cy="530.72" r="0.9"/><circle class="cls-4" cx="616.53" cy="540.92" r="0.9"/><circle class="cls-4" cx="618.07" cy="557.36" r="0.9"/><circle class="cls-4" cx="627.66" cy="572.99" r="0.9"/><circle class="cls-4" cx="619.09" cy="567.97" r="0.9"/><circle class="cls-4" cx="625.85" cy="564.35" r="0.9"/><circle class="cls-4" cx="614.34" cy="567.97" r="0.9"/><circle class="cls-4" cx="614.34" cy="546.32" r="0.9"/><circle class="cls-4" cx="624.45" cy="550.63" r="0.9"/><circle class="cls-4" cx="610.86" cy="556.93" r="0.9"/><circle class="cls-4" cx="606.72" cy="521.87" r="0.6"/><circle class="cls-4" cx="610.26" cy="540.01" r="0.6"/><circle class="cls-4" cx="610.26" cy="540.01" r="0.6"/><circle class="cls-4" cx="612.54" cy="548.98" r="0.6"/><circle class="cls-4" cx="618.67" cy="542.96" r="0.6"/><circle class="cls-4" cx="622.14" cy="546.32" r="0.6"/><circle class="cls-4" cx="617.43" cy="563.44" r="0.6"/><circle class="cls-4" cx="612.79" cy="561.38" r="0.6"/><circle class="cls-4" cx="624.15" cy="566.47" r="0.6"/><circle class="cls-4" cx="622.29" cy="570.89" r="0.6"/><circle class="cls-4" cx="626.45" cy="561.38" r="0.6"/><circle class="cls-4" cx="611.52" cy="565.25" r="0.6"/><circle class="cls-4" cx="617.43" cy="571.49" r="0.6"/><circle class="cls-4" cx="621.53" cy="552.4" r="0.6"/><circle class="cls-4" cx="615.93" cy="561.38" r="0.6"/><circle class="cls-4" cx="615.93" cy="554.67" r="0.6"/></g><path id="ARM" class="cls-11" d="M589.14,492.73c1.54.1,6.88-2.29,7.81-6.91,1.3-6.48,6.73-5.48.62-8.94-5.64-3.19-21.68-3.26-25.31-2.12s-8.44,5.61-8.88,6.49-3.23,7.43-3.23,7.43,6.06,4.35,9.62,1a14,14,0,0,1,11.09-3.8,7.56,7.56,0,0,1,4.89,2.66Z"/></g><path id="DRESS" class="cls-13" d="M756.08,460.19c7.85,2.27,17.39,6.21,23.78,52.48s38,173.09,38.55,176.28S692.08,701.29,650.6,674.17c0,0,37.33-180.84,50.12-205.39,3.36-6.45,13.94-9.16,23.6-9.95S744.28,456.77,756.08,460.19Z"/><g id="HEAD"><g id="NECK"><path class="cls-11" d="M747.54,437.86s-2.8,11.88,8.54,22.33c0,0-26.47,13.21-44,1.1,0,0,9.52-10.54,8.49-23.43Z"/><path class="cls-9" d="M749.24,450.76c-8,5.85-20.69,11.94-33.78,5.85,2.62-4.28,5.72-11.1,5.11-18.75h27A22.27,22.27,0,0,0,749.24,450.76Z"/></g><path id="FACE" class="cls-11" d="M760,439.08s-28.14,27.66-48,5.6c-16.9-18.81,7.59-63,32.78-52C765.63,401.74,760,439.08,760,439.08Z"/><g id="HAIR"><path class="cls-1" d="M738.48,395.45s.29,25.29,21.66,34.39l-.71,13.69s20.48-.29,22.88-17c3.73-25.94-8.61-42.26-25.32-45.64s-45.12-3-48.6,16.18c-.75,4.13.53,18.26.53,18.26S717,390.92,738.48,395.45Z"/><path class="cls-14" d="M738.48,394.25S729.8,418.94,752.33,428"/></g><path id="EAR" class="cls-11" d="M758.86,439.57s10.83-1,9.79-6-9.07-3.7-9.07-3.7Z"/></g><g id="RIGHT_HAND" data-name="RIGHT HAND"><g id="BOWL"><path class="cls-15" d="M689.38,589a60.31,60.31,0,0,1-69.91,48.88h0A60.32,60.32,0,0,1,570.59,568Z"/><path class="cls-16" d="M689.38,589a60.31,60.31,0,0,1-69.91,48.88h0A60.32,60.32,0,0,1,570.59,568Z"/><path class="cls-4" d="M660.06,625.48a53.15,53.15,0,0,1-67.26-5.22c2.39-3,18.61,8.33,34.82-.33C656.35,604.6,659.76,623.23,660.06,625.48Z"/></g><g id="HAND-2" data-name="HAND"><path class="cls-11" d="M769.46,483.36c2.17-14.57-15-18.41-24.34-5.28-8.7,12.26-26.29,67.62-26.29,67.62-6.77,3.56-78.13,51.25-75.74,58.88,1.33,4.25,55.93-14,89.45-33.86C739.16,566.47,763.79,521.26,769.46,483.36Z"/><path class="cls-11" d="M651,605c-2.76,1.24-20.17,8.56-24,8.38s-11.34-5.36-12-6.11-3.37-4.94-3.37-4.94,2.92-3,5.59,0c3.17,3.57,8.84,2.7,11.83,1.5,1.25-.5,3.15-2.35,2.19-3.93s-5.82.19-7.32-.15a4.5,4.5,0,0,1-3-3l9.15-3c1.47-.48,12-.05,18.06,2.66S657.44,602.1,651,605Z"/></g></g></g><g id="MAN"><g id="LEGS-2" data-name="LEGS"><g id="RIGHT_LEG-2" data-name="RIGHT LEG"><g id="SHOES-2" data-name="SHOES"><path class="cls-17" d="M332,1061.49c0,10.16-7.83,13.87-7.82,31.9h80s1.43-18.6-18.9-19.17c-17.44-.49-30.62-11.16-30.43-12.73S332,1061.49,332,1061.49Z"/><path class="cls-18" d="M323.57,1091.54h81.14a0,0,0,0,1,0,0v1.78a2.47,2.47,0,0,1-2.47,2.47H326a2.47,2.47,0,0,1-2.47-2.47v-1.78A0,0,0,0,1,323.57,1091.54Z"/><path class="cls-18" d="M360.45,1079a1.07,1.07,0,0,1-.25,0,1.19,1.19,0,0,1-.93-1.42c.06-.3,1.55-7.27,6.1-9.32,2.13-1,4.49-.71,7,.75a1.2,1.2,0,1,1-1.2,2.08c-1.86-1.06-3.45-1.27-4.85-.64-2.86,1.29-4.39,5.94-4.74,7.62A1.2,1.2,0,0,1,360.45,1079Z"/><path class="cls-18" d="M370.66,1079.62a1,1,0,0,1-.3,0,1.2,1.2,0,0,1-.86-1.47c.06-.21,1.43-5.33,5.47-7.21,2.24-1,4.79-.88,7.58.46a1.2,1.2,0,0,1-1,2.17c-2.11-1-4-1.16-5.52-.45-3,1.41-4.15,5.6-4.16,5.64A1.22,1.22,0,0,1,370.66,1079.62Z"/></g><path id="PANT" class="cls-1" d="M370.73,1057.72a78.43,78.43,0,0,1-18.31,4.4c-10.64,1.37-30.12-1.4-30.12-1.4-20.47-32.14-41.73-124.4-38.28-200.26,2-42.85,26.76-61.59,10.81-99.48-14.08-31.24-63.53-117.09-71.66-187.74-3-25.68,1.17-44.48,8.94-57.86,5.13.74,10.22,1.41,15.22,2,34.06,4.26,64.29,6.1,78.53,5.92,16.59,31.81,34.81,90.06,47.45,205.3l3.38,49.65C378.33,803,370.64,926.17,370.73,1057.72Z"/></g><g id="LEFT_LEG-2" data-name="LEFT LEG"><g id="SHOES-3" data-name="SHOES"><path class="cls-17" d="M148.48,1061.49c0,10.16-7.83,13.87-7.83,31.9h80.63s1.43-18.6-18.9-19.17c-17.44-.49-29.44-11.16-29.25-12.73S148.48,1061.49,148.48,1061.49Z"/><path class="cls-18" d="M140.65,1091.54h81.14a0,0,0,0,1,0,0v1.78a2.47,2.47,0,0,1-2.47,2.47H143.13a2.47,2.47,0,0,1-2.47-2.47v-1.78A0,0,0,0,1,140.65,1091.54Z"/><path class="cls-18" d="M178.33,1079.62l-.24,0a1.19,1.19,0,0,1-.93-1.42c.06-.29,1.55-7.27,6.1-9.32,2.13-1,4.49-.71,7,.75a1.2,1.2,0,1,1-1.2,2.08c-1.86-1.06-3.45-1.27-4.85-.64-2.86,1.29-4.39,5.94-4.74,7.62A1.21,1.21,0,0,1,178.33,1079.62Z"/><path class="cls-18" d="M188.55,1080.22a1,1,0,0,1-.3,0,1.2,1.2,0,0,1-.86-1.47c.05-.21,1.43-5.33,5.47-7.2,2.24-1,4.79-.89,7.58.45a1.2,1.2,0,0,1-1,2.17c-2.11-1-4-1.16-5.52-.44-3,1.4-4.15,5.59-4.17,5.63A1.2,1.2,0,0,1,188.55,1080.22Z"/></g><path id="PANT-2" data-name="PANT" class="cls-1" d="M255.78,743.26c-.54,5.09-3.15,22.51-5.11,34-4.91,28.86-68.87,272.15-70.3,284.27,0,0-5.8,1.8-17.12,2.14a256.75,256.75,0,0,1-25.73-1c-12.55-35.19-23.24-128-6.25-198,9.11-37.57,34.93-60.5,36.21-93.38-6-32.8-34.84-134.84-26.73-206.59,3.39-29.94,13.95-49.5,27-61.56,25.12,6.3,53.49,11,79.61,14.25C259.54,549.46,270,611,255.78,743.26Z"/></g></g><g id="RIGHT_HAND-2" data-name="RIGHT HAND"><g id="HAND-3" data-name="HAND"><path class="cls-11" d="M461,481.9C369.76,411,360,333.13,358.22,313.48c-2.55-28.66,12.29-51.42,51.14-27.63,33.46,20.47,67.72,94.06,88.81,131.64,42-38.1,101.85-72.2,108.24-76.46,15-10,18.23-.3,10.35,10.07-9.09,12-71.79,118.11-102.68,136.47C502.67,494.35,481.26,497.61,461,481.9Z"/><path class="cls-9" d="M477,378.16c-18.47,31.3-52.82,48.78-66.62,54.81-43.23-54.16-50.86-105-52.15-119.49-2.55-28.66,12.29-51.41,51.14-27.64C433.18,300.42,457.4,341.9,477,378.16Z"/><path class="cls-11" d="M630.81,314.15c-1,3.18-5.24,7.72-1.74,8.19,1.81.24,15.17,0,16.07,5.05a10.58,10.58,0,0,1-1.34,6.88,7.37,7.37,0,0,1-.45,7.86c1.34,2.91,1.3,6.42-.12,7.76,0,0,2,7.41-1.1,8.61-9.68,3.74-26.39,1.85-32,.25-4.87-1.39-8.82-6.11-8.82-16.65,0-4.32,5.81-14.77,9.69-18.91,1.59-1.69,7.48-8.5,9.41-10.32a24.56,24.56,0,0,0,6.08-9.59S633.55,305.26,630.81,314.15Z"/><path class="cls-19" d="M641.83,326.2c0,2.23-13.4.76-15.8.93-3.39.24-4,7.31.38,7.24a89.48,89.48,0,0,0,17.54,0"/><path class="cls-19" d="M643.24,342.13c-14.51.81-18.24,0-18.24,0-2.11.11-3.71-7.54,1.41-7.76"/><path class="cls-19" d="M642.54,349.89c-13.7,1-18.24,0-18.24,0-2-.05-3.38-7.86.7-7.76"/><path class="cls-19" d="M628,350.33s-4.69-1.13-5,1.84c-.63,5.27,1.83,6.2,14.16,5.73"/></g><path id="T-SHIRT" class="cls-10" d="M401.94,425.57S472.67,390,479.6,366.76c0,0-39.92-67.78-77.61-87.06S314.6,294.24,401.94,425.57Z"/></g><path id="TORSO" class="cls-10" d="M211.24,549c-64.86-16.39-78.37-25.14-47.41-68.78C188.54,445.39,192.7,313.39,226,270.82c32.65-41.76,79.22-33,95.16-31.06,0,0,27.12-.89,78.25,36.8,65.2,48.07,28.06,104.12,19.05,122.74-5.5,11.37-28.28,48.49-85.13,112.79-8.33,9.41-.21,28.75,1.19,32.56S282.38,567,211.24,549Z"/><g id="HEAD-2" data-name="HEAD"><g id="NECK-2" data-name="NECK"><path class="cls-11" d="M355.75,194.32s-7.38,27.61-36.13,45.76c0,0,25.8,29.62,74.16,32.48,0,0-21-19.4,7.63-57.74Z"/><path class="cls-9" d="M356.75,194.76c-.74,1.68-1.34,3.09-1.74,4.12,0,0-5,16.88.51,30.38,4.26,10.49,20.91,26.39,29.9,25.76.14-9.22,4.6-25,16-40.2Z"/></g><path id="FACE-2" data-name="FACE" class="cls-11" d="M354.71,198.09S358.15,215.8,362,222c6.73,10.84,23.87,21.26,31,20.58,4.9-.47,11.44-.51,22-21.58,3-6,16.43-44.52,14.78-46.79S383,149,378.46,153.07,357.88,190.05,354.71,198.09Z"/><g id="HAIR-2" data-name="HAIR"><path class="cls-1" d="M359.89,186.64s9,4.51,13.09-12c3.66-14.71,7.82-16.29,23.28-3.64,12.58,10.3,39.76,22.22,49.78,9.68,9.18-11.5,1.39-20.75-7.79-19.88-11.18,1.05-14.21-23.86-38.45-28.3C380.44,128.92,373,144.12,373,144.12s-9.57-7-16.85,3.64c-9.18,13.38-1.58,50.56-1.58,50.56Z"/><path class="cls-20" d="M392.53,165c12.44,12.55,32,28.1,44.08,22.9"/><path class="cls-14" d="M373.26,144.9s-1.61-7.49-9-6.17"/></g><path id="EAR-2" data-name="EAR" class="cls-11" d="M360.4,186.87s-2.26-7.63-8.22-5.53c-4.45,1.57,2.29,17.3,2.29,17.3Z"/></g><g id="APRON"><path id="SHADOW-2" data-name="SHADOW" class="cls-17" d="M247.33,517.42c34,4.26,64.29,6.1,78.53,5.92h0a222.53,222.53,0,0,1,9.88,22c4,16.64,11.54,41.2,19.29,66.31l16.86,104.53c-16.18,10.48-53.5,17.18-90.25,17.87-6.17-12.36-13.45-27-20.74-43q-1.5,19.88-4,42.51c-38-2.32-69.6-12.15-67.81-32.24,10.49-118-11.22-181.5-18.6-197.47"/><path id="APRON-2" data-name="APRON" class="cls-21" d="M303.2,237.49s70.26,109.31-28.53,181.83c-92.68,68-106.77,54-106.77,54l-8.63,13.63s49.13,80,42.1,207.65c-2.4,43.56,180.45,37.64,178.82,7.09S327.14,522.56,333.3,512.09s84.37-79.52,90.07-142.27c4.52-49.73-15.93-86.77-15.93-86.77l-13.59-11.4s17.31,48.26,8.13,83.7c0,0-43.21-6.11-46.66-8.14s-11.79-72.12-34.47-107.13C316.45,233.29,303.2,237.49,303.2,237.49Z"/></g><g id="LEFT_HAND-2" data-name="LEFT HAND"><path class="cls-12" d="M445.92,609.6h57a12.53,12.53,0,0,1,12.53,12.53v4.66A12.53,12.53,0,0,1,503,639.32h-57a0,0,0,0,1,0,0V609.6A0,0,0,0,1,445.92,609.6Z"/><g id="HAND-4" data-name="HAND"><path class="cls-11" d="M417.1,594.06c1.77,2.89,5,4.88,10,4.29,6.77-.8,27.57-2.61,35.72,6.56,5.25,5.9,9.92,10.14,9.92,10.14s-4.14,4.3-9.75,1.84c-9.79-4.28-22.18.76-26.25,3s-16.95,4.82-29.46-8S417.1,594.06,417.1,594.06Z"/><path class="cls-11" d="M291.76,512.2h0c37.7,44.18,111.53,97.42,118.77,102.37,5.74,3.93,17.75-3.73,10.37-14.46-7.82-11.4-59.22-103.35-89.21-135.46.57-39.79,3.85-156.28-19-193.9-18.44-30.42-63.07-10.27-72.63,16.87C227.32,323.87,225.24,395,273.33,485.23,275.74,489.76,284.3,504,291.76,512.2Z"/><path class="cls-9" d="M331.78,388.15c-26,10.89-67.93,14.77-90.12,16.1C228.2,352.73,231.5,312,240.09,287.62c9.56-27.14,54.18-47.28,72.63-16.87C326.23,293,330.59,342.89,331.78,388.15Z"/></g><path id="T-SHIRT-2" data-name="T-SHIRT" class="cls-10" d="M226.8,392s70.05,4.69,106.31-11.2c0,0,8.48-135.32-56.32-131C199,255,226.8,392,226.8,392Z"/><circle class="cls-8" cx="445.92" cy="624.41" r="14.81"/><rect class="cls-12" x="426.68" y="620.73" width="18.64" height="7.21" rx="3.04"/></g></g><g id="TABLE"><rect class="cls-8" x="327.56" y="639.92" width="657.14" height="23.33" rx="9.83"/><rect class="cls-8" x="934.29" y="663.24" width="22.49" height="430.74"/><rect class="cls-8" x="355.48" y="663.24" width="22.48" height="430.74"/><polygon class="cls-10" points="355.48 663.24 377.96 663.24 377.96 672.86 355.48 670.46 355.48 663.24"/><polygon class="cls-10" points="956.78 663.24 956.78 673.46 934.29 670.46 934.29 663.24 956.78 663.24"/></g><path class="cls-20" d="M396.52,181.09s-4.58-3.54-12.47,0"/><ellipse class="cls-22" cx="389.48" cy="192.28" rx="3.56" ry="2.75" transform="matrix(0.17, -0.98, 0.98, 0.17, 132.84, 542.71)"/><ellipse class="cls-22" cx="414.75" cy="198.65" rx="3.56" ry="2.75" transform="translate(126.36 556.86) rotate(-76.76)"/><polyline class="cls-19" points="406.5 191.5 407.5 209.5 401.41 211.71"/><path class="cls-20" d="M385.5,211.5s0,8,6,10"/><circle class="cls-11" cx="358.5" cy="188.5" r="10"/><ellipse class="cls-22" cx="716.67" cy="415.04" rx="3.01" ry="2.5" transform="translate(76.38 940.3) rotate(-69.44)"/><ellipse class="cls-22" cx="733.17" cy="420.54" rx="3.01" ry="2.5" transform="translate(81.93 959.32) rotate(-69.44)"/><polyline class="cls-19" points="725.39 415.04 717.5 423.5 720.74 429.69"/><path class="cls-20" d="M733.56,410s3.94-.52,7.94,3.48"/><path class="cls-20" d="M719.5,435.5A12.51,12.51,0,0,0,732.35,433"/><path class="cls-10" d="M762,390.28c-8,.56-14.94-6.2-14.94-6.2s6-7.67,13.92-8.24S775.91,382,775.91,382,770,389.71,762,390.28Z"/><path class="cls-10" d="M733.26,374.56c3.83,7,13.28,9.25,13.28,9.25s3.25-9.15-.57-16.17-13.28-9.25-13.28-9.25S729.44,367.54,733.26,374.56Z"/><circle class="cls-10" cx="747.81" cy="382.91" r="4.02" transform="translate(-84.5 268.45) rotate(-19.28)"/><path class="cls-10" d="M746.39,385.41s19.19,15.32,17.4,37c.42.26,4,0,4,0s6.39-18.79-10.7-34.08"/></svg>