<svg id="Layer_1" data-name="Layer 1" xmlns="http://www.w3.org/2000/svg" viewBox="0 0 2044 1169"><defs><style>.cls-1{fill:#d6eaf2;}.cls-10,.cls-12,.cls-18,.cls-2,.cls-20,.cls-23,.cls-24,.cls-25,.cls-4,.cls-5,.cls-6{fill:none;}.cls-2{stroke:#f1b104;stroke-miterlimit:10;}.cls-10,.cls-12,.cls-18,.cls-2,.cls-20,.cls-23,.cls-24,.cls-4,.cls-5,.cls-6,.cls-7{stroke-width:3px;}.cls-3{fill:#99c9e5;}.cls-4{stroke:#fff;}.cls-10,.cls-12,.cls-18,.cls-20,.cls-23,.cls-24,.cls-25,.cls-4,.cls-5,.cls-6,.cls-7{stroke-linecap:round;stroke-linejoin:round;}.cls-5{stroke:#99c9e5;}.cls-6,.cls-7{stroke:#cde8ec;}.cls-15,.cls-7{fill:#fff;}.cls-8{fill:#ffba00;}.cls-9{fill:#f9c543;}.cls-10{stroke:#d3a000;}.cls-11{fill:#aea61f;}.cls-12{stroke:#9f9300;}.cls-13{fill:#b57e6f;}.cls-14{fill:#3a193f;}.cls-16{fill:#84abd6;}.cls-17{fill:#a1cbe2;}.cls-18{stroke:#32323c;}.cls-19{fill:#fff4de;}.cls-20{stroke:#40465c;}.cls-21{fill:#f1b104;}.cls-22{fill:#32323c;}.cls-23{stroke:#174b64;}.cls-24{stroke:#3a193f;}.cls-25{stroke:#9e2923;stroke-width:2px;}</style></defs><path id="HILL" class="cls-1" d="M204.1,846.22C301.74,538.49,743.4,401.75,876.36,478.7s120,193.06,285.64,180.66,208-204.64,392.35-151.65,249.8,335.51,249.8,335.51"/><g id="TREE"><line class="cls-2" x1="402.2" y1="153.03" x2="402.2" y2="839.51"/><path class="cls-2" d="M557.73,230.5v4a44.65,44.65,0,0,1-44.65,44.65H485.75a22,22,0,0,0-22,22"/><path class="cls-2" d="M513.08,279.18h87.8A41.64,41.64,0,0,0,634.59,262"/><path class="cls-2" d="M362.29,153v94.13A95.92,95.92,0,0,0,390.38,315h0a40.35,40.35,0,0,1,11.82,28.54"/><path class="cls-2" d="M463.93,230.5v62.33a118.37,118.37,0,0,1-37.87,86.79l-1.37,1.27a70.28,70.28,0,0,0-22.49,51.53"/><path class="cls-2" d="M308.72,196.52V369.93a185.91,185.91,0,0,0,61.06,137.75h0a98.69,98.69,0,0,1,32.42,73.14"/><path class="cls-2" d="M216.41,152.45c0,42.68,27.17,69.15,60.69,69.15h31.62"/><path class="cls-2" d="M280.82,334.38v44.56a32,32,0,0,0,32,32h.47"/><path class="cls-2" d="M286.19,396.69H242.05a66.89,66.89,0,0,1-66.89-66.89"/><path class="cls-2" d="M495.44,486.93v21.83a122.12,122.12,0,0,1-35.77,86.35L424.74,630a77,77,0,0,0-22.54,54.41"/><path class="cls-2" d="M531.31,479.86a34.37,34.37,0,0,1-34.37,34.37h-1.63"/><path class="cls-3" d="M512,480.31H587.7s15.65-11.46,2.37-24.53c-8.61-8.47-22.55-3.13-22.55-3.13s14.83-48.67-31.46-53.72S480.85,432.47,488,449.09s-91-22.78-102.69,24c-.89,3.56,31.16,8,61.73,3.26,0,0,9.79,30.57,44.26,24.78C515.49,497.11,512,480.31,512,480.31Z"/><path class="cls-3" d="M186.76,331.91H99s-1.78-44.42,122.87-28.4c0,0,3.52-44.06,70.29-41.83s65.93,71.51,63.26,73.14-61,0-61,0-6.8,33.82-61.71,33.82C196.83,368.64,186.76,331.91,186.76,331.91Z"/><path class="cls-3" d="M595.41,231H444.07c-13.63,0-24.13-12.49-21.27-25.82,1.56-7.29,6.88-14,19.92-16.92,28-6.23,44.07,3.49,44.07,3.49s-25.39-68.89,60.1-68.93c79.24,0,70.64,52.12,69.45,60.54C614.41,197,671,169.07,703,204.68s-24.82,69.75-57.77,61.59S595.41,231,595.41,231Z"/><path class="cls-3" d="M356.59,154H478.18s11.25-20-12.12-29.75-74.49,1.18-74.49,1.18S395,52.12,326.15,57.28c-62.48,4.68-58.69,55.44-58.69,55.44S205.6,97,154.67,135.66c-8.73,6.64-4.67,16.55,6.3,16.55,14.42,0,66.27.55,66.27.55s14.65,51,80.15,44.58C353.44,192.84,356.59,154,356.59,154Z"/><circle class="cls-4" cx="507.32" cy="152.81" r="5.5"/><circle class="cls-5" cx="252.33" cy="95.65" r="5.33"/><circle class="cls-5" cx="155.38" cy="346.19" r="7.73"/><circle class="cls-5" cx="470.05" cy="433.38" r="5.5"/><circle class="cls-4" cx="301.13" cy="90.32" r="10.66"/><circle class="cls-4" cx="627.41" cy="207.14" r="10.61"/><circle class="cls-4" cx="333.23" cy="312.46" r="8"/><circle class="cls-4" cx="470.05" cy="482.17" r="8"/><circle class="cls-4" cx="328.9" cy="76.6" r="3.73"/><circle class="cls-4" cx="604.97" cy="179.89" r="3.85"/><circle class="cls-4" cx="308.72" cy="315.12" r="3.85"/><circle class="cls-4" cx="137.35" cy="320.46" r="3.85"/></g><g id="WAY"><path id="WAY-2" data-name="WAY" class="cls-1" d="M658,845.38c34,0,339.67,9.15,284.48,86s-753.52,65-753.52,65v62.23H1884l-21-28.74S1362.38,998,1443.51,911.26c53.07-56.73-297.22-67-388.51-67S658,845.38,658,845.38Z"/><ellipse class="cls-6" cx="707.9" cy="883.59" rx="48.83" ry="8.26"/><ellipse class="cls-6" cx="792.29" cy="907.92" rx="18.58" ry="4.76"/><line class="cls-7" x1="1514.64" y1="858.37" x2="1871.83" y2="858.37"/></g><g id="CLOUDS_SUN" data-name="CLOUDS &amp; SUN"><circle class="cls-8" cx="1500.35" cy="171.76" r="76.1"/><path class="cls-7" d="M1604.08,405.13c-50.8-10.67-54.59,22.83-54.59,22.83h373.12c4.59-51.17-60.15-40.87-60.15-40.87s7.54-36.69-49.68-49.19-87.48,22-82.72,50.3c0,0-26.83-36.28-71.6-22.13-34.42,10.88.9,34.2-6.34,42.46C1644.67,417,1629.88,410.55,1604.08,405.13Z"/><path class="cls-7" d="M1031.34,365.23H730.12s3.49-30.2,48.21-20.16c60.1,13.49,86.24,4.36,83-15-4.2-25,22.51-55.44,73-44.4s43.87,43.43,43.87,43.43S1035.39,320,1031.34,365.23Z"/><line class="cls-7" x1="782.31" y1="383.17" x2="930.74" y2="383.17"/><path class="cls-7" d="M1224.93,195.15h277.36s-3.46-30-47.86-20c-59.68,13.39-63.91,0-60.68-19.2,4.17-24.8-22.36-59.39-72.52-48.44S1282,176.7,1282,176.7,1233,165.17,1224.93,195.15Z"/><line class="cls-7" x1="1358.05" y1="209.57" x2="1506.48" y2="209.57"/></g><g id="PLANTS"><path class="cls-9" d="M2021.54,843.24s-1-88.3-94.25-84.13c0,0-30.29-194.72-202.71-214.5-209.72-24.06-250.76,208-250.76,208S1275,693.22,1249.49,843.24Z"/><path class="cls-10" d="M2021.54,843.24s-1-88.3-94.25-84.13c0,0-30.29-194.72-202.71-214.5-209.72-24.06-250.76,208-250.76,208S1275,693.22,1249.49,843.24Z"/><path class="cls-10" d="M1706.83,543.16s-66.89,178-10.1,300.08"/><path class="cls-10" d="M1750,549s-18.1,137.95-75,206.29"/><path class="cls-10" d="M1662.19,545.19s-17.49,75.07,15.69,120.22"/><path class="cls-10" d="M1801.92,568.7s-31.79,83.81-81,99.3"/><path class="cls-10" d="M1873,632.11s-151.31,70-169.36,211.13"/><path class="cls-10" d="M1827.26,585.15s-23.91,30.82-13.8,84.48"/><path class="cls-10" d="M1732.81,758.76c35-52.45,152.65-38,165-86.09"/><path class="cls-10" d="M1918.23,723.07s-35.27,12.86-84.6-11.5"/><path class="cls-10" d="M1927.29,759.11c-15.08.81-76.11,23.1-83,84.13"/><path class="cls-10" d="M1961.39,762.33s-33.26,18.82-28,80.91"/><path class="cls-10" d="M1985,772.77s-8.12,48.2-52.14,59.34"/><path class="cls-10" d="M1918.23,760.84s1,35.24,17.18,44.27"/><path class="cls-10" d="M1862.66,798s48.79-7.28,62.44,45.26"/><path class="cls-10" d="M1853.29,812.72s26.33,6.81,44.48-7.61"/><path class="cls-10" d="M2005.34,793s-36.34,9.37-34.75,50.23c0,0,3.72-24.41,22.29-24.94s18,24.94,18,24.94"/><path class="cls-10" d="M1673.87,721.7c0-52.07-98.15-89.59-88.32-147.93"/><path class="cls-10" d="M1521.7,637.91S1550,664.1,1612,635.58"/><path class="cls-10" d="M1616.91,557.44s30.75,4.74,44.48,69.95"/><path class="cls-10" d="M1501.61,672.67s76.23,35.23,60.31,170.57"/><path class="cls-10" d="M1577.31,647.73s24.59,86.16-15.3,127.57"/><path class="cls-10" d="M1491.47,695.22s7.89,22.4,46.6,12.5"/><path class="cls-10" d="M1590.58,843.24s-9.55-54.13,36.09-54.13,47.2,54.13,47.2,54.13"/><path class="cls-10" d="M1584.81,711.57c15.33,2.17,82.88,21.53,97.4,89.61"/><path class="cls-10" d="M1473.82,752.66c17.65,6.1,63.16,37.51,69.53,90.58"/><path class="cls-10" d="M1478.6,843.24s-16.58-54.64-3.25-97.79"/><path class="cls-10" d="M1405.34,741.5s35.57,16.82,23.37,101.74"/><path class="cls-10" d="M1448.93,746.9s3.45,42.86-17.67,55.54"/><path class="cls-10" d="M1769.44,843.24c.53-14.86,15.17-81.82,128.33-74.08"/><path class="cls-10" d="M1341.13,746.9s28.21,47.84,79.12,11.06"/><path class="cls-10" d="M1366.08,843.24s-17.52-17.51-48.3-14.33-34.5,14.33-34.5,14.33"/><path class="cls-10" d="M1418.3,843.24s-8.17-38.92-49.57-33.52-42.46,33.52-42.46,33.52"/><path class="cls-9" d="M162.65,1058.58H589.37c2.12-74.66-87-69.71-87-69.71s-1.44-95.41-129.5-117.47C319.41,862.2,141.42,871.27,162.65,1058.58Z"/><path class="cls-10" d="M162.65,1058.58H589.37c2.12-74.66-87-69.71-87-69.71s-1.44-95.41-129.5-117.47C319.41,862.2,141.42,871.27,162.65,1058.58Z"/><path class="cls-10" d="M359.76,869.78s-43,87.42-4.8,188.8"/><path class="cls-10" d="M325.23,869.53s-6.92,48.51,15.38,73.93"/><path class="cls-10" d="M402.92,878.55S384.81,950.41,339.63,987"/><path class="cls-10" d="M437.55,893.24s-35.38,44.17-60.31,47.43"/><path class="cls-10" d="M262.86,881.58s10.87,87.62,77.75,116.92"/><path class="cls-10" d="M179.33,948.45s48.6-45.9,107.87,0"/><path class="cls-10" d="M348.81,1040.09c0-61.36,126.54-67.42,127.11-115.22"/><path class="cls-10" d="M452.34,902.72S433,920.5,448.13,959.29"/><path class="cls-10" d="M502.33,988.87c-11,.71-68.29,23-69.35,69.71"/><path class="cls-10" d="M521.08,1058.58c-4.78-8-39.53-81.56-131.49-69.71"/><path class="cls-10" d="M531.94,991.55s.46,36.26-29.61,39.17"/><path class="cls-10" d="M425.55,988.87s-10.49,18.81,12,48.77"/><path class="cls-10" d="M377.24,1058.58s0-18.93,17-18.49,18.14,18.49,18.14,18.49"/><path class="cls-10" d="M324.22,1058.58s-17-62.85-78.06-60.08-66.83,60.08-66.83,60.08"/><path class="cls-10" d="M309.31,1058.58s-8-28.86-39.8-30.09-31.85,30.09-31.85,30.09"/><path class="cls-10" d="M249,929.78s-12.92,43.61,15.74,70"/><path class="cls-10" d="M226.55,928.32s-8.28,57.41-63.07,67.56"/><path class="cls-10" d="M290.05,874.18s11.69,32.32-18.82,40.88"/><path class="cls-10" d="M578.88,1019.15s-24.36,1.74-15.34,39.43"/><path class="cls-3" d="M287.2,846.44s57.32-16.27,100.49-55.9c36.89-33.87,66.52-75,113.22-74.31s52.37,48.83,52.37,48.83,21.93-40.33,83.5-24.77,25.48,63.86,53.78,65.38,111.81-42.73,111.81,40.77Z"/><path class="cls-4" d="M557.61,848.36c95.62-87.52,80.61-168.73,80.61-168.73-103,52.07-85.94,167.16-85.94,167.16"/><path class="cls-4" d="M563,846.79s14.23-64.72-46.27-84.89,31.89,84.89,31.89,84.89"/><circle class="cls-5" cx="703.5" cy="777.57" r="7.73"/><path class="cls-2" d="M191.67,622.21s-7.49,131.84,2.47,188.59"/><path class="cls-2" d="M213.31,638.92s-1.47,24.74-23,30.4"/><path class="cls-2" d="M152,666.21S162.21,715,189,737"/><path class="cls-2" d="M134.35,672.22s9.31,14.07,23.76,14.82"/><path class="cls-2" d="M175.37,637.61s4.47,15.66,14.86,17.85"/><circle class="cls-9" cx="191.84" cy="602.99" r="20.28"/><circle class="cls-9" cx="213.7" cy="635.97" r="6.66"/><circle class="cls-9" cx="174.3" cy="635.27" r="5.88"/><circle class="cls-9" cx="133.28" cy="670.99" r="5.33"/><circle class="cls-9" cx="151.51" cy="654.65" r="12.44"/><path class="cls-11" d="M148.5,846.79s-72.62-19.95-57.67-53.43c8.84-19.81,63.68,34.32,63.68,34.32s-50.24-53-42.1-150.35c0,0,60.26,42.79,81.73,112.14,0,0,12-101.55,54.85-136.93,0,0,10.26,23.35-2.83,99.78,0,0,43.16-48.83,70.76-61.92,0,0-17.34,71.12-41.75,104.38,0,0,28.66-14.51,41.75,7.78s-29.72,42.82-29.72,42.82Z"/><path class="cls-12" d="M114,680.53s47.23,131.59,77.66,164.85"/><path class="cls-12" d="M248.45,655.21S215.83,825.66,204.1,845.69"/><path class="cls-12" d="M313.72,694.13s-66.86,121.45-101.18,151"/><path class="cls-12" d="M314.67,799.27s-43,38.73-73.82,46.05"/><path class="cls-12" d="M91.89,793.36s36.79,42.28,74,51.83"/><line class="cls-12" x1="148.5" y1="845.19" x2="287.2" y2="845.19"/><path class="cls-11" d="M1915.71,1047.79s72.62-20,57.67-53.43c-8.84-19.81-63.69,34.32-63.69,34.32s50.25-53,42.11-150.35c0,0-60.27,42.79-81.73,112.14,0,0-12-101.55-54.85-136.93,0,0-10.26,23.35,2.83,99.78,0,0-43.16-48.83-70.76-61.92,0,0,17.34,71.12,41.75,104.38,0,0-28.66-14.51-41.75,7.78s29.72,42.82,29.72,42.82Z"/><path class="cls-12" d="M1950.2,881.53s-47.23,131.59-77.66,164.85"/><path class="cls-12" d="M1815.76,856.21s32.61,170.45,44.34,190.48"/><path class="cls-12" d="M1750.49,895.13s66.86,121.45,101.18,151"/><path class="cls-12" d="M1749.54,1000.27s43,38.73,73.82,46"/><path class="cls-12" d="M1972.32,994.36s-36.8,42.28-74,51.83"/><line class="cls-12" x1="1915.71" y1="1046.19" x2="1777.01" y2="1046.19"/><path class="cls-3" d="M1413.67,1058.58s2-85.12,76.93-85.45c53.08-.24,67.91,24.93,67.91,24.93s-52-87,44.08-106.67,118.29,97.21,161.42,108.8c43.44,11.68,147.09-32.55,120.4,58.39Z"/><path class="cls-4" d="M1657.19,1061.57c-85.27-46.66-74.57-128.91-74.57-128.91,85.59,26.46,78.18,126.81,78.18,126.81"/><path class="cls-4" d="M1653,1061.38s-13.71-48.12,34.53-70.09c43.52-19.82-24.06,67.52-24.06,67.52"/><circle class="cls-5" cx="1518.86" cy="948.45" r="9.06"/><circle class="cls-5" cx="1913.29" cy="1009.45" r="7.73"/><circle class="cls-4" cx="1459.82" cy="1009.45" r="10.61"/></g><g id="BOY"><g id="LEGS"><g id="RIGHT_LEG" data-name="RIGHT LEG"><path id="LEG" class="cls-13" d="M814.88,940.12c-.26,44.26,20.12,103.87,32.9,122.5,8.5,12.39,10.36-.7,10.26-2.65-1.23-24.43,5-71.34-2.65-119.85Z"/><path id="SHADOW" class="cls-14" d="M857,952.43c-13.62,3.08-29.39,4.53-41.31,5.21a168,168,0,0,1-.85-17.52h40.51Q856.35,946.3,857,952.43Z"/><g id="SHOES"><path class="cls-15" d="M884.24,1083.34h-37a26.22,26.22,0,0,1-.15-3.9h37.14A20.7,20.7,0,0,1,884.24,1083.34Z"/><path class="cls-16" d="M884.24,1079.44h-37s0-.29-.11-.79c-.35-2.68-1-11.45,4.53-15.12,4.49-3,14.87-1.61,23.89,1.07S884.24,1079.44,884.24,1079.44Z"/></g></g><g id="LEFT_LEG" data-name="LEFT LEG"><path class="cls-13" d="M736.08,940.12c.71,6.61,21.24,115.89,15.81,120.61s14.63,2.6,15.34,0,25.73-65.61,14.4-120.61Z"/><path class="cls-14" d="M781.63,940.12a138.94,138.94,0,0,1,2.47,18c-20.24.27-35.34-1.72-45.67-3.91-1.32-7.61-2.22-12.83-2.36-14.13Z"/><g id="SHOES-2" data-name="SHOES"><path class="cls-15" d="M773.72,1083.34h-51.8a10.59,10.59,0,0,1-.28-3.9h52C773.67,1080.66,773.72,1082,773.72,1083.34Z"/><path class="cls-16" d="M773.25,1079.44H721.92a7.43,7.43,0,0,1-.1-1.09c-.08-2.59.64-9.11,9.47-12.19a136.5,136.5,0,0,1,20.6-5.43s5.61,2.72,15.34,0C767.23,1060.73,772.55,1066.16,773.25,1079.44Z"/></g></g><g id="SHORTS"><path class="cls-17" d="M727.35,839.19c-.19,3-6.33,92.26-6.15,103.76,0,0,20.73,10.1,65.87,9l-.72-32.39s7.79,32.37,11.15,32.47,47.62-.25,72.41-9.46c0,0-14-81.24-22.47-101.31Z"/><path class="cls-18" d="M786.35,919.59c-1.06-4.25-4.42-17-4.42-17l-8.32-1.77"/></g></g><path id="T-SHIRT" class="cls-19" d="M810.66,648.15c3.54,2.84,17.47,11.3,21,15.11,5.57,6,40.12,41.54,40.12,41.54S859.94,727,834.71,736.19c0,0,4.39,40.72,18.2,101.5,4.21,18.53-129.11,5.66-130.52,0s5.41-75.77,11-102.78c0,0-36.48-16.66-36.48-31.71,0,0,36.48-35.83,38.6-38s16.63-11.66,26.3-15.67S810.66,648.15,810.66,648.15Z"/><g id="HANDS"><g id="RIGHT_HAND" data-name="RIGHT HAND"><path id="HAND" class="cls-13" d="M834.71,736.19a36.68,36.68,0,0,0,31.52,19.74c25.56,1.1,67.31-32,67.31-32s13.27-.53,16.46-3.54,7.78-9.2,8-10.8-1.79-12.72-1.79-12.72-3.31.48-3.54,6.38c-.16,3.89-6.82,6.17-9.72,5.11-2-.72-2-2.76,1-4.73a4.32,4.32,0,0,0,1.26-6.39,34.3,34.3,0,0,1-6.17,3.2c-2.37.77-6.85,4.35-7.37,5.08-1.53,2.19-3.34,8.08-3.34,8.08s-31.9,5.34-55.15,9L865,714.43S852.09,729.82,834.71,736.19Z"/><path id="SHADOW-2" data-name="SHADOW" class="cls-14" d="M868.35,717.8s-15.26,15.25-19.2,33.38a36.45,36.45,0,0,1-14.41-14.93l0-.06c17.38-6.37,30.29-21.76,30.29-21.76Z"/></g><g id="LEFT_HAND" data-name="LEFT HAND"><path id="ARM" class="cls-13" d="M676.27,825.81c-2.37,1.66-13.49,9.12-15.19,12.32s-1.14,11.89-.84,12.78,2.11,5.64,2.11,5.64a3.77,3.77,0,0,0,2.23-4.88c-1.38-4.33,2.39-9,4.84-10.9,1-.77,3.93-1.12,4.75.43s-3,4.67-3.44,6.06a4.29,4.29,0,0,0,1,3.91l6.88-6c1.11-1,5.91-9.83,6.63-16.07S681.75,822,676.27,825.81Z"/><path id="HAND-2" data-name="HAND" class="cls-13" d="M707.33,719s-12.56,20.64-16.33,36-17.23,71.43-17.47,72.84,8.5,4,11.09,2.13,33.69-58.41,36.57-63.73c4.87-9,12.19-31.26,12.19-31.26S714.48,725.19,707.33,719Z"/><path id="SHADOW-3" data-name="SHADOW" class="cls-14" d="M733.38,734.91l-.09.25-4.18,12-.06.16s-7.14-16.18-25.6-21.58c2.26-4.13,3.88-6.8,3.88-6.8C714.48,725.19,733.38,734.91,733.38,734.91Z"/></g></g><g id="HEAD"><g id="NECK"><path class="cls-13" d="M802.87,627.09s-1.41,10.21,7.79,21.06c0,0-27.61,15.35-48.86,1.42,0,0,10.63-6.14,9.68-22Z"/><path class="cls-14" d="M803.13,632.57c-6.38,6.7-17.68,14-34.76,9.81a26.31,26.31,0,0,0,3.11-14.76l31.39-.54A20.42,20.42,0,0,0,803.13,632.57Z"/></g><g id="HAIR"><path class="cls-14" d="M803,627.56c26.51,1.49,32.72-25.31,31.54-27.08s-5-12.75-8.49-20.3-11.69-9-11.69-9,.24-12.44-23-17c-28.66-5.68-57,12.11-43.84,26-2.78,4.25-14.12,18.26,3.42,39C756.37,625.54,784.75,629.27,803,627.56Z"/><path class="cls-20" d="M814.32,571.14s4.3-2.82,10.51-.46"/></g><path id="HEAD-2" data-name="HEAD" class="cls-13" d="M768.5,637.3c-20.35-8.48-18.24-39.19-14.48-52.16,20.08,11.48,54.16,2.35,54.16,2.35-3.77,15.35,3.94,20.18,3.94,20.18s6.68-5.38,9.09-1.76c3.63,5.44-7.35,11.31-9.22,12.26C812,618.17,796.71,649.06,768.5,637.3Z"/></g></g><g id="MAN"><g id="LEFT_HAND-2" data-name="LEFT HAND"><path id="HAND-3" data-name="HAND" class="cls-13" d="M1055.23,545.24c-6,43.08-62.76,129.12-67.54,136.17-5.34,7.88-14.78,2.37-12.27-8.08,2.85-11.89,18.1-109.41,32.86-136.76,16-74.93,56.59-164.8,68.77-175.14,17.8-15.12,31.43-10.74,34.7,26.81C1115,425.5,1074.17,516.75,1055.23,545.24Z"/><path id="SHADOW-4" data-name="SHADOW" class="cls-14" d="M1090.19,474.11c-2,4.94-4,9.84-6.1,14.63,0,0-45.7-28.71-49.16-40.68q1.42-3.8,2.85-7.5h0c19.36,18.76,50.69,27.52,50.69,27.52Q1089.42,471.08,1090.19,474.11Z"/><path id="ARM-2" data-name="ARM" class="cls-13" d="M980.54,665.93c-4.21,1.49-23.88,8-27.74,12.06s-6.64,17.24-6.56,18.69S947,706,947,706a5.86,5.86,0,0,0,5.36-6.36c-.26-7,7.31-12.46,11.73-14.22,1.83-.74,6.33,0,6.91,2.61s-6.4,5.71-7.65,7.6c-1.91,2.89-.2,6.22-.2,6.22s10.72-5.17,12.78-6.15,12.88-12.2,16.55-21.21S990.3,662.49,980.54,665.93Z"/></g><g id="LEGS-2" data-name="LEGS"><g id="RIGHT_LEG-2" data-name="RIGHT LEG"><path id="LEG-2" data-name="LEG" class="cls-13" d="M1198.55,785.14c1.4,11.89,13.93,45,17.83,58.78,9,31.77,45.41,169.66,56.37,204.61,13.63,43.45,20.34,17.85,20.34,1.67s23.51-123.28,8.88-176.52c-7.91-28.81-23.37-57.25-24.73-106.4Z"/><path id="SHADOW-5" data-name="SHADOW" class="cls-14" d="M1277.49,773.41c-27.48,15.6-57.13,22.32-75.66,25.18-.8-3.07-3-11.26-3.28-13.45l78.69-17.86Q1277.33,770.4,1277.49,773.41Z"/><path id="SOCK" class="cls-15" d="M1303.59,970.63c-4,37.6-10.5,71.08-10.5,79.57,0,16.18-6.71,41.78-20.34-1.67-4.38-14-12.85-44.45-22-78C1253.86,971.53,1274.32,977.45,1303.59,970.63Z"/><g id="SHOES-3" data-name="SHOES"><path class="cls-21" d="M1216.4,1079.44s-4-13.1,9-17.8c10.23-3.7,39.5-10.34,43.09-21.54,0,0,6.88,6.63,25.67,1.64a45.35,45.35,0,0,1,11.74,37Z"/><path class="cls-21" d="M1282.32,1043.74c.18-1.58.32-19.11-5.25-21.89s-18.26-.18-17.92,2.78,6.87,17.41,8.48,17.78S1282.32,1043.74,1282.32,1043.74Z"/><rect class="cls-15" x="1213.38" y="1078.79" width="95.68" height="5.62" rx="2.38"/><path class="cls-4" d="M1270.36,1057s-2.65-9.47-8.18-9.49c-6.79,0-8.1,3.87-8.1,3.87"/><path class="cls-4" d="M1259.23,1060.89s-1.56-9-7.06-9.49a9.21,9.21,0,0,0-8.66,3.86"/></g></g><g id="LEFT_LEG-2" data-name="LEFT LEG"><path id="SHORTS-2" data-name="SHORTS" class="cls-22" d="M1159,792.77c-1.73,4.06-106-22.82-103.88-32.36,1.11-5,31.11-4.91,58.61,3.28C1138.76,771.15,1161.75,786.22,1159,792.77Z"/><path id="LEG-3" data-name="LEG" class="cls-13" d="M1073.89,758.82c-4.93,1.07-4.69,34.47,0,76.75S1089,1036,1082.24,1047s25.57,1.56,26.62-4.18,44.2-97.2,35.51-154.16c-8.89-58.28,4.79-97.41,6.82-103.68S1110.29,750.91,1073.89,758.82Z"/><path id="SHADOW-6" data-name="SHADOW" class="cls-14" d="M1151.19,785c-.51,1.58-1.76,5.24-3.2,10.76-26-25-58.1-29.44-77-29.52.59-4.48,1.54-7.08,2.86-7.37C1110.3,750.91,1153.22,778.68,1151.19,785Z"/><path id="SOCK-2" data-name="SOCK" class="cls-15" d="M1135.06,969l0,.06c-10.61,37.85-25.58,70.41-26.18,73.76-1,5.74-33.41,15.14-26.62,4.18,3.07-5,2.61-40.18.75-81.13C1083,965.84,1097.7,975.29,1135.06,969Z"/><g id="SHOES-4" data-name="SHOES"><path class="cls-21" d="M1026.09,1079.44s-4-13.1,9-17.8c10.23-3.7,45.06-10.34,48.65-21.54,0,0,6.88,6.63,25.67,1.64,0,0,12.53,18.56,9.51,37Z"/><path class="cls-21" d="M1092,1043.74c.18-1.58.32-19.11-5.25-21.89s-12.7-.18-12.35,2.78,6.86,17.41,8.47,17.78S1092,1043.74,1092,1043.74Z"/><rect class="cls-15" x="1023.07" y="1078.79" width="99.01" height="5.62" rx="2.38"/><path class="cls-4" d="M1076.15,1058.11s-1-11.14-6.5-11.16c-6.79,0-5.32,5.53-5.32,5.53"/><path class="cls-4" d="M1063.35,1062.56s-1-11.14-6.5-11.16c-6.79,0-5.32,5.53-5.32,5.53"/></g></g><g id="SHORTS-3" data-name="SHORTS"><path class="cls-17" d="M1090,590.3c-7.75,21.58-11.41,37.53-18.19,93.9-6.25,51.89-16.18,65.77-16.71,76.21,0,0,64.21-12.53,103.88,32.36l13.77-32.36,10.58,25.84s60.2,6.52,118.65-33.67c0,0-18.26-19.83-23.61-63.57-5.54-45.32-13.38-76.66-23.07-95.28S1092.66,582.86,1090,590.3Z"/><path class="cls-23" d="M1172.74,760.41c-3.34-11-16.91-67.33-19-68.9s-15.66-9.39-15.66-9.39"/><path class="cls-14" d="M1261.42,607.9c-10.3-5.88-39.82-16.55-107.36-3.56-47,9-62-.89-66.2-7.94.67-2,1.38-4,2.13-6.1,2.67-7.44,155.62-15.19,165.3,3.43A118.27,118.27,0,0,1,1261.42,607.9Z"/><path class="cls-15" d="M1266.9,771.75l-3.16,1.06c-.24-.71-6-18-12.73-66.62-6.35-45.48-19.57-107.84-21.24-115.64,1.18,0,2.31-.07,3.4-.08,2.13,10,14.93,70.7,21.14,115.27C1261,753.91,1266.85,771.57,1266.9,771.75Z"/><path class="cls-15" d="M1257.44,775.08l-3.16,1.07c-.24-.72-6-18-12.73-66.62-6.22-44.58-19-108.17-21.13-118.39,1.15-.1,2.27-.19,3.36-.26,2.32,11.43,14.92,74.08,21.07,118.2C1251.57,757.24,1257.39,774.91,1257.44,775.08Z"/></g></g><path id="T-SHIRT-2" data-name="T-SHIRT" class="cls-14" d="M1217.84,330.63c15.32,5.39,41.27,15.31,50.38,22.1s52.22,61.06,52.22,61.06-19,39.67-62.31,54.81c0,0-18.26,43.75-1.31,125.74,0,0-11.83-12.72-100.15,7.86-60.59,14.12-74.91-13-74.54-17.2s22.84-63.68,6.36-116.92c0,0-44.8-12.53-60.36-39.67,0,0,26.75-55.92,39.95-66.59s48.86-20.75,61.25-24.58S1217.84,330.63,1217.84,330.63Z"/><g id="BACKPACK"><path class="cls-21" d="M1255.59,589.62c2.84,12.78,53.1,3.72,35.17-49.14s-32.79-71.1-32.79-71.1S1241.87,527.87,1255.59,589.62Z"/><path class="cls-21" d="M1248,340.35c-9.06,21.14-28.12,79.85,8.32,175.48l-5.72,27.75s-56.37-82.21-22.76-208.3C1229.62,328.55,1248,340.35,1248,340.35Z"/><path class="cls-21" d="M1129.35,337.76c-31.55,53.07-21.88,170.91-35.3,190.11,0,0-20-130.09,8.27-180.47C1107.73,337.75,1133,331.7,1129.35,337.76Z"/></g><g id="HEAD-3" data-name="HEAD"><g id="NECK-2" data-name="NECK"><path class="cls-13" d="M1219.87,331.74s-46.28,27-86,4.39c0,0,22-12.29,24.93-34.48a1.65,1.65,0,0,0,.05-.38l.09-.8a1,1,0,0,0,0-.24c0-.61.1-1.22.12-1.84,0-.78,0-1.58,0-2.39h0l40.79-9.43s0,2.86.35,7.17C1201.34,304.54,1205.19,324.52,1219.87,331.74Z"/><path class="cls-14" d="M1200.85,299.9c-10.17,23.73-36.71,21.22-47.37,17.2a41.33,41.33,0,0,0,5.36-15.45,1.65,1.65,0,0,0,.05-.38c0-.26.07-.53.09-.8a1,1,0,0,0,0-.24c0-.61.1-1.22.12-1.84,0-.79,0-1.59,0-2.39h0l40.79-9.43S1200.45,295.58,1200.85,299.9Z"/></g><path id="FACE" class="cls-13" d="M1204,287.51a24.72,24.72,0,0,1-4.09,8.9c-2.21,3-3.07,4.77-5,6-5,3.28-31.26,12-41.54-2.54-4.83-6.85-7.63-33.07-5.32-53.86,2.48-22.2,48.37-12.57,55.92,6.62C1208.71,264.67,1205.89,279.3,1204,287.51Z"/><g id="HAIR-2" data-name="HAIR"><path class="cls-14" d="M1178.28,244.89c-1.81.24-31.49,7.08-41-4.54s4.68-22.49,18.74-21.13c0,0,1-11.34,18.13-14.69s24.83,3.54,24.9,10c0,0,12.34-4.85,21.55,2.59s5.67,13.07,5.28,20.61,5.4,5.55,5.36,13.43c0,8.4-9.08,8.41-16.4,25-2.81,6.36-7.76,9.1-7.95,6.19s-.4-3.29-1.63-4.94a45.73,45.73,0,0,1-7.15-23.1C1197.69,241.88,1194.22,242.82,1178.28,244.89Z"/><path class="cls-24" d="M1194.47,242.59c-7.67.54-30.31,13.84-53.55,4.7"/></g><circle class="cls-13" cx="1206.07" cy="273.5" r="11.49"/></g><g id="RIGHT_HAND-2" data-name="RIGHT HAND"><path id="HAND-4" data-name="HAND" class="cls-13" d="M1233.58,471.68s31.72,66,78.57,78.52c15.66,4.19,30.87-8.51,32.37-35.3s-34.86-84.44-34.86-84.44c-27.81,32-51.53,38.14-51.53,38.14L1245.32,462Z"/><path id="ARM-3" data-name="ARM" class="cls-13" d="M1229.34,469.83c-4.29-2.45-16.89-16.67-18.89-22s.42-20,1-21.3,4.3-9.23,4.3-9.23a9.42,9.42,0,0,1,2.51,9.12,19.31,19.31,0,0,0,4.87,18.34c1.42,1.43,8.57,2.15,10.13,0s-2.12-7.85-2.55-10.09c-.65-3.42,2.21-5.74,2.21-5.74l9.44,10.9c1.52,1.75,3.39,16.45,3.32,26.17S1238.47,475,1229.34,469.83Z"/><g id="SHADOW-7" data-name="SHADOW"><path class="cls-14" d="M1316.86,442.55h0c-.37.48-23.71,30-46.42,32.42l-12.3-6.38s23.72-6.16,51.53-38.13v0l0,.07,0,.07,6.94,11.66,0,0Z"/><path class="cls-25" d="M1269.88,473.3s28.94,12.07,41,23.39"/></g></g></g><path class="cls-24" d="M1173.84,255.28s4.28-2.4,10.45,1.56"/><ellipse class="cls-14" cx="1177.31" cy="264.7" rx="3.02" ry="2.33" transform="translate(860.1 1428.97) rotate(-87.43)"/><ellipse class="cls-14" cx="1156.12" cy="264.7" rx="3.02" ry="2.33" transform="translate(839.86 1407.8) rotate(-87.43)"/><polyline class="cls-24" points="1165.42 264.89 1164.57 280.15 1169.74 282.02"/><path class="cls-24" d="M1178,285.06s-2.94,6.11-8.26,5.44"/><path class="cls-24" d="M784.54,594.69s4.28-2.4,10.45,1.56"/><path class="cls-24" d="M755.8,594.87s3.74-3.17,10.55-.48"/><ellipse class="cls-14" cx="788.01" cy="604.96" rx="3.02" ry="2.33" transform="translate(148.33 1365.07) rotate(-87.43)"/><ellipse class="cls-14" cx="760.88" cy="603.27" rx="3.02" ry="2.33" transform="translate(124.12 1336.35) rotate(-87.43)"/><path class="cls-24" d="M771.89,614a3,3,0,1,1,0-5.94"/><path class="cls-24" d="M771.47,624.16s7.65,1.54,14-3"/></svg>