<svg xmlns="http://www.w3.org/2000/svg" xmlns:xlink="http://www.w3.org/1999/xlink" viewBox="0 0 1525 1169"><defs><style>.cls-1{fill:#b57e6f;}.cls-2{isolation:isolate;}.cls-3{opacity:0.2;}.cls-16,.cls-20,.cls-29,.cls-30,.cls-33,.cls-35,.cls-39,.cls-4,.cls-40,.cls-9{fill:none;}.cls-11,.cls-26,.cls-32,.cls-35,.cls-4,.cls-7{stroke:#f1b104;}.cls-11,.cls-16,.cls-20,.cls-29,.cls-30,.cls-39,.cls-4,.cls-40,.cls-7,.cls-9{stroke-linecap:round;stroke-linejoin:round;}.cls-11,.cls-16,.cls-20,.cls-26,.cls-32,.cls-33,.cls-35,.cls-39,.cls-4,.cls-40,.cls-7,.cls-9{stroke-width:3px;}.cls-32,.cls-5,.cls-7{fill:#ffe6aa;}.cls-11,.cls-26,.cls-34,.cls-6{fill:#fff;}.cls-8{fill:#c6efff;}.cls-9{stroke:#f4b404;}.cls-10{fill:#f1b104;}.cls-12{fill:#ebf4f7;}.cls-13,.cls-25{mix-blend-mode:multiply;}.cls-14{fill:#e4f7ff;}.cls-15{fill:#aea61f;}.cls-16{stroke:#9f9300;}.cls-17{fill:#948900;}.cls-18{fill:#b0a81f;}.cls-19{fill:#3a193f;}.cls-20,.cls-29{stroke:#3a193f;}.cls-21{clip-path:url(#clip-path);}.cls-22{clip-path:url(#clip-path-2);}.cls-23{fill:#41465a;}.cls-24{clip-path:url(#clip-path-3);}.cls-25{fill:#e3e3e3;}.cls-26,.cls-32,.cls-33,.cls-35{stroke-miterlimit:10;}.cls-27{fill:#f0512f;}.cls-28{fill:#f26b4e;}.cls-29,.cls-30{stroke-width:2px;}.cls-30{stroke:#9e2923;}.cls-31{fill:#db9a8f;}.cls-33,.cls-40{stroke:#41465a;}.cls-34{opacity:0.85;}.cls-36{fill:#2b303f;}.cls-37{fill:#6db1ba;}.cls-38{fill:#ffb3a4;}.cls-39{stroke:#e2564b;}.cls-41{fill:#fff4de;}.cls-42{fill:#242854;}</style><clipPath id="clip-path"><path class="cls-1" d="M1011.43,351.65s-2.31,32.51,19.66,42.36c0,0-26.17,21.14-54.6,3.49,0,0,17.73-3.48,10.17-42.68Z"/></clipPath><clipPath id="clip-path-2"><path id="LEG" class="cls-1" d="M1018.69,835l0-.19c-7-40.46-39.61-223.06,25.82-232.48,12.19-1.75,52,12.47,47.92,87.33-3.3,60.2-21.66,104.27-24.72,140.76v0c-.08,30,12.65,45.18,16.06,71,4.74,36-5.79,95.52-13.27,123.67h0c-.28,2.84-.27,12.82,3.07,17.71s5,5.2,4.41,10.7h-38.49a9.65,9.65,0,0,1,6.54-8.32c6.23-2.08,13.89-16.68,12.31-22.92v0c-9.41-35.79-25.44-112-27.53-123.51Z"/></clipPath><clipPath id="clip-path-3"><path id="LEG-2" data-name="LEG" class="cls-1" d="M976.32,832.43c-3.11,29.86,8,46.18,8.78,72.21,1,34.47-14.78,88-25.63,116.15l0,.06c-1.43,3.74-1.15,11.28.43,15.3,2.74,7,5,17.39-4.59,17.39H902.51s-1.22-6.84,12.78-8.77c13.51-1.86,31-9.55,30.86-22.73-5.24-35.52-12.56-113.36-13.47-125.17-1.06-13.72-4.35-50.06-5.32-61.64a.09.09,0,0,1,0-.05C923.48,799.32,903.19,608,966.7,602.46c12.28-1.06,51.21,15.4,42.67,89.9-6.49,56.55-25.52,98-32,132.95v0C977,827.88,976.54,830.29,976.32,832.43Z"/></clipPath></defs><g class="cls-2"><g id="Layer_1" data-name="Layer 1"><g id="KITCHEN_FURNITURE" data-name="KITCHEN FURNITURE" class="cls-3"><g id="BOTTOM"><g id="FURNITURE"><rect class="cls-4" x="286.78" y="761.87" width="154.27" height="277.55"/><circle class="cls-4" cx="424.32" cy="895.81" r="7.17"/><circle class="cls-4" cx="467.34" cy="895.81" r="7.17"/><rect class="cls-4" x="453.39" y="761.87" width="154.27" height="277.55"/><rect class="cls-4" x="969.02" y="761.87" width="154.27" height="277.55"/><circle class="cls-4" cx="985.4" cy="895.81" r="7.17"/><g id="COOKSTOVE"><rect class="cls-4" x="689.51" y="761.43" width="234.6" height="57.63"/><rect class="cls-4" x="689.51" y="828.82" width="234.6" height="210.6"/><rect class="cls-5" x="721.83" y="880.28" width="179.53" height="133.49"/><rect class="cls-4" x="717.05" y="875.5" width="179.53" height="133.49"/><rect class="cls-4" x="718.14" y="845.19" width="176.63" height="9.92" rx="1.62"/><line class="cls-4" x1="803.57" y1="875.5" x2="717.82" y2="961.25"/><line class="cls-4" x1="823.07" y1="875.5" x2="717.05" y2="981.52"/><line class="cls-4" x1="861.78" y1="875.5" x2="728.29" y2="1008.99"/><circle class="cls-4" cx="885.03" cy="789.47" r="11.55"/><line class="cls-4" x1="885.03" y1="782.45" x2="885.03" y2="777.92"/><line class="cls-4" x1="885.03" y1="801.02" x2="885.03" y2="796.49"/><line class="cls-4" x1="878.01" y1="788.99" x2="873.48" y2="788.99"/><line class="cls-4" x1="896.58" y1="788.99" x2="892.05" y2="788.99"/><polyline class="cls-4" points="885.03 785.42 885.03 789.47 888.61 789.47"/><circle class="cls-6" cx="774.11" cy="792.78" r="6.42"/><circle class="cls-6" cx="798.48" cy="792.78" r="6.42"/><circle class="cls-6" cx="822.86" cy="792.78" r="6.42"/><circle class="cls-6" cx="847.23" cy="792.78" r="6.42"/><circle class="cls-4" cx="771.72" cy="790.87" r="6.42"/><circle class="cls-4" cx="796.09" cy="790.87" r="6.42"/><circle class="cls-4" cx="820.47" cy="790.87" r="6.42"/><circle class="cls-4" cx="844.84" cy="790.87" r="6.42"/></g></g><g id="OVEN_MITT" data-name="OVEN MITT"><path class="cls-4" d="M763.77,586.67a6.36,6.36,0,0,1,3.48-1.69l21.37-2.73,5-4.57,26.58,28.77-28.12,26c-9.53,8.8-23.23,10-30.72,2.45-3.95-4-5.43-9.59-4.64-15.3a26.54,26.54,0,0,1,8.49-15.66l4.52-4.17c1.19-1.1,1.09-2.84-.19-3.33l-5.86-2.27a3.07,3.07,0,0,1-1-.74C761.09,591.78,761.5,588.77,763.77,586.67Z"/><rect class="cls-7" x="787.15" y="587.57" width="43.33" height="5.34" rx="1.86" transform="translate(924.06 1584.86) rotate(-132.73)"/><path class="cls-4" d="M799,565.59c-.08,1.66-3.32,6.74-3.32,6.74s-2.78-5.34-2.7-7a3,3,0,0,1,6,.27Z"/><line class="cls-4" x1="760.72" y1="561.94" x2="842.99" y2="561.94"/></g><g id="CUTTING_BOARD" data-name="CUTTING BOARD"><path class="cls-5" d="M919.12,629.4h-6.58a8.94,8.94,0,0,1-9-8.85v-1.92a8.76,8.76,0,0,1,.67-3.36,8.33,8.33,0,0,1,.76-1.41,8.81,8.81,0,0,0,.67-3.37v-1.25a8.94,8.94,0,0,0-9-8.86h-1.28a8.94,8.94,0,0,0-9,8.86v1.25a8.81,8.81,0,0,0,.67,3.37,8.33,8.33,0,0,1,.76,1.41,8.76,8.76,0,0,1,.67,3.36v1.92c0,4.88-4,10.28-9,10.28h-6.59c-6.22,0-11.27,3.53-11.27,9.65V716a11.18,11.18,0,0,0,11.27,11.08h46.31A11.18,11.18,0,0,0,930.4,716V640.48A11.18,11.18,0,0,0,919.12,629.4ZM896,612.79a2.5,2.5,0,1,1,2.54-2.49A2.52,2.52,0,0,1,896,612.79Z"/><path class="cls-4" d="M915.78,627.68h-6.59a9,9,0,0,1-9-9v-1.94a9.06,9.06,0,0,1,.67-3.42,8.23,8.23,0,0,1,.76-1.44,9.11,9.11,0,0,0,.67-3.43v-1.27a9,9,0,0,0-9-9H892a9,9,0,0,0-9,9v1.27a9.11,9.11,0,0,0,.67,3.43,8.23,8.23,0,0,1,.76,1.44,9.06,9.06,0,0,1,.67,3.42v1.94a9,9,0,0,1-9,9h-6.59a11.26,11.26,0,0,0-11.27,11.26v76.9a11.27,11.27,0,0,0,11.27,11.27h46.31a11.27,11.27,0,0,0,11.27-11.27v-76.9A11.26,11.26,0,0,0,915.78,627.68Zm-23.16-16.91a2.54,2.54,0,1,1,2.54-2.54A2.54,2.54,0,0,1,892.62,610.77Z"/></g></g><g id="TOP"><g id="FURNITURE-2" data-name="FURNITURE"><line class="cls-4" x1="261.69" y1="542.39" x2="1145.48" y2="542.39"/><line class="cls-4" x1="628.47" y1="217.98" x2="628.47" y2="542.38"/><line class="cls-4" x1="948.11" y1="217.98" x2="948.11" y2="542.38"/><rect class="cls-4" x="628.47" y="367.19" width="319.65" height="16.43"/><rect class="cls-4" x="628.47" y="217.98" width="319.65" height="16.43"/><rect class="cls-4" x="628.47" y="525.96" width="319.65" height="16.43"/><rect class="cls-4" x="286.78" y="241.47" width="154.27" height="277.55"/><circle class="cls-4" cx="424.32" cy="375.41" r="7.17"/><circle class="cls-4" cx="467.34" cy="375.41" r="7.17"/><rect class="cls-4" x="453.39" y="241.47" width="154.27" height="277.55"/><line class="cls-4" x1="261.69" y1="217.98" x2="1145.22" y2="217.98"/><rect class="cls-4" x="969.02" y="241.47" width="154.27" height="277.55"/><circle class="cls-4" cx="985.4" cy="375.41" r="7.17"/></g><g id="TABLEWARE"><g id="JUG"><path class="cls-6" d="M909.67,326.39c0,18.07-10,33.48-24.09,39.51H859.27c-14.08-6-24.09-21.44-24.09-39.51,0-15.92,7.77-29.78,19.25-37a7.35,7.35,0,0,0,3.46-6.22h0A7.32,7.32,0,0,0,854.5,277l-3.7-2.36a1.26,1.26,0,0,1,.69-2.32h34.36a2.33,2.33,0,0,1,2.32,2.67l-1.21,8.2a7.35,7.35,0,0,0,3.46,6.22C901.89,296.61,909.67,310.47,909.67,326.39Z"/><path class="cls-4" d="M904.59,326.6c0,18.46-10.18,34.21-24.51,40.37H853.31c-14.33-6.15-24.52-21.91-24.52-40.37,0-16.27,7.91-30.43,19.6-37.78a7.54,7.54,0,0,0,3.52-6.36h0a7.49,7.49,0,0,0-3.46-6.32l-3.76-2.42a1.29,1.29,0,0,1,.7-2.37h35a2.39,2.39,0,0,1,2.36,2.73l-1.24,8.38a7.52,7.52,0,0,0,3.53,6.36C896.69,296.17,904.59,310.34,904.59,326.6Z"/><path class="cls-4" d="M892,294.84h6.2A20.17,20.17,0,0,1,918.39,315v8.82a15.47,15.47,0,0,1-15.47,15.47h0"/></g><g id="DISHES"><circle class="cls-6" cx="717.84" cy="471.57" r="53.86"/><circle class="cls-4" cx="712.01" cy="470.12" r="55.31"/><circle class="cls-4" cx="712.01" cy="470.12" r="30.82"/><path class="cls-8" d="M809.94,485.72h81.89a6.38,6.38,0,0,1-6.37,6.38H816.32a6.38,6.38,0,0,1-6.38-6.38Z"/><path class="cls-8" d="M802.4,499.89h97a7.55,7.55,0,0,1-7.55,7.55H810a7.55,7.55,0,0,1-7.55-7.55Z"/><path class="cls-8" d="M792.08,516.27H909.7a9.16,9.16,0,0,1-9.16,9.15H801.23a9.15,9.15,0,0,1-9.15-9.15Z"/><path class="cls-9" d="M798.64,479.12h104.5a1.11,1.11,0,0,1,.38,2.15l-11.08,4h-83.1l-11.08-4A1.11,1.11,0,0,1,798.64,479.12Z"/><path class="cls-9" d="M809.34,485.31h83.1a6.47,6.47,0,0,1-6.47,6.47H815.81a6.47,6.47,0,0,1-6.47-6.47Z"/><path class="cls-9" d="M789,491.85H912.76a1.31,1.31,0,0,1,.45,2.54l-13.12,4.79h-98.4l-13.13-4.79A1.31,1.31,0,0,1,789,491.85Z"/><path class="cls-9" d="M801.69,499.18h98.4a7.66,7.66,0,0,1-7.66,7.66H809.35a7.66,7.66,0,0,1-7.66-7.66Z"/><path class="cls-9" d="M775.84,506.91h150.1a1.59,1.59,0,0,1,.55,3.08l-15.92,5.8H791.21L775.29,510A1.59,1.59,0,0,1,775.84,506.91Z"/><path class="cls-9" d="M791.21,515.79H910.57a9.29,9.29,0,0,1-9.29,9.29H800.5a9.29,9.29,0,0,1-9.29-9.29Z"/></g><g id="CUPS"><path class="cls-4" d="M680.84,326.23l-.05,32.25a8.79,8.79,0,0,1-9,8.49l-12.22,0a8.79,8.79,0,0,1-9-8.51l0-32.25Z"/><path class="cls-4" d="M680.83,332.73h0c5.68,0,10.28,4.35,10.27,9.7v6.5c0,5.35-4.62,9.68-10.3,9.67h0"/><path class="cls-4" d="M793.63,326.23l0,32.25a8.79,8.79,0,0,1-9.05,8.49l-12.23,0a8.78,8.78,0,0,1-9-8.51l0-32.25Z"/><path class="cls-4" d="M793.62,332.73h0c5.69,0,10.29,4.35,10.28,9.7v6.5c0,5.35-4.62,9.68-10.3,9.67h0"/><path class="cls-6" d="M737.54,326.23l0,32.25a8.79,8.79,0,0,1-9,8.49l-12.22,0a8.79,8.79,0,0,1-9-8.51l0-32.25Z"/><path class="cls-4" d="M737.54,326.23l0,32.25a8.79,8.79,0,0,1-9,8.49l-12.22,0a8.79,8.79,0,0,1-9-8.51l0-32.25Z"/><path class="cls-4" d="M737.53,332.73h0c5.68,0,10.28,4.35,10.27,9.7v6.5c0,5.35-4.62,9.68-10.3,9.67h0"/><circle class="cls-10" cx="713.77" cy="332.81" r="2.24"/><circle class="cls-10" cx="730.91" cy="332.81" r="2.24"/><circle class="cls-10" cx="722.34" cy="332.81" r="2.24"/><circle class="cls-10" cx="708.83" cy="339.69" r="2.24"/><circle class="cls-10" cx="726.84" cy="339.69" r="2.24"/><circle class="cls-10" cx="735.85" cy="339.69" r="2.24"/><circle class="cls-10" cx="717.84" cy="339.69" r="2.24"/><circle class="cls-10" cx="713.77" cy="346.58" r="2.24"/><circle class="cls-10" cx="730.91" cy="346.58" r="2.24"/><circle class="cls-10" cx="722.34" cy="346.58" r="2.24"/><circle class="cls-10" cx="708.83" cy="353.46" r="2.24"/><circle class="cls-10" cx="726.84" cy="353.46" r="2.24"/><circle class="cls-10" cx="735.85" cy="353.46" r="2.24"/><circle class="cls-10" cx="717.84" cy="353.46" r="2.24"/><circle class="cls-10" cx="713.77" cy="360.35" r="2.24"/><circle class="cls-10" cx="730.91" cy="360.35" r="2.24"/><circle class="cls-10" cx="722.34" cy="360.35" r="2.24"/></g></g></g></g><g id="FRIDGE" class="cls-3"><rect class="cls-11" x="1145.93" y="372.41" width="304.88" height="689.47" rx="19.44"/><line class="cls-11" x1="1431.08" y1="552.64" x2="1166.58" y2="552.64"/><path class="cls-7" d="M1245.28,682.57l-59.12,2a6.39,6.39,0,0,1-6.61-6.39h0a6.4,6.4,0,0,1,6.61-6.39l59.12,2a4.38,4.38,0,0,1,4.22,4.37h0A4.37,4.37,0,0,1,1245.28,682.57Z"/><rect class="cls-4" x="1209.82" y="423.77" width="39.68" height="39.68"/><rect class="cls-5" x="1213.63" y="427.21" width="32.06" height="27.06"/><rect class="cls-12" x="1282.85" y="423.77" width="54.71" height="79.87"/><rect class="cls-10" x="1291.03" y="442.17" width="4.59" height="2.39"/><rect class="cls-10" x="1299.91" y="442.17" width="29.45" height="2.39"/><rect class="cls-10" x="1291.03" y="449.24" width="4.59" height="2.39"/><rect class="cls-10" x="1299.91" y="449.24" width="29.45" height="2.39"/><rect class="cls-10" x="1291.03" y="456.32" width="4.59" height="2.39"/><rect class="cls-10" x="1299.91" y="456.32" width="29.45" height="2.39"/><rect class="cls-10" x="1291.03" y="463.39" width="4.59" height="2.39"/><rect class="cls-10" x="1299.91" y="463.39" width="29.45" height="2.39"/><rect class="cls-10" x="1291.03" y="477.54" width="4.59" height="2.39"/><rect class="cls-10" x="1299.91" y="477.54" width="29.45" height="2.39"/><rect class="cls-10" x="1291.03" y="470.46" width="4.59" height="2.39"/><rect class="cls-10" x="1299.91" y="470.46" width="29.45" height="2.39"/><rect class="cls-10" x="1307.5" y="420.9" width="3.81" height="6.31"/></g><g id="PLANTS"><g class="cls-13"><path class="cls-14" d="M1340.05,324c-19.18-.5-12.34-26.64-33.08-30.6-17,5.48-28,26.82-29.23,29.24a76.68,76.68,0,0,0,.74,8.5l-1,.16h32.2V349.5c0,13.72-11.12,22-24.83,22h-9.51c-13.71,0-24.83-8.24-24.83-22V331.26h26a103,103,0,0,1-.77-17.46,70.59,70.59,0,0,0-4.17-21.12,54.3,54.3,0,0,0-7.42-13.78c-15.43-11.52-49.3,3-55.93-10.73-7.27-15.05,8.56-32.17,31.14-24.91,18.47,6,25.93,28.77,28,36.86a57.63,57.63,0,0,1,6,11.94,68.91,68.91,0,0,1,3.09,11.27c.1-.85.21-1.71.34-2.59a113.25,113.25,0,0,1,2.26-11.61c-4.91-43,9.68-62.45,16.29-68.81s17.38-10.53,27,1.92,5.45,30.74-23,50.85A104.11,104.11,0,0,0,1280.93,290c-1,3.89-1.64,7.58-2.12,10.94a120.69,120.69,0,0,0-1.1,12.6c.1,2.52,0,4.07,0,4.24h-.09c0,.28,0,.57,0,.84a85.5,85.5,0,0,1,7.43-11c6.34-7.89,13.29-13.28,20.36-15.84,4.16-3.61,18.89-14,43.42-5.73C1378.18,296,1360,324.48,1340.05,324Z"/></g><path class="cls-15" d="M1273.59,288.68a101.83,101.83,0,0,1,20-18.72c28.44-20.11,32.59-38.39,23-50.84s-20.24-8.41-27-1.93S1267.75,243.77,1273.59,288.68Z"/><path class="cls-15" d="M1298.34,289.85s15.33-16.74,44.65-6.88,11.17,38.38-8.81,37.87S1322.46,291.94,1298.34,289.85Z"/><path class="cls-15" d="M1262.19,279.86s-6.11-32.46-28.69-39.73S1195.1,250,1202.36,265,1249.62,261.2,1262.19,279.86Z"/><path class="cls-16" d="M1271.65,328.13s-8.57-51.67,28.28-88"/><path class="cls-16" d="M1270.88,319.28s26.72-56.31,64.86-17.91"/><path class="cls-16" d="M1270.88,314.61s2.84-48-42.31-58.65"/><path class="cls-10" d="M1244.68,328.13h59.16a0,0,0,0,1,0,0v18.13a24.94,24.94,0,0,1-24.94,24.94h-9.28a24.94,24.94,0,0,1-24.94-24.94V328.13a0,0,0,0,1,0,0Z"/><path class="cls-17" d="M163.74,962.13S166.2,794.54,244.4,695.2c0,0-40.33,56.48-53.29,266.93Z"/><path class="cls-17" d="M179.74,962.13s17.56-179.28-76.33-246.35c0,0,76.91,70.07,43.89,246.35Z"/><path class="cls-17" d="M169.48,959.62s-.59-160-85.73-198.06c0,0,85.14,61.9,57.69,198.06Z"/><path class="cls-18" d="M155.09,962.13s-20-178.9,44.24-241.48c0,0-35.59,70.86-19.59,241.48Z"/><path class="cls-18" d="M176.3,962.13s0-140.27,80.62-166.52c0,0-65.33,71.33-55.61,166.52Z"/><path class="cls-18" d="M136.47,962.13S148,887.5,89.29,854.05c0,0,68.55,15.09,65.8,108.08Z"/><rect class="cls-11" x="118.6" y="961.26" width="100.58" height="100.58" rx="13.5"/></g><g id="LAMP" class="cls-3"><rect class="cls-4" x="593.57" y="130.73" width="306.77" height="7.61" rx="3.21"/><line class="cls-4" x1="629.78" y1="138.37" x2="629.78" y2="152.39"/><circle class="cls-5" cx="629.78" cy="174.73" r="17.89"/><path class="cls-4" d="M609.47,162a25.55,25.55,0,0,1,40.61,0"/><line class="cls-4" x1="746.63" y1="138.16" x2="746.63" y2="152.17"/><circle class="cls-5" cx="746.63" cy="174.52" r="17.89"/><path class="cls-4" d="M726.32,161.77a25.55,25.55,0,0,1,40.61,0"/><line class="cls-4" x1="864.06" y1="138.16" x2="864.06" y2="152.17"/><circle class="cls-5" cx="864.06" cy="174.52" r="17.89"/><path class="cls-4" d="M843.75,161.77a25.55,25.55,0,0,1,40.61,0"/></g><circle class="cls-19" cx="1026.81" cy="290.75" r="21.74"/><g id="HAIR"><path class="cls-19" d="M957.73,313c4.32-4.42,23.82-16.62,34.68-20.21,9.21-3,29.2-4.74,37.28,13.42S1030,340,1042,350.83s75.23,19,48.27,88.6c-12.33,31.82-142.07-7-146.54-41.9-2.91-22.67,29.25-32.08,25.35-39.08C964.08,349.49,940.89,330.21,957.73,313Z"/><path class="cls-20" d="M940.81,398c-5.09-24.93,26.79-31.58,25.7-40.09-1.2-9.38-24-28.69-6.9-44.6"/></g><g id="NECK"><path class="cls-1" d="M1011.43,351.65s-2.31,32.51,19.66,42.36c0,0-26.17,21.14-54.6,3.49,0,0,17.73-3.48,10.17-42.68Z"/><g class="cls-21"><ellipse class="cls-19" cx="997.06" cy="360.68" rx="23.45" ry="20.71"/></g></g><path id="FACE" class="cls-1" d="M1015.51,348.13c.55,4.31-8.29,21.54-28.42,23.89-5.57.66-16.6-10.17-18.16-21.11-1.27-8.82-2.81-18.78-3-21.91a19.11,19.11,0,0,1,15-18.9s0,0,0,0c4.39-.77,13-.59,16.57,11.11,4.37,14.23,14.17,14.68,18.85,13.89C1017.23,334.07,1015.84,345.59,1015.51,348.13Z"/><path class="cls-20" d="M975.08,309.44s13.12-4.7,18.06,11.36c4.88,15.89,14,12.54,20.19,11.25"/><g id="LEGS"><g id="RIGHT_LEG" data-name="RIGHT LEG"><path id="LEG-3" data-name="LEG" class="cls-1" d="M1018.69,835l0-.19c-7-40.46-39.61-223.06,25.82-232.48,12.19-1.75,52,12.47,47.92,87.33-3.3,60.2-21.66,104.27-24.72,140.76v0c-.08,30,12.65,45.18,16.06,71,4.74,36-5.79,95.52-13.27,123.67h0c-.28,2.84-.27,12.82,3.07,17.71s5,5.2,4.41,10.7h-38.49a9.65,9.65,0,0,1,6.54-8.32c6.23-2.08,13.89-16.68,12.31-22.92v0c-9.41-35.79-25.44-112-27.53-123.51Z"/><g class="cls-22"><rect class="cls-23" x="1008" y="538.48" width="128.96" height="419.59"/></g><path id="SHOES" class="cls-10" d="M1074,1043.32c3.27,3.26,4.55,5.71,3.92,10.22h-38.49s-1.7-6.7,9-11.19C1052.16,1040.79,1070.47,1039.78,1074,1043.32Z"/></g><g id="LEFT_LEG" data-name="LEFT LEG"><path id="LEG-4" data-name="LEG" class="cls-1" d="M976.32,832.43c-3.11,29.86,8,46.18,8.78,72.21,1,34.47-14.78,88-25.63,116.15l0,.06c-1.43,3.74-1.15,11.28.43,15.3,2.74,7,5,17.39-4.59,17.39H902.51s-1.22-6.84,12.78-8.77c13.51-1.86,31-9.55,30.86-22.73-5.24-35.52-12.56-113.36-13.47-125.17-1.06-13.72-4.35-50.06-5.32-61.64a.09.09,0,0,1,0-.05C923.48,799.32,903.19,608,966.7,602.46c12.28-1.06,51.21,15.4,42.67,89.9-6.49,56.55-25.52,98-32,132.95v0C977,827.88,976.54,830.29,976.32,832.43Z"/><g class="cls-24"><rect class="cls-23" x="891.55" y="538.48" width="128.96" height="419.59"/></g><path id="SHOES-2" data-name="SHOES" class="cls-10" d="M959.87,1036.15s8,17.39-3.61,17.39H902.51s-2.16-6.58,11.8-8.77c1.94-.3,7.5-1.34,7.5-1.34s-1.73,4.86,10.56,4.33S950.19,1037,959.87,1036.15Z"/></g></g><g id="DRESS"><path id="DRESS-2" data-name="DRESS" class="cls-10" d="M962.79,548.47c-.66-20.15-4.86-39.9-7.29-41.51-7.55-5-12.18-14.65-11.57-27.67-23.32-3.47-37.46-20-37.46-20s17.35-30.36,26.78-41.24c8.8-10.13,25.18-16,36.64-19.13l6.6-1.41c26.41,16.4,51.71-1.07,55.1-3.64l17,6.65c7.92,3.19,18,7.87,24.2,15.05,9.43,10.87,26.78,41.24,26.78,41.24s-19.15,19.66-45,21.83c-6,24.66-11.09,63.61-9.18,70"/></g><g id="APRON"><path id="SHADOW" class="cls-25" d="M980.27,397.59l2.67-2.92c-.19.87-9.47,55.3-9.15,67.22h40.85c6.57-20.14,17.37-69,17.37-69s4.35-.35,3.65,6.85c-2.06,21.14-8.18,54.7-8.18,62.17h.1s9.13,55.25,30.58,101.91,25.06,196.81-.34,203.78c-54.47,14.95-110.19,6.94-126.73-3.42-11.9-7.46-10.28-126.5,29.18-188.91,13.23-20.91-5.32-53.37-6.42-66.68-1.58-18.89,12-46.68,12-46.68Z"/><path id="APRON-2" data-name="APRON" class="cls-12" d="M1054.24,554c21.45,46.66,19.44,195-5.72,202.8-53.86,16.76-107.29,11.53-123.31-1.46-10.9-8.85-9.79-127.48,29.68-189.89,13.22-20.91-5.32-53.37-6.43-66.68-1.57-18.89,12-36.89,12-36.89,0-7.47,10.78-60.89,16.88-64.79s6.09-2.93,6.09-2.93-12.91,55.7-12.58,67.72h40.85c6.57-20.14,18.35-69,18.35-69s5.8-2.35,5.61,4.89c-.54,19.72-13.56,56.66-13.56,64.13h.1a548.55,548.55,0,0,0,26.51,79.56c.53-5.78,2.33-18.6,7.7-11.88,3.64,4.56-1.56,11.48-5.1,15.3,5.26,1.69,16.39,6.21,19.59,14.79l-4.88,3.62-12.74-11.39Z"/></g><g id="HANDS"><rect id="CUTTING_BOARD-2" data-name="CUTTING BOARD" class="cls-26" x="913.61" y="685.51" width="150.81" height="9.28" rx="3.91"/><g id="RIGHT_HAND" data-name="RIGHT HAND"><path id="HAND" class="cls-1" d="M1053.67,662.88c-11.56,5.24,27.06-94.19,33.4-104.88-7.78-17.12-21.7-51.45-32.24-79.4,13.64-1.2,25.4-7.27,33.43-12.7,0,0,26.36,57.24,26.19,94.08C1114.45,571.69,1074.18,653.59,1053.67,662.88Z"/><path id="SHADOW-2" data-name="SHADOW" class="cls-19" d="M1090.89,472.47c-5.85,6.09-19.68,12.31-32.06,16.71-1.64-3.61-3.16-7.13-4.56-10.53l.56,0c13.64-1.2,25.4-7.27,33.43-12.7Q1089.55,469,1090.89,472.47Z"/><path id="ARM" class="cls-1" d="M1059.27,657.37c0-2.14-17.12-5.8-23.1-5.68s-15.3,4.21-16.74,5.26-5.89,7.22-5.89,7.22,1.47,3,5.71-.12,13.08-2.44,14.67-.83c3.58,3.64-6.45-.13-8.1,1.16s-1.42,2.44-1.42,2.44,10,2.13,11.6,2.4,8.86-1.56,12.71-3.16S1059.33,660.51,1059.27,657.37Z"/><g id="TOMATO"><ellipse class="cls-27" cx="1028.46" cy="672.45" rx="13.84" ry="12.64"/><ellipse class="cls-28" cx="1025.89" cy="673.39" rx="10.86" ry="11.12"/><path class="cls-27" d="M1027.36,669.72c0,.77-1.47,2.87-1.47,2.87s-1.47-2.1-1.47-2.87a1.47,1.47,0,0,1,2.94,0Z"/><path class="cls-27" d="M1024.42,677.06c0-.77,1.47-2.86,1.47-2.86s1.47,2.09,1.47,2.86a1.47,1.47,0,0,1-2.94,0Z"/><path class="cls-27" d="M1022,672c.81,0,3,1.4,3,1.4s-2.2,1.4-3,1.4a1.4,1.4,0,1,1,0-2.8Z"/><path class="cls-27" d="M1029.74,674.79c-.81,0-3-1.4-3-1.4s2.2-1.4,3-1.4a1.4,1.4,0,1,1,0,2.8Z"/><ellipse class="cls-27" cx="1013.46" cy="674.09" rx="12.67" ry="10.32" transform="translate(-202.63 622.87) rotate(-31.22)"/><ellipse class="cls-28" cx="1012.35" cy="674.55" rx="11.31" ry="9.28" transform="translate(-203.33 719.14) rotate(-35.78)"/><path class="cls-27" d="M1014.42,671.25a11.3,11.3,0,0,1-1.93,2.58s-1-1.89-.9-2.58a1.71,1.71,0,0,1,1.67-1.26A1.06,1.06,0,0,1,1014.42,671.25Z"/><path class="cls-27" d="M1010.28,677.86a11.07,11.07,0,0,1,1.93-2.58s1,1.88.9,2.58a1.71,1.71,0,0,1-1.66,1.26A1.07,1.07,0,0,1,1010.28,677.86Z"/><path class="cls-27" d="M1008.88,673.29a8.32,8.32,0,0,1,2.66,1.26,12.9,12.9,0,0,1-3.16,1.26,1.06,1.06,0,0,1-1.16-1.26A1.72,1.72,0,0,1,1008.88,673.29Z"/><path class="cls-27" d="M1015.82,675.81a8.32,8.32,0,0,1-2.66-1.26,12.9,12.9,0,0,1,3.16-1.26,1.07,1.07,0,0,1,1.16,1.26A1.7,1.7,0,0,1,1015.82,675.81Z"/></g></g><g id="LEFT_HAND" data-name="LEFT HAND"><path class="cls-1" d="M885.51,544.09c-1.18,4.08.18,10.23,5.39,17.64,18.31,26,64.39,80.14,78.91,81.68,7.11.76-31.66-71.8-60.38-96.72,5.83-8.65,20-39.88,34.44-67.51-13.72-1.41-24.5-9.24-31.41-14.38C912.46,464.8,892.12,508.4,885.51,544.09Z"/><path class="cls-19" d="M939.74,487c-11.89-4-23.47-11.3-28.93-18,.42-.81,1.29-3.39,1.71-4.18,6.9,5.13,17.59,12,31.35,14.34Z"/><rect class="cls-23" x="948.52" y="645.45" width="40.52" height="8.72" rx="2.56" transform="translate(279.25 -291.12) rotate(19.91)"/><path class="cls-8" d="M1040.86,674l-52.41-19-3.64,10S1019,682.16,1040.86,674Z"/><path class="cls-1" d="M966.17,633.57c3.79-.23,20.72,7.84,21.44,9.91s10.25,13.61,10.25,13.61-2.47,2.53-6.58-1.66c-4.78-4.86-6.79-4.68-6.79-4.68s-1.64,3.46-4.16,3.21-1.65,3.06-5.66,3.31c-2.35.14-3.67,1.64-5.67.54s-8.14-15.17-7.18-19.88C962.62,633.94,963.92,633.7,966.17,633.57Z"/></g><g id="TOMATO-2" data-name="TOMATO"><rect class="cls-27" x="965.78" y="680.04" width="23.37" height="3.66" rx="1.54"/><ellipse class="cls-27" cx="1005.11" cy="676.12" rx="11.56" ry="8.62" transform="translate(-165.01 362.76) rotate(-18.94)"/><ellipse class="cls-28" cx="1004.08" cy="676.5" rx="10.26" ry="7.8" transform="translate(-178.22 415.74) rotate(-21.53)"/><path class="cls-27" d="M1006,673.8c-.13.57-1.81,2.11-1.81,2.11s-1-1.54-.84-2.11a1.59,1.59,0,0,1,1.56-1C1005.66,672.77,1006.15,673.23,1006,673.8Z"/><path class="cls-27" d="M1002.14,679.19c.13-.56,1.81-2.1,1.81-2.1s1,1.54.84,2.1a1.58,1.58,0,0,1-1.56,1C1002.5,680.22,1002,679.76,1002.14,679.19Z"/><path class="cls-27" d="M1000.84,675.47a8.34,8.34,0,0,1,2.48,1,13.1,13.1,0,0,1-3,1c-.73,0-1.21-.46-1.09-1A1.59,1.59,0,0,1,1000.84,675.47Z"/><path class="cls-27" d="M1007.32,677.52a8.38,8.38,0,0,1-2.48-1,13.2,13.2,0,0,1,2.95-1c.73,0,1.22.46,1.09,1A1.59,1.59,0,0,1,1007.32,677.52Z"/></g></g><path class="cls-20" d="M968.12,332.05s1.74-3.48,7.83-1.74"/><path class="cls-20" d="M988.12,339.87s6.25-.59,9.56-3.47"/><path class="cls-29" d="M984.64,358.13s3.48.87,7.83-3.48"/><polyline class="cls-30" points="981.16 339.87 979.42 347.7 982.38 351.23"/><circle class="cls-1" cx="1013.57" cy="335.92" r="8.69" transform="translate(256.05 1088.47) rotate(-63.15)"/><path class="cls-20" d="M969.86,341.61s2.46,1.24,7.32-.68"/><path class="cls-20" d="M985.51,330.31s3.48-4.63,12.17-1.44"/><circle class="cls-23" cx="831.37" cy="533.79" r="14.93"/><circle class="cls-23" cx="787.02" cy="528.77" r="14.93"/><g id="CHAIR"><path class="cls-26" d="M767.41,811.94l-27.93,261a2.92,2.92,0,0,0,2.91,3.23h0a2.92,2.92,0,0,0,2.87-2.37l45.39-261.81Z"/><path class="cls-26" d="M874.48,811.94l27.93,255.92a2.93,2.93,0,0,1-2.91,3.23h0a2.92,2.92,0,0,1-2.87-2.37L851.24,811.94Z"/><rect class="cls-26" x="744.8" y="795.92" width="150.08" height="16.02" rx="6.75"/></g><g id="GIRL"><g id="LEGS-2" data-name="LEGS"><path id="LEFT_LEG-2" data-name="LEFT LEG" class="cls-19" d="M902.79,791.44c-.8,5.74-38,2.64-118.57,3.59a1.93,1.93,0,0,1-.47.05c-15,0-27.24-22.85-27.6-82.34s21.43-62.61,29.05-62.29c22.52.93,24.1,33.48,24.1,62.8a175.44,175.44,0,0,1-4.88,41c15.39,5.83,17.58-2.18,44.41,4.17C877.88,765.34,903.44,786.88,902.79,791.44Z"/><g id="RIGHT_LEG-2" data-name="RIGHT LEG"><path id="SHOES-3" data-name="SHOES" class="cls-10" d="M936.93,785.68c3.17,1.47,8.05-.23,10.88-.27,6.68-.11,8.06,3.7,8.06,3.7L940,824.36s-6-1.72-4.83-12.16c1.23-10.9,1.77-15.6-4.21-17.37S931.68,783.26,936.93,785.68Z"/><path id="LEG-5" data-name="LEG" class="cls-31" d="M931,794.68c-17,.91-51.63-.3-106,.35a1.93,1.93,0,0,1-.47.05c-24.19,0-27.24-22.85-27.6-82.34s21.43-62.61,29.05-62.29c22.51.93,24.09,33.48,24.09,62.8a175.5,175.5,0,0,1-5.28,42.7c13.24,4,18-3.85,44.82,2.5,29,6.89,45.9,22.79,47.92,29C938.09,789.21,939.16,794.24,931,794.68Z"/><path id="SHADOW-3" data-name="SHADOW" class="cls-19" d="M850,713.25a175.87,175.87,0,0,1-3.79,36.22,285,285,0,0,1-48.35.24c-.67-10.3-.92-22.56-1-37-.36-59.5,21.44-62.61,29.06-62.29C848.46,651.39,850,683.93,850,713.25Z"/></g></g><g id="LEFT_HAND-2" data-name="LEFT HAND"><path id="HAND-2" data-name="HAND" class="cls-31" d="M743.8,618.74c22.16-15.5,46.55-41,48.82-50.92,2.75-12-4.83-25.58-14-17.73-13.47,11.45-34.39,32-43.85,44.24-13.87-13.65-43.8-41.1-52.93-35.4-3.86,2.42,37.69,54,45.53,60.66C731.85,623.43,739.78,621.55,743.8,618.74Z"/><g id="PACK"><rect class="cls-32" x="638.82" y="612.09" width="69.05" height="9.98" transform="translate(-238.21 560.16) rotate(-38.93)"/><path class="cls-10" d="M703.34,599.26l-3.55,2.87,0,0a5,5,0,0,1-6.24-7.79l3.55-2.87Z"/><polygon class="cls-26" points="619.48 605.48 643.35 634.89 697.07 591.5 673.19 562.09 619.48 605.48"/><circle class="cls-5" cx="697.41" cy="600.08" r="1.06"/><circle class="cls-5" cx="704.39" cy="605.83" r="1.06"/><circle class="cls-5" cx="708.82" cy="620.06" r="1.06"/><circle class="cls-5" cx="703.55" cy="623.76" r="1.06"/><circle class="cls-5" cx="709.88" cy="632.16" r="1.06"/><circle class="cls-5" cx="712.55" cy="627.46" r="1.06"/><circle class="cls-5" cx="701.43" cy="616.08" r="1.06"/><circle class="cls-5" cx="700.38" cy="607.95" r="1.06"/><circle class="cls-5" cx="704.09" cy="609.23" r="0.75"/><circle class="cls-5" cx="701.94" cy="604.78" r="0.75"/><circle class="cls-5" cx="706.68" cy="613.31" r="0.75"/><circle class="cls-5" cx="707.97" cy="627.07" r="0.75"/><circle class="cls-5" cx="715.99" cy="640.15" r="0.75"/><circle class="cls-5" cx="708.82" cy="635.95" r="0.75"/><circle class="cls-5" cx="714.48" cy="632.92" r="0.75"/><circle class="cls-5" cx="704.85" cy="635.95" r="0.75"/><circle class="cls-5" cx="704.85" cy="617.83" r="0.75"/><circle class="cls-5" cx="713.31" cy="621.44" r="0.75"/><circle class="cls-5" cx="701.94" cy="626.71" r="0.75"/><circle class="cls-5" cx="698.47" cy="597.37" r="0.5"/><circle class="cls-5" cx="701.43" cy="612.56" r="0.5"/><circle class="cls-5" cx="701.43" cy="612.56" r="0.5"/><circle class="cls-5" cx="703.34" cy="620.06" r="0.5"/><circle class="cls-5" cx="708.47" cy="615.02" r="0.5"/><circle class="cls-5" cx="711.37" cy="617.83" r="0.5"/><circle class="cls-5" cx="707.43" cy="632.16" r="0.5"/><circle class="cls-5" cx="703.55" cy="630.44" r="0.5"/><circle class="cls-5" cx="713.06" cy="634.69" r="0.5"/><circle class="cls-5" cx="711.5" cy="638.39" r="0.5"/><circle class="cls-5" cx="714.98" cy="630.44" r="0.5"/><circle class="cls-5" cx="702.49" cy="633.67" r="0.5"/><circle class="cls-5" cx="707.43" cy="638.89" r="0.5"/><circle class="cls-5" cx="710.87" cy="622.92" r="0.5"/><circle class="cls-5" cx="706.17" cy="630.44" r="0.5"/><circle class="cls-5" cx="706.17" cy="624.82" r="0.5"/></g><path id="ARM-2" data-name="ARM" class="cls-31" d="M683.76,573c1.29.09,5.76-1.92,6.53-5.79,1.09-5.41,5.63-4.58.52-7.48-4.71-2.66-18.14-2.72-21.18-1.77a19.43,19.43,0,0,0-7.42,5.44c-.37.74-2.71,6.21-2.71,6.21s5.07,3.64,8,.83a11.74,11.74,0,0,1,9.28-3.18,6.38,6.38,0,0,1,4.1,2.22Z"/></g><path id="DRESS-3" data-name="DRESS" class="cls-12" d="M823.46,545.76c6.56,1.9,14.55,5.2,19.89,43.91s31.81,144.85,32.26,147.52S769.9,747.51,735.19,724.82c0,0,31.23-151.33,41.94-171.87,2.81-5.4,11.66-7.66,19.75-8.33S813.58,542.9,823.46,545.76Z"/><g id="HEAD"><g id="NECK-2" data-name="NECK"><path class="cls-31" d="M816.31,527.08S814,537,823.46,545.76c0,0-22.16,11-36.82.92,0,0,8-8.82,7.1-19.6Z"/><path class="cls-19" d="M817.73,537.87c-6.72,4.89-17.31,10-28.27,4.89,2.19-3.58,4.79-9.28,4.28-15.69h22.57A18.68,18.68,0,0,0,817.73,537.87Z"/></g><path id="FACE-2" data-name="FACE" class="cls-31" d="M826.73,528.1s-23.55,23.14-40.14,4.68C772.45,517,792.94,480.05,814,489.24,831.45,496.85,826.73,528.1,826.73,528.1Z"/><g id="HAIR-2" data-name="HAIR"><path class="cls-23" d="M808.72,491.59s.25,21.16,18.14,28.78l-.6,11.45s17.14-.25,19.14-14.23c3.12-21.7-7.2-35.36-21.18-38.18s-37.76-2.51-40.67,13.53c-.63,3.46.44,15.28.44,15.28S790.78,487.79,808.72,491.59Z"/><path class="cls-33" d="M808.72,490.58s-7.26,20.66,11.6,28.28"/></g><path id="EAR" class="cls-31" d="M825.78,528.5s9.06-.86,8.19-5-7.59-3.09-7.59-3.09Z"/></g><g id="RIGHT_HAND-2" data-name="RIGHT HAND"><g id="BOWL"><path class="cls-34" d="M767.64,653.54a50.48,50.48,0,0,1-58.5,40.91h0a50.47,50.47,0,0,1-40.9-58.5Z"/><path class="cls-35" d="M767.64,653.54a50.48,50.48,0,0,1-58.5,40.91h0a50.47,50.47,0,0,1-40.9-58.5Z"/><path class="cls-5" d="M743.11,684.07a44.47,44.47,0,0,1-56.28-4.36c2-2.47,15.57,7,29.13-.28C740,666.6,742.85,682.19,743.11,684.07Z"/></g><g id="HAND-3" data-name="HAND"><path class="cls-31" d="M834.65,565.14c1.82-12.19-12.57-15.4-20.37-4.41-7.27,10.26-22,56.59-22,56.59-5.67,3-65.38,42.88-63.38,49.27,1.11,3.55,46.8-11.68,74.85-28.34C809.29,634.69,829.91,596.87,834.65,565.14Z"/><path class="cls-31" d="M735.56,666.93c-2.31,1-16.88,7.16-20.06,7s-9.49-4.48-10-5.11-2.82-4.14-2.82-4.14,2.45-2.5,4.68,0c2.65,3,7.4,2.26,9.91,1.25,1-.42,2.63-2,1.82-3.29s-4.87.17-6.12-.12a3.77,3.77,0,0,1-2.52-2.48l7.66-2.48c1.23-.4,10.07,0,15.11,2.22S740.92,664.51,735.56,666.93Z"/></g></g></g><g id="MAN"><g id="LEGS-3" data-name="LEGS"><g id="RIGHT_LEG-3" data-name="RIGHT LEG"><g id="SHOES-4" data-name="SHOES"><path class="cls-36" d="M468.62,1048.93c0,8.49-6.55,11.61-6.55,26.69H529s1.2-15.56-15.81-16c-14.6-.41-25.62-9.34-25.46-10.65S468.62,1048.93,468.62,1048.93Z"/><path class="cls-37" d="M461.53,1074.07h67.9a0,0,0,0,1,0,0v1.49a2.07,2.07,0,0,1-2.07,2.07H463.6a2.07,2.07,0,0,1-2.07-2.07v-1.49A0,0,0,0,1,461.53,1074.07Z"/><path class="cls-37" d="M492.39,1063.59l-.21,0a1,1,0,0,1-.78-1.19c.05-.25,1.3-6.08,5.11-7.8a6.28,6.28,0,0,1,5.89.63,1,1,0,0,1-1,1.74,4.34,4.34,0,0,0-4.06-.54c-2.39,1.08-3.68,5-4,6.38A1,1,0,0,1,492.39,1063.59Z"/><path class="cls-37" d="M500.94,1064.09l-.26,0a1,1,0,0,1-.72-1.22c.05-.19,1.2-4.47,4.59-6a7.21,7.21,0,0,1,6.34.39A1,1,0,1,1,510,1059a5.31,5.31,0,0,0-4.62-.37c-2.53,1.17-3.47,4.68-3.48,4.71A1,1,0,0,1,500.94,1064.09Z"/></g><path id="PANT" class="cls-23" d="M501,1045.77a65.73,65.73,0,0,1-15.33,3.69c-8.9,1.14-25.2-1.18-25.2-1.18-17.13-26.89-34.92-104.1-32-167.57,1.63-35.86,22.39-51.55,9-83.25-11.78-26.14-53.16-98-60-157.1-2.48-21.49,1-37.22,7.48-48.41,4.29.61,8.55,1.18,12.73,1.7,28.5,3.57,53.8,5.11,65.72,5,13.88,26.61,29.13,75.36,39.71,171.78L506,812C507.35,832.61,500.92,935.69,501,1045.77Z"/></g><g id="LEFT_LEG-3" data-name="LEFT LEG"><g id="SHOES-5" data-name="SHOES"><path class="cls-36" d="M315,1048.93c0,8.49-6.56,11.61-6.55,26.69h67.47s1.19-15.56-15.82-16c-14.59-.41-24.64-9.34-24.48-10.65S315,1048.93,315,1048.93Z"/><path class="cls-37" d="M308.47,1074.07h67.9a0,0,0,0,1,0,0v1.49a2.07,2.07,0,0,1-2.07,2.07H310.54a2.07,2.07,0,0,1-2.07-2.07v-1.49A0,0,0,0,1,308.47,1074.07Z"/><path class="cls-37" d="M340,1064.09a.75.75,0,0,1-.21,0,1,1,0,0,1-.78-1.19c.05-.24,1.3-6.08,5.11-7.8a6.28,6.28,0,0,1,5.89.63,1,1,0,0,1-1,1.75,4.31,4.31,0,0,0-4.06-.54c-2.39,1.07-3.67,5-4,6.37A1,1,0,0,1,340,1064.09Z"/><path class="cls-37" d="M348.55,1064.6a1.07,1.07,0,0,1-.25,0,1,1,0,0,1-.72-1.23c0-.18,1.19-4.46,4.58-6a7.2,7.2,0,0,1,6.34.38,1,1,0,1,1-.88,1.81,5.31,5.31,0,0,0-4.62-.37c-2.53,1.18-3.47,4.68-3.48,4.72A1,1,0,0,1,348.55,1064.6Z"/></g><path id="PANT-2" data-name="PANT" class="cls-23" d="M404.81,782.63c-.45,4.26-2.64,18.83-4.28,28.42-4.11,24.15-57.63,227.73-58.83,237.88,0,0-4.85,1.5-14.32,1.79a215.35,215.35,0,0,1-21.54-.8c-10.5-29.44-19.44-107.12-5.22-165.67,7.62-31.43,29.23-50.62,30.29-78.14-5-27.44-29.15-112.83-22.36-172.87,2.83-25,11.67-41.42,22.57-51.51,21,5.26,44.76,9.19,66.61,11.92C408,620.46,416.67,672,404.81,782.63Z"/></g></g><g id="RIGHT_HAND-3" data-name="RIGHT HAND"><g id="HAND-4" data-name="HAND"><path class="cls-38" d="M576.57,563.92C500.19,504.57,492,439.44,490.53,423c-2.14-24,10.28-43,42.79-23.13C561.32,417,590,478.58,607.64,510c35.11-31.88,85.22-60.42,90.57-64,12.56-8.37,15.25-.24,8.66,8.43-7.6,10-60.07,98.84-85.92,114.2C611.4,574.35,593.48,577.07,576.57,563.92Z"/><path class="cls-19" d="M589.91,477.12c-15.45,26.19-44.2,40.82-55.75,45.86-36.17-45.32-42.55-87.87-43.63-100-2.13-24,10.28-43,42.79-23.13C553.25,412.06,573.52,446.78,589.91,477.12Z"/><path class="cls-38" d="M718.63,423.55c-.82,2.67-4.39,6.46-1.46,6.85,1.52.21,12.7,0,13.45,4.23a8.88,8.88,0,0,1-1.12,5.76,6.18,6.18,0,0,1-.38,6.58c1.12,2.43,1.09,5.37-.1,6.49,0,0,1.69,6.2-.92,7.21-8.1,3.13-22.08,1.55-26.77.21-4.08-1.17-7.39-5.12-7.39-13.94,0-3.61,4.87-12.36,8.11-15.82,1.33-1.42,6.26-7.12,7.87-8.64a20.56,20.56,0,0,0,5.1-8S720.92,416.12,718.63,423.55Z"/><path class="cls-39" d="M727.85,433.63c0,1.87-11.21.65-13.22.79-2.84.2-3.32,6.11.32,6.06a75.1,75.1,0,0,0,14.67,0"/><path class="cls-39" d="M729,447c-12.14.67-15.26,0-15.26,0-1.77.09-3.11-6.31,1.18-6.49"/><path class="cls-39" d="M728.44,453.46c-11.46.84-15.26,0-15.26,0-1.67,0-2.82-6.58.59-6.49"/><path class="cls-39" d="M716.3,453.83s-3.92-.94-4.21,1.54c-.53,4.41,1.53,5.19,11.85,4.8"/></g><path id="T-SHIRT" class="cls-10" d="M527.11,516.79s59.19-29.78,65-49.21c0,0-33.41-56.72-64.94-72.85S454,406.9,527.11,516.79Z"/></g><path id="TORSO" class="cls-10" d="M367.54,620.09c-54.28-13.72-65.58-21-39.67-57.56,20.67-29.15,24.15-139.61,52-175.24,27.32-34.94,66.29-27.64,79.63-26,0,0,22.69-.75,65.48,30.79,54.56,40.22,23.48,87.13,15.94,102.71-4.6,9.51-23.66,40.58-71.24,94.38-7,7.87-.17,24.06,1,27.24S427.07,635.14,367.54,620.09Z"/><g id="HEAD-2" data-name="HEAD"><g id="NECK-3" data-name="NECK"><path class="cls-38" d="M488.46,323.28s-6.18,23.11-30.23,38.29c0,0,21.58,24.79,62,27.18,0,0-17.59-16.23,6.39-48.31Z"/><path class="cls-19" d="M489.29,323.65c-.62,1.41-1.11,2.58-1.45,3.45,0,0-4.16,14.12.43,25.42,3.56,8.78,17.49,22.08,25,21.56.11-7.72,3.85-20.89,13.38-33.64Z"/></g><path id="FACE-3" data-name="FACE" class="cls-38" d="M487.59,326.44s2.88,14.82,6.1,20c5.63,9.07,20,17.8,26,17.22,4.09-.39,9.57-.42,18.38-18.05,2.51-5,13.75-37.26,12.37-39.15s-39.18-21.11-42.95-17.7S490.24,319.71,487.59,326.44Z"/><g id="HAIR-3" data-name="HAIR"><path class="cls-23" d="M491.92,316.86s7.52,3.77,11-10.07c3.06-12.3,6.54-13.62,19.48-3,10.53,8.62,33.27,18.6,41.65,8.1,7.69-9.62,1.17-17.36-6.51-16.64-9.36.88-11.9-20-32.18-23.68-16.2-3-22.46,9.74-22.46,9.74s-8-5.83-14.1,3.05c-7.68,11.19-1.32,42.31-1.32,42.31Z"/><path class="cls-40" d="M519.24,298.7c10.4,10.5,26.81,23.52,36.88,19.17"/><path class="cls-33" d="M503.11,281.93s-1.34-6.27-7.54-5.17"/></g><path id="EAR-2" data-name="EAR" class="cls-38" d="M492.35,317.05s-1.89-6.39-6.88-4.63c-3.72,1.31,1.92,14.47,1.92,14.47Z"/></g><g id="APRON-3" data-name="APRON"><path id="SHADOW-4" data-name="SHADOW" class="cls-36" d="M397.73,593.65c28.5,3.57,53.8,5.11,65.71,5h0A186.39,186.39,0,0,1,471.72,617c3.35,13.92,9.66,34.47,16.14,55.49L502,760c-13.54,8.78-44.78,14.38-75.52,15-5.17-10.34-11.26-22.6-17.36-36q-1.24,16.63-3.35,35.57c-31.79-1.94-58.23-10.16-56.74-27,8.78-98.72-9.39-151.87-15.57-165.23"/><path id="APRON-4" data-name="APRON" class="cls-41" d="M444.49,359.41s58.79,91.46-23.87,152.15c-77.56,56.93-89.35,45.15-89.35,45.15L324,568.12s41.12,66.94,35.23,173.76c-2,36.45,151,31.5,149.64,5.93S464.52,598,469.67,589.19s70.6-66.55,75.38-119.05c3.78-41.62-13.33-72.61-13.33-72.61L520.35,388s14.47,40.38,6.8,70c0,0-36.17-5.11-39-6.82s-9.87-60.34-28.84-89.64C455.58,355.89,444.49,359.41,444.49,359.41Z"/></g><g id="LEFT_HAND-3" data-name="LEFT HAND"><path class="cls-32" d="M563.92,670.79h47.73a10.48,10.48,0,0,1,10.48,10.48v3.9a10.48,10.48,0,0,1-10.48,10.48H563.92a0,0,0,0,1,0,0V670.79A0,0,0,0,1,563.92,670.79Z"/><g id="HAND-5" data-name="HAND"><path class="cls-38" d="M539.79,657.78c1.49,2.42,4.21,4.09,8.35,3.59,5.67-.67,23.07-2.18,29.89,5.49,4.4,4.94,8.31,8.49,8.31,8.49a7.51,7.51,0,0,1-8.17,1.54c-8.19-3.59-18.55.63-22,2.51s-14.19,4-24.66-6.68S539.79,657.78,539.79,657.78Z"/><path class="cls-38" d="M434.91,589.28h0c31.54,37,93.32,81.52,99.38,85.66,4.81,3.29,14.85-3.11,8.68-12.1-6.55-9.53-49.56-86.48-74.65-113.35.47-33.3,3.22-130.77-15.88-162.26-15.43-25.44-52.78-8.59-60.78,14.13C381,431.69,379.25,491.2,419.49,566.71,421.51,570.5,428.67,582.38,434.91,589.28Z"/><path class="cls-19" d="M468.4,485.48C446.67,494.59,411.56,497.83,393,499c-11.26-43.11-8.5-77.19-1.32-97.6,8-22.7,45.35-39.56,60.78-14.11C463.76,405.86,467.4,447.61,468.4,485.48Z"/></g><path id="T-SHIRT-2" data-name="T-SHIRT" class="cls-10" d="M380.55,488.72s58.62,3.92,89-9.37c0,0,7.09-113.24-47.13-109.61C357.27,374.09,380.55,488.72,380.55,488.72Z"/><circle class="cls-26" cx="563.92" cy="683.18" r="12.39"/><rect class="cls-32" x="547.82" y="680.1" width="15.6" height="6.04" rx="2.54"/></g></g><g id="TABLE"><rect class="cls-26" x="464.87" y="696.16" width="733.99" height="19.52" rx="8.23"/><rect class="cls-26" x="1156.68" y="715.67" width="18.82" height="360.44"/><rect class="cls-26" x="488.24" y="715.67" width="18.81" height="360.44"/><polygon class="cls-10" points="488.24 715.67 507.05 715.67 507.05 723.72 488.24 721.71 488.24 715.67"/><polygon class="cls-10" points="1175.49 715.67 1175.49 724.22 1156.68 721.71 1156.68 715.67 1175.49 715.67"/></g><path class="cls-40" d="M522.57,312.21s-3.83-3-10.43,0"/><ellipse class="cls-42" cx="516.68" cy="321.57" rx="2.98" ry="2.3" transform="translate(110.73 774.98) rotate(-80.06)"/><ellipse class="cls-42" cx="537.83" cy="326.9" rx="2.98" ry="2.3" transform="translate(96.4 775.53) rotate(-76.76)"/><polyline class="cls-39" points="530.93 320.92 531.76 335.98 526.67 337.83"/><path class="cls-40" d="M513.35,337.66s0,6.69,5,8.36"/><circle class="cls-38" cx="490.76" cy="318.41" r="8.37"/><ellipse class="cls-42" cx="790.48" cy="507.98" rx="2.52" ry="2.09" transform="translate(37.25 1069.71) rotate(-69.44)"/><ellipse class="cls-42" cx="804.29" cy="512.58" rx="2.52" ry="2.09" transform="translate(41.89 1085.62) rotate(-69.44)"/><polyline class="cls-39" points="797.77 507.98 791.17 515.06 793.88 520.24"/><path class="cls-40" d="M804.61,503.78s3.3-.44,6.64,2.91"/><path class="cls-40" d="M792.84,525.1A10.49,10.49,0,0,0,803.6,523"/><path class="cls-10" d="M828.4,487.26c-6.67.47-12.51-5.19-12.51-5.19s5-6.42,11.65-6.89,12.51,5.18,12.51,5.18S835.07,486.78,828.4,487.26Z"/><path class="cls-10" d="M804.36,474.11c3.2,5.87,11.11,7.73,11.11,7.73s2.72-7.66-.48-13.53-11.11-7.73-11.11-7.73S801.16,468.23,804.36,474.11Z"/><circle class="cls-10" cx="816.54" cy="481.1" r="3.36" transform="translate(-111.85 290.6) rotate(-18.91)"/><path class="cls-10" d="M815.34,483.18s16.07,12.82,14.57,30.93a16.84,16.84,0,0,0,3.34,0s5.35-15.72-9-28.51"/><g id="JUG-2" data-name="JUG"><path class="cls-6" d="M1182.36,661.43c0,15.12-8.38,28-20.16,33.06h-22c-11.78-5-20.16-17.94-20.16-33.06,0-13.33,6.5-24.92,16.11-30.94a6.17,6.17,0,0,0,2.9-5.21h0a6.14,6.14,0,0,0-2.84-5.18l-3.1-2a1.05,1.05,0,0,1,.58-1.94h28.75a2,2,0,0,1,1.94,2.24l-1,6.86a6.15,6.15,0,0,0,2.9,5.21C1175.86,636.51,1182.36,648.11,1182.36,661.43Z"/><path class="cls-35" d="M1178.12,661.6c0,15.45-8.53,28.63-20.52,33.78h-22.4c-12-5.14-20.52-18.33-20.52-33.78,0-13.61,6.62-25.46,16.4-31.61a6.29,6.29,0,0,0,3-5.32h0a6.28,6.28,0,0,0-2.89-5.29l-3.15-2a1.08,1.08,0,0,1,.58-2h29.27a2,2,0,0,1,2,2.29l-1,7a6.28,6.28,0,0,0,2.94,5.32C1171.5,636.14,1178.12,648,1178.12,661.6Z"/><path class="cls-35" d="M1167.58,635h5.2a16.89,16.89,0,0,1,16.88,16.89v7.38a12.94,12.94,0,0,1-12.94,13h0"/></g></g></g></svg>