<svg id="Layer_1" data-name="Layer 1" xmlns="http://www.w3.org/2000/svg" viewBox="0 0 966 1169"><defs><style>.cls-1{fill:#b57e6f;}.cls-2{fill:#3a193f;}.cls-3{fill:#fff;}.cls-4{fill:#84abd6;}.cls-5{fill:#a1cbe2;}.cls-10,.cls-12,.cls-13,.cls-14,.cls-6,.cls-8{fill:none;stroke-linecap:round;stroke-linejoin:round;}.cls-6{stroke:#32323c;}.cls-10,.cls-12,.cls-13,.cls-6,.cls-8{stroke-width:3px;}.cls-7{fill:#fff4de;}.cls-8{stroke:#40465c;}.cls-9{fill:#f1b104;}.cls-10{stroke:#fff;}.cls-11{fill:#32323c;}.cls-12{stroke:#174b64;}.cls-13{stroke:#3a193f;}.cls-14{stroke:#9e2923;stroke-width:2px;}</style></defs><g id="BOY"><g id="LEGS"><g id="RIGHT_LEG" data-name="RIGHT LEG"><path id="LEG" class="cls-1" d="M236.71,924.21c-.31,52.2,23.74,122.52,38.81,144.5,10,14.61,12.22-.83,12.11-3.13-1.46-28.82,5.85-84.16-3.14-141.37Z"/><path id="SHADOW" class="cls-2" d="M286.45,938.73c-16.07,3.63-34.68,5.35-48.74,6.14a201.67,201.67,0,0,1-1-20.66h47.78C285.25,929.06,285.9,933.91,286.45,938.73Z"/><g id="SHOES"><path class="cls-3" d="M318.53,1093.14H274.9a29.36,29.36,0,0,1-.18-4.59h43.81A25,25,0,0,1,318.53,1093.14Z"/><path class="cls-4" d="M318.53,1088.55H274.9s-.07-.34-.14-.93c-.4-3.17-1.15-13.51,5.35-17.84,5.3-3.53,17.54-1.9,28.18,1.26S318.53,1088.55,318.53,1088.55Z"/></g></g><g id="LEFT_LEG" data-name="LEFT LEG"><path class="cls-1" d="M143.76,924.21c.83,7.79,25.05,136.7,18.65,142.27s17.26,3.06,18.1,0,30.35-77.4,17-142.27Z"/><path class="cls-2" d="M197.49,924.21a165.69,165.69,0,0,1,2.92,21.28c-23.88.31-41.7-2-53.88-4.62-1.56-9-2.61-15.13-2.78-16.66Z"/><g id="SHOES-2" data-name="SHOES"><path class="cls-3" d="M188.16,1093.14H127.05a12.42,12.42,0,0,1-.32-4.59H188C188.11,1090,188.16,1091.52,188.16,1093.14Z"/><path class="cls-4" d="M187.61,1088.55H127.05a9.15,9.15,0,0,1-.11-1.29c-.1-3,.76-10.74,11.17-14.38a160.3,160.3,0,0,1,24.3-6.4s6.61,3.2,18.1,0C180.51,1066.48,186.77,1072.88,187.61,1088.55Z"/></g></g><g id="SHORTS"><path class="cls-5" d="M133.46,805.14c-.22,3.59-7.46,108.84-7.25,122.41,0,0,24.45,11.9,77.69,10.65L203.06,900s9.19,38.18,13.15,38.3,56.18-.3,85.41-11.16c0,0-16.46-95.83-26.5-119.5Z"/><path class="cls-6" d="M203.06,900c-1.25-5-5.22-20-5.22-20L188,877.85"/></g></g><path id="T-SHIRT" class="cls-7" d="M231.74,579.8c4.17,3.34,20.6,13.33,24.78,17.82,6.57,7.08,47.33,49,47.33,49s-14,26.18-43.74,37c0,0,5.18,48,21.46,119.72,5,21.87-152.29,6.69-154,0s6.39-89.37,13-121.23c0,0-43-19.65-43-37.4,0,0,43-42.27,45.54-44.78s19.61-13.75,31-18.49S231.74,579.8,231.74,579.8Z"/><g id="HANDS"><g id="RIGHT_HAND" data-name="RIGHT HAND"><path id="HAND" class="cls-1" d="M260.11,683.65a43.25,43.25,0,0,0,37.17,23.29c30.16,1.29,79.41-37.75,79.41-37.75s15.65-.63,19.4-4.18,9.19-10.85,9.4-12.73-2.12-15-2.12-15-3.89.56-4.17,7.52c-.19,4.59-8.05,7.28-11.46,6-2.31-.85-2.41-3.25,1.12-5.58,4.75-3.14,1.49-7.54,1.49-7.54a40.54,40.54,0,0,1-7.29,3.78c-2.79.91-8.07,5.13-8.68,6-1.81,2.57-3.95,9.52-3.95,9.52s-37.62,6.3-65.05,10.58l-9.55-9.6S280.61,676.14,260.11,683.65Z"/><path id="SHADOW-2" data-name="SHADOW" class="cls-2" d="M299.79,662s-18,18-22.65,39.37a43.16,43.16,0,0,1-17-17.61.23.23,0,0,1,0-.07c20.5-7.51,35.72-25.67,35.72-25.67Z"/></g><g id="LEFT_HAND" data-name="LEFT HAND"><path id="ARM" class="cls-1" d="M73.21,789.37c-2.79,2-15.91,10.75-17.92,14.53s-1.34,14-1,15.07,2.48,6.66,2.48,6.66a4.47,4.47,0,0,0,2.64-5.76c-1.63-5.11,2.82-10.65,5.7-12.85,1.2-.92,4.64-1.33,5.61.5s-3.53,5.51-4.06,7.15a5.07,5.07,0,0,0,1.13,4.61s6.81-6,8.12-7.13,7-11.6,7.82-19S79.67,784.85,73.21,789.37Z"/><path id="HAND-2" data-name="HAND" class="cls-1" d="M109.85,663.31S95,687.66,90.58,705.76,70.25,790,70,791.68s10,4.73,13.08,2.51S122.8,725.29,126.2,719c5.75-10.61,14.37-36.87,14.37-36.87S118.28,670.68,109.85,663.31Z"/><path id="SHADOW-3" data-name="SHADOW" class="cls-2" d="M140.57,682.14l-.1.3-4.93,14.16-.07.19s-8.43-19.08-30.2-25.45c2.66-4.88,4.58-8,4.58-8C118.28,670.68,140.57,682.14,140.57,682.14Z"/></g></g><g id="HEAD"><g id="NECK"><path class="cls-1" d="M222.55,555s-1.67,12,9.19,24.85c0,0-32.58,18.1-57.64,1.67,0,0,12.53-7.23,11.42-25.89Z"/><path class="cls-2" d="M222.86,561.42c-7.54,7.9-20.87,16.58-41,11.57a31,31,0,0,0,3.67-17.41l37-.63A23.57,23.57,0,0,0,222.86,561.42Z"/></g><g id="HAIR"><path class="cls-2" d="M222.65,555.51c31.28,1.76,38.59-29.86,37.2-32s-5.84-15-10-23.94S236.05,489,236.05,489s.28-14.68-27.14-20.11c-33.8-6.69-67.23,14.3-51.71,30.63-3.28,5-16.66,21.54,4,46C167.69,553.13,201.17,557.53,222.65,555.51Z"/><path class="cls-8" d="M236.05,489s5.07-3.33,12.4-.54"/></g><path id="HEAD-2" data-name="HEAD" class="cls-1" d="M182,567c-24-10-21.52-46.23-17.08-61.53,23.69,13.54,63.89,2.78,63.89,2.78-4.45,18.1,4.65,23.8,4.65,23.8s7.87-6.35,10.72-2.08c4.28,6.42-8.68,13.34-10.88,14.46C233.3,544.43,215.28,580.87,182,567Z"/></g></g><g id="MAN"><g id="LEFT_HAND-2" data-name="LEFT HAND"><path id="HAND-3" data-name="HAND" class="cls-1" d="M520.22,458.41c-7.13,50.81-74,152.3-79.66,160.62-6.3,9.3-17.44,2.8-14.48-9.53,3.37-14,21.36-129.06,38.76-161.32,18.84-88.38,66.76-194.4,81.13-206.6,21-17.83,37.07-12.67,40.92,31.63C590.71,317.16,542.57,424.8,520.22,458.41Z"/><path id="SHADOW-4" data-name="SHADOW" class="cls-2" d="M561.46,374.51c-2.33,5.82-4.74,11.6-7.19,17.25,0,0-53.91-33.87-58-48q1.68-4.47,3.37-8.84h0c22.84,22.12,59.8,32.46,59.8,32.46C560.2,369.75,560.86,372.12,561.46,374.51Z"/><path id="ARM-2" data-name="ARM" class="cls-1" d="M432.13,600.77c-5,1.76-28.18,9.43-32.73,14.22s-7.83,20.35-7.74,22.06.94,11,.94,11,6.58-.51,6.32-7.5c-.31-8.29,8.62-14.69,13.83-16.78,2.17-.86,7.47-.06,8.16,3.08s-7.55,6.74-9,9c-2.26,3.41-.24,7.34-.24,7.34s12.64-6.1,15.07-7.26,15.2-14.39,19.52-25S443.64,596.72,432.13,600.77Z"/></g><g id="LEGS-2" data-name="LEGS"><g id="RIGHT_LEG-2" data-name="RIGHT LEG"><path id="LEG-2" data-name="LEG" class="cls-1" d="M689.29,741.4c1.65,14,16.43,53,21,69.33,10.58,37.47,53.57,200.13,66.5,241.36,16.07,51.25,24,21.05,24,2s27.74-145.42,10.48-208.22c-9.33-34-27.57-67.53-29.17-125.51Z"/><path id="SHADOW-5" data-name="SHADOW" class="cls-2" d="M782.41,727.56C750,746,715,753.89,693.15,757.26c-.94-3.62-3.56-13.29-3.86-15.87l92.82-21.07Q782.21,724,782.41,727.56Z"/><path id="SOCK" class="cls-3" d="M813.19,960.2c-4.76,44.35-12.39,83.84-12.39,93.85,0,19.09-7.91,49.29-24-2-5.17-16.49-15.16-52.44-25.95-92C754.53,961.26,778.66,968.24,813.19,960.2Z"/><g id="SHOES-3" data-name="SHOES"><path class="cls-9" d="M710.34,1088.55s-4.71-15.46,10.62-21c12.07-4.37,46.59-12.2,50.83-25.41,0,0,8.11,7.82,30.28,1.94,0,0,17.57,17,13.84,43.59Z"/><path class="cls-9" d="M788.1,1046.44c.21-1.86.38-22.55-6.19-25.83s-21.55-.2-21.14,3.28,8.1,20.53,10,21S788.1,1046.44,788.1,1046.44Z"/><rect class="cls-3" x="706.78" y="1087.78" width="112.86" height="6.63" rx="2.8"/><path class="cls-10" d="M774,1062.07s-3.12-11.17-9.64-11.2c-8,0-9.56,4.56-9.56,4.56"/><path class="cls-10" d="M760.86,1066.66s-1.84-10.59-8.33-11.19a10.87,10.87,0,0,0-10.21,4.56"/></g></g><g id="LEFT_LEG-2" data-name="LEFT LEG"><path id="SHORTS-2" data-name="SHORTS" class="cls-11" d="M642.59,750.39c-2,4.79-125-26.91-122.52-38.17,1.3-5.89,36.69-5.79,69.13,3.87C618.76,724.89,645.88,742.67,642.59,750.39Z"/><path id="LEG-3" data-name="LEG" class="cls-1" d="M542.24,710.34c-5.82,1.26-5.53,40.67,0,90.54s17.85,236.43,9.84,249.36,30.17,1.85,31.41-4.92,52.14-114.66,41.89-181.85c-10.49-68.75,5.64-114.91,8-122.3S585.18,701,542.24,710.34Z"/><path id="SHADOW-6" data-name="SHADOW" class="cls-2" d="M633.42,741.17c-.6,1.86-2.07,6.17-3.77,12.69C599,724.32,561.11,719.14,538.86,719c.7-5.27,1.82-8.35,3.38-8.69C585.18,701,635.82,733.77,633.42,741.17Z"/><path id="SOCK-2" data-name="SOCK" class="cls-3" d="M614.39,958.24a.28.28,0,0,1,0,.06c-12.53,44.66-30.18,83.06-30.9,87-1.23,6.77-39.4,17.85-31.39,4.92,3.62-5.86,3.08-47.39.88-95.69C553,954.55,570.33,965.7,614.39,958.24Z"/><g id="SHOES-4" data-name="SHOES"><path class="cls-9" d="M485.85,1088.55s-4.71-15.46,10.62-21c12.07-4.37,53.15-12.2,57.39-25.41,0,0,8.12,7.82,30.28,1.94,0,0,14.78,21.88,11.22,43.59Z"/><path class="cls-9" d="M563.61,1046.44c.21-1.86.38-22.55-6.19-25.83s-15-.2-14.57,3.28,8.09,20.53,10,21S563.61,1046.44,563.61,1046.44Z"/><rect class="cls-3" x="482.29" y="1087.78" width="116.8" height="6.63" rx="2.8"/><path class="cls-10" d="M544.9,1063.38s-1.15-13.14-7.67-13.16c-8,0-6.27,6.52-6.27,6.52"/><path class="cls-10" d="M529.81,1068.63s-1.16-13.14-7.67-13.16c-8,0-6.28,6.53-6.28,6.53"/></g></g><g id="SHORTS-3" data-name="SHORTS"><path class="cls-5" d="M561.23,511.56c-9.15,25.46-13.46,44.27-21.46,110.77-7.37,61.21-19.09,77.58-19.7,89.89,0,0,75.73-14.78,122.52,38.17l16.26-38.17,12.48,30.48s71,7.69,139.95-39.72c0,0-21.53-23.39-27.84-75-6.54-53.46-15.8-90.42-27.22-112.38S564.38,502.78,561.23,511.56Z"/><path class="cls-12" d="M658.85,712.22c-3.94-12.93-20-79.43-22.41-81.27S618,619.86,618,619.86"/><path class="cls-2" d="M763.45,532.32c-12.15-6.94-47-19.53-126.65-4.2-55.47,10.66-73.11-1-78.08-9.36.79-2.37,1.63-4.76,2.51-7.2,3.15-8.78,183.57-17.92,195,4.05A140.42,140.42,0,0,1,763.45,532.32Z"/><path class="cls-3" d="M769.92,725.59l-3.74,1.25c-.28-.84-7-21.28-15-78.57-7.48-53.65-23.08-127.21-25-136.41,1.4-.05,2.73-.09,4-.11,2.51,11.83,17.61,83.41,24.94,136C763,704.55,769.85,725.39,769.92,725.59Z"/><path class="cls-3" d="M758.76,729.53,755,730.78c-.28-.84-7-21.28-15-78.57-7.33-52.59-22.46-127.6-24.91-139.66,1.36-.12,2.68-.22,4-.31,2.73,13.48,17.59,87.39,24.85,139.43C751.83,708.49,758.69,729.33,758.76,729.53Z"/></g></g><path id="T-SHIRT-2" data-name="T-SHIRT" class="cls-2" d="M712,205.25c18.08,6.36,48.69,18.07,59.43,26.07s61.59,72,61.59,72S810.68,350.14,759.57,368c0,0-21.55,51.61-1.55,148.33,0,0-13.95-15-118.13,9.27-71.47,16.66-88.37-15.36-87.93-20.29s26.94-75.12,7.5-137.93c0,0-52.85-14.77-71.21-46.79,0,0,31.57-66,47.13-78.54s57.64-24.49,72.26-29S712,205.25,712,205.25Z"/><g id="BACKPACK"><path class="cls-9" d="M756.57,510.76c3.35,15.08,62.63,4.39,41.49-58s-38.68-83.87-38.68-83.87S740.39,437.91,756.57,510.76Z"/><path class="cls-9" d="M747.61,216.72c-10.69,24.93-33.18,94.19,9.82,207l-6.76,32.74s-66.49-97-26.85-245.71C725.94,202.8,747.61,216.72,747.61,216.72Z"/><path class="cls-9" d="M607.66,213.67C570.44,276.26,581.85,415.26,566,437.91c0,0-23.61-153.44,9.75-212.88C582.15,213.66,611.92,206.51,607.66,213.67Z"/></g><g id="HEAD-3" data-name="HEAD"><g id="NECK-2" data-name="NECK"><path class="cls-1" d="M714.43,206.56S659.84,238.42,613,211.74c0,0,26-14.49,29.41-40.67a3.47,3.47,0,0,0,.06-.45c0-.31.07-.63.1-.94a1.43,1.43,0,0,0,0-.29c.07-.72.12-1.44.15-2.17,0-.92,0-1.86,0-2.82h.06L691,153.27s-.06,3.37.41,8.46C692.58,174.48,697.12,198.05,714.43,206.56Z"/><path class="cls-2" d="M692,169c-12,28-43.3,25-55.88,20.29a48.74,48.74,0,0,0,6.33-18.22,3.47,3.47,0,0,0,.06-.45c0-.31.08-.62.1-.94a1.43,1.43,0,0,0,0-.29c.07-.72.12-1.44.15-2.17q.06-1.4,0-2.82h0L691,153.27S691.53,163.91,692,169Z"/></g><path id="FACE" class="cls-1" d="M695.69,154.39a28.88,28.88,0,0,1-4.83,10.5c-2.6,3.57-3.61,5.63-5.86,7.11-5.89,3.87-36.87,14.21-49-3-5.69-8.07-9-39-6.27-63.52,2.92-26.2,57.06-14.84,66,7.8C701.28,127.45,698,144.7,695.69,154.39Z"/><g id="HAIR-2" data-name="HAIR"><path class="cls-2" d="M665.37,104.12c-2.13.28-37.13,8.35-48.32-5.36s5.51-26.53,22.11-24.92c0,0,1.2-13.38,21.38-17.34,20.35-4,29.29,4.19,29.37,11.81,0,0,14.55-5.73,25.42,3s6.69,15.42,6.23,24.31,6.37,6.55,6.32,15.84c-.06,9.91-10.71,9.92-19.35,29.43-3.31,7.5-9.15,10.74-9.38,7.3s-.46-3.88-1.91-5.82-7.91-12.65-8.44-27.25S684.17,101.67,665.37,104.12Z"/><path class="cls-13" d="M684.48,101.4c-9.05.64-35.77,16.33-63.18,5.54"/></g><circle class="cls-1" cx="698.15" cy="137.86" r="13.55"/></g><g id="RIGHT_HAND-2" data-name="RIGHT HAND"><path id="HAND-4" data-name="HAND" class="cls-1" d="M730.61,371.63s37.42,77.85,92.68,92.63c18.47,4.93,36.42-10,38.19-41.65S820.36,323,820.36,323c-32.81,37.72-60.79,45-60.79,45l-15.12-7.77Z"/><path id="ARM-3" data-name="ARM" class="cls-1" d="M725.61,369.45c-5.07-2.89-19.93-19.66-22.29-25.91s.5-23.61,1.24-25.13,5.07-10.89,5.07-10.89a11.11,11.11,0,0,1,3,10.76,22.7,22.7,0,0,0,5.75,21.63c1.67,1.69,10.1,2.54,11.94,0s-2.5-9.26-3-11.9c-.77-4,2.6-6.77,2.6-6.77L741,334.07c1.8,2.06,4,19.4,3.92,30.86S736.37,375.59,725.61,369.45Z"/><g id="SHADOW-7" data-name="SHADOW"><path class="cls-2" d="M828.84,337.27h0c-.44.56-28,35.36-54.76,38.24L759.57,368s28-7.27,60.78-45l0,0,0,.09.05.08L828.66,337l0,.06Z"/><path class="cls-14" d="M773.42,373.55s34.14,14.23,48.37,27.59"/></g></g></g><path class="cls-13" d="M660.14,116.37s5.05-2.83,12.33,1.84"/><ellipse class="cls-2" cx="664.24" cy="127.49" rx="3.56" ry="2.75" transform="translate(507.1 785.34) rotate(-87.43)"/><ellipse class="cls-2" cx="639.24" cy="127.49" rx="3.56" ry="2.75" transform="translate(483.22 760.37) rotate(-87.43)"/><polyline class="cls-13" points="650.21 127.7 649.21 145.71 655.3 147.92"/><path class="cls-13" d="M665.08,151.5s-3.47,7.21-9.74,6.41"/><path class="cls-13" d="M200.93,516.74s5-2.83,12.32,1.83"/><path class="cls-13" d="M167,517s4.41-3.74,12.45-.56"/><ellipse class="cls-2" cx="205.02" cy="528.86" rx="3.56" ry="2.75" transform="translate(-332.5 709.96) rotate(-87.43)"/><ellipse class="cls-2" cx="173.02" cy="526.86" rx="3.56" ry="2.75" transform="translate(-361.06 676.08) rotate(-87.43)"/><path class="cls-13" d="M186,539.5a3.5,3.5,0,0,1,0-7"/><path class="cls-13" d="M185.5,551.5s9,1.82,16.52-3.59"/></svg>